<svg viewBox="0 0 24 24"> 
  <path d="M17.5,9.1c-.3-.1-.7,0-.9.4-.2.6-.5,1.1-.9,1.6-.3.3-.2.8.1,1,.3.3.8.2,1-.1.4-.6.8-1.2,1.1-1.9,0-.3,0-.7-.4-.9h0Z"/>
  <path d="M17.6,8.6c.4,0,.8-.2.8-.6,0-.7,0-1.5,0-2.2,0-.4-.4-.5-.8-.5s-.5.4-.5.8c0,.5,0,1.1,0,1.7,0,.4.2.8.6.8h0Z"/>
  <path d="M17.1,4.6c.4-.3.4-.7.2-1-.2-.2-.4-.5-.7-.8s-.7-.3-1,0-.3.7,0,1c.2.2.4.5.6.7.3.4.7.4,1,.2h0Z"/>
  <path d="M5.8,14.9c.3.1.7,0,.9-.4.2-.6.5-1.1.9-1.6.3-.3.2-.8-.1-1-.3-.3-.8-.2-1,.1-.4.6-.8,1.2-1.1,1.9-.1.3,0,.7.4.9h0Z"/>
  <path d="M5.7,15.4c-.4,0-.8.2-.8.6-.1.7-.1,1.5.1,2.2,0,.4.4.5.8.5s.5-.4.5-.8c-.1-.5-.1-1.1-.1-1.7.1-.4-.2-.8-.6-.8h.1Z"/>
  <path d="M6.2,19.4c-.4.3-.4.7-.2,1,.2.2.4.5.7.8s.7.3,1,0c.3-.3.3-.7,0-1-.2-.2-.4-.5-.6-.7-.3-.4-.7-.4-1-.2h.1Z"/>
  <path d="M9.6,5.8c-.3,0-.7,0-.9.4-.1.3,0,.7.4.9.6.2,1.1.5,1.6.9.3.3.8.2,1,0,.3-.3.2-.8-.1-1-.6-.4-1.2-.8-1.9-1.1h-.1Z"/>
  <path d="M8.2,6.1c0-.4-.2-.8-.6-.8-.7,0-1.5,0-2.2,0-.4,0-.5.4-.5.8s.4.5.8.5c.5,0,1.1,0,1.7,0,.4,0,.8-.2.8-.6h0Z"/>
  <path d="M4.1,7.5c.4-.3.4-.7.2-1-.3-.4-.7-.4-1-.2-.2.2-.5.4-.8.7s-.3.7,0,1,.7.3,1,0c.2-.2.5-.4.7-.6h-.1Z"/>
  <path d="M13.7,18.2c.3.1.7,0,.9-.4.1-.3,0-.7-.4-.9-.6-.2-1.1-.5-1.6-.9-.3-.3-.8-.2-1,.1-.3.3-.2.8.1,1,.6.4,1.2.8,1.9,1.1h.1Z"/>
  <path d="M15.1,17.9c0,.4.2.8.6.8.7.1,1.5.1,2.2-.1.4,0,.5-.4.5-.8s-.4-.5-.8-.5c-.5.1-1.1.1-1.7.1-.4-.1-.8.2-.8.6h0Z"/>
  <path d="M19.2,16.5c-.4.3-.4.7-.2,1,.3.4.7.4,1,.2.2-.2.5-.4.8-.7s.3-.7,0-1c-.3-.3-.7-.3-1,0-.2.2-.5.4-.7.6h0Z"/>
  <path d="M1.8,15.1c0,.4.3.7.7.7s.7,2.4.7-.7,2.4-4.7,5-5.1h.9c-.4.2-.7.4-1,.6-.3.3-.3.7-.1,1,.2.3.4.3.6.3-.5,1.1-.7,2.6-.5,4,.4,3,2.5,6.2,6.5,6.2s.7-.3.7-.7,2.4-.7-.7-.7-4.7-2.4-5.1-5v-1.3c.2.5.5.9.8,1.3.3.3.7.3,1,.1.2-.1.3-.3.3-.5,1.2.5,2.7.7,4.2.5,3-.4,6.2-2.5,6.2-6.5s-.3-.7-.7-.7-.7-2.4-.7.7-2.4,4.7-5,5.1h-1.7c.5-.2,1-.5,1.5-.9.3-.3.3-.7.1-1-.2-.3-.4-.3-.6-.3.5-1.1.7-2.6.5-4-.4-3-2.5-6.2-6.5-6.2s-.7.3-.7.7-2.4.7.7.7,4.7,2.4,5.1,5v1.3c-.2-.5-.5-.9-.8-1.3-.3-.3-.7-.3-1-.1s-.3.4-.3.7c-1.1-.4-2.5-.6-3.9-.4-3,.4-6.2,2.5-6.2,6.5Z"/>
</svg>