<svg viewBox="0 0 24 24">  
  <path class="cls-1" d="M6.3,9.2c-.4.2-.5.6-.4.9.3.7.7,1.3,1.1,1.9.2.3.7.4,1,.1.3-.2.4-.7.1-1-.4-.5-.7-1-.9-1.6-.2-.4-.6-.5-.9-.4Z"/>
  <path class="cls-1" d="M6.1,8.6c.4,0,.7-.4.6-.8,0-.6,0-1.2.1-1.7,0-.4-.1-.8-.5-.8-.4,0-.8.1-.8.5-.2.7-.2,1.5-.1,2.2,0,.4.4.7.8.6Z"/>
  <path class="cls-1" d="M6.6,4.7c.3.2.7.2,1-.2.2-.2.4-.5.6-.7.3-.3.3-.7,0-1-.3-.3-.7-.3-1,0-.3.3-.5.6-.7.8-.2.3-.2.7.2,1Z"/>
  <path class="cls-1" d="M18,14.8c.4-.2.5-.6.4-.9-.3-.7-.7-1.3-1.1-1.9-.2-.3-.7-.4-1-.1-.3.2-.4.7-.1,1,.4.5.7,1,.9,1.6.2.4.6.5.9.4Z"/>
  <path class="cls-1" d="M18.2,15.4c-.4,0-.7.4-.6.8,0,.6,0,1.2-.1,1.7,0,.4.1.8.5.8.4,0,.8-.1.8-.5.2-.7.2-1.5.1-2.2,0-.4-.4-.7-.8-.6Z"/>
  <path class="cls-1" d="M17.7,19.3c-.3-.2-.7-.2-1,.2-.2.2-.4.5-.6.7-.3.3-.3.7,0,1,.3.3.7.3,1,0,.3-.3.5-.6.7-.8.2-.3.2-.7-.2-1Z"/>
  <path class="cls-1" d="M14.1,5.8c-.7.3-1.3.7-1.9,1.1-.3.2-.4.7-.1,1,.2.3.7.4,1,.1.5-.4,1-.7,1.6-.9.4-.2.5-.6.4-.9-.2-.4-.6-.5-.9-.4Z"/>
  <path class="cls-1" d="M15.6,6c0,.4.4.7.8.6.6,0,1.2,0,1.7.1.4,0,.8-.1.8-.5,0-.4-.1-.8-.5-.8-.7-.2-1.5-.2-2.2-.1-.4,0-.7.4-.6.8Z"/>
  <path class="cls-1" d="M19.6,7.4c.2.2.5.4.7.6.3.3.7.3,1,0,.3-.3.3-.7,0-1-.3-.3-.6-.5-.8-.7-.3-.2-.7-.2-1,.2-.2.3-.2.7.2,1Z"/>
  <path class="cls-1" d="M10.2,18.2c.7-.3,1.3-.7,1.9-1.1.3-.2.4-.7.1-1-.2-.3-.7-.4-1-.1-.5.4-1,.7-1.6.9-.4.2-.5.6-.4.9.2.4.6.5.9.4Z"/>
  <path class="cls-1" d="M8.7,18c0-.4-.4-.7-.8-.6-.6,0-1.2,0-1.7-.1-.4,0-.8.1-.8.5,0,.4.1.8.5.8.7.2,1.5.2,2.2.1.4,0,.7-.4.6-.8Z"/>
  <path class="cls-1" d="M4.7,16.6c-.2-.2-.5-.4-.7-.6-.3-.3-.7-.3-1,0-.3.3-.3.7,0,1,.3.3.6.5.8.7.3.2.7.2,1-.2.2-.3.2-.7-.2-1Z"/>
  <path class="cls-1" d="M15.8,8.6c-1.4-.2-2.8,0-3.9.4,0-.3,0-.5-.3-.7-.3-.2-.7-.2-1,.1-.3.4-.6.8-.8,1.3,0-.4,0-.9,0-1.3.4-2.6,2-5,5.1-5s.7-.3.7-.7-.3-.7-.7-.7c-4,0-6.1,3.2-6.5,6.2-.2,1.4,0,2.9.5,4-.2,0-.4,0-.6.3-.2.3-.2.7.1,1,.5.4,1,.7,1.5.9-.6,0-1.1,0-1.7,0-2.6-.4-5-2-5-5.1s-.3-.7-.7-.7-.7.3-.7.7c0,4,3.2,6.1,6.2,6.5,1.5.2,3,0,4.2-.5,0,.2.1.4.3.5.3.2.7.2,1-.1.3-.4.6-.8.8-1.3,0,.4,0,.9,0,1.3-.4,2.6-2,5-5.1,5s-.7.3-.7.7.3.7.7.7c4,0,6.1-3.2,6.5-6.2.2-1.4,0-2.9-.5-4,.2,0,.4,0,.6-.3.2-.3.2-.7-.1-1-.3-.2-.6-.4-1-.6.3,0,.6,0,.9,0,2.6.4,5,2,5,5.1s.3.7.7.7.7-.3.7-.7c0-4-3.2-6.1-6.2-6.5Z"/>
</svg>