<svg viewBox="0 0 24 24"> 
  <path d="M19.8,6c-.6-.6-1.5-.9-2.7-1v-1.4c0-.4-.3-.7-.7-.7s-.7.3-.7.7v1.3c-.6,0-1.3,0-2,0h-3.6c-.7,0-1.4,0-2,0v-1.3h0c0-.4-.3-.7-.7-.7s-.7.3-.7.7v1.4c-1.3.1-2.1.4-2.7,1-.6.6-.9,1.5-1,2.7h17.6c-.1-1.3-.4-2.1-1-2.7Z"/>
  <path d="M20.9,10.1H3.1c0,.6,0,1.3,0,2v1.8c0,3.4,0,5,1,6.1,1,1,2.7,1,6.1,1h3.6c3.4,0,5,0,6.1-1,1-1,1-2.7,1-6.1v-1.8c0-.7,0-1.4,0-2ZM17.3,16.3h-1.1v1.1c0,.4-.3.7-.7.7s-.7-.3-.7-.7v-1.1h-1.1c-.4,0-.7-.3-.7-.7s.3-.7.7-.7h1.1v-1.1c0-.4.3-.7.7-.7s.7.3.7.7v1.1h1.1c.4,0,.7.3.7.7s-.3.7-.7.7Z"/>
</svg>