<svg viewBox="0 0 24 24"> 
  <path d="M21.5,10.7c-.2-.3-.4-.6-.9-1.2-.2-.2-.3-.4-.4-.5-.2-.3-.3-.6-.4-1v-.6c0-.8,0-1.2-.2-1.5-.3-.8-.9-1.4-1.7-1.7-.3-.1-.7-.2-1.5-.2h-.6c-.4,0-.7-.2-1-.4,0,0-.3-.2-.5-.4-.6-.5-.9-.8-1.2-.9-.7-.4-1.6-.4-2.3,0-.3.2-.6.4-1.2.9-.2.2-.4.3-.5.4-.3.2-.6.3-1,.4h-.6c-.8,0-1.2,0-1.5.2-.8.3-1.4.9-1.7,1.7,0,.3-.2.7-.2,1.5v.6c0,.4-.2.7-.4,1,0,0-.2.3-.4.5-.5.6-.8.9-.9,1.2-.4.7-.4,1.6,0,2.3.2.3.4.6.9,1.2.2.2.3.4.4.5.2.3.3.6.4,1v.6c0,.8,0,1.2.2,1.5.3.8.9,1.4,1.7,1.7.3,0,.7,0,1.5.2h.6c.4,0,.7.2,1,.4.1,0,.3.2.5.4.6.5.9.8,1.2.9.7.4,1.6.4,2.3,0,.3-.2.6-.4,1.2-.9.2-.2.4-.3.5-.4.3-.2.6-.3,1-.4h.6c.8,0,1.2,0,1.5-.2.8-.3,1.4-.9,1.7-1.7.1-.3.1-.7.2-1.5v-.6c0-.4.2-.7.4-1,0-.1.2-.3.4-.5.5-.6.8-.9.9-1.2.4-.7.4-1.6,0-2.3ZM16.4,9.9h-.1c0,0-5.4,5.5-5.4,5.5-.4.3-.9.3-1.2,0l-2.2-2.2c-.3-.4-.3-.9,0-1.2.4-.3.9-.3,1.2,0l1.6,1.6,4.9-4.9c.4-.3.9-.3,1.2,0,.3.4.3.9,0,1.2Z"/>
</svg>