<svg width="45px" height="24px" viewBox="0 0 33.07 17.45">
  <g>
   <polygon fill="white" points="0,17.42 33.06,17.42 33.06,0 0,0 "/>
   <polygon fill="#CE1124" points="33.06,6.97 18.51,6.97 18.51,0 14.53,0 14.53,6.97 0.01,6.97 0.01,10.45 14.53,10.45 14.53,17.42 18.51,17.42 18.51,10.45 33.06,10.45 "/>
   <polygon fill="#00247D" points="0,2.03 0,5.82 7.21,5.82 "/>
   <polygon fill="#00247D" points="3.98,0 3.87,0.01 13.22,4.95 13.22,0 "/>
   <polygon fill="#CE1124" points="11.1,5.8 0,0 0,1.37 8.45,5.8 "/>
   <polygon fill="#CE1124" points="21.97,11.62 33.07,17.42 33.07,16.05 24.62,11.62 "/>
   <polygon fill="#00247D" points="0,15.42 0,11.63 7.21,11.63 "/>
   <polygon fill="#00247D" points="3.98,17.45 3.87,17.44 13.22,12.5 13.22,17.45 "/>
   <polygon fill="#CE1124" points="11.04,11.62 0.01,17.41 2.59,17.42 13.23,11.86 13.23,11.62 "/>
   <polygon fill="#00247D" points="33.07,2.03 33.07,5.82 25.86,5.82 "/>
   <polygon fill="#00247D" points="29.09,0 29.2,0.01 19.85,4.95 19.85,0 "/>
   <polygon fill="#CE1124" points="33.06,0.01 30.58,0.01 19.86,5.61 19.86,5.8 22.12,5.8 "/>
   <polygon fill="#00247D" points="33.07,15.42 33.07,11.63 25.86,11.63 "/>
   <polygon fill="#00247D" points="29.09,17.45 29.2,17.44 19.85,12.5 19.85,17.45 "/>
  </g>
</svg>
