<svg viewBox="0 0 24 24">  
  <path d="M2.6,6.8c.5-.2,1,0,1.2.5l-.8.4q.8-.4.8-.4h0s0,0,0,0h0s0,0,0,0c0,0,0,0,0,.2,0,.2.2.4.4.7.3.6.8,1.3,1.5,2,.2.2.3.3.5.5,0,0,0,0,0,0,1.3,1.3,3.2,2.4,5.7,2.4s2.1-.2,2.9-.5c1.1-.4,2-1.1,2.8-1.8.9-.8,1.5-1.7,1.9-2.4.2-.3.4-.6.5-.8,0,0,0-.2.1-.2,0,0,0,0,0,0h0c.2-.5.7-.7,1.2-.5.5.2.7.7.5,1.2l-.8-.4q.8.4.8.4h0s0,0,0,0h0s0,0,0,.1c0,0,0,.2-.1.3-.1.2-.3.6-.5.9-.4.6-.9,1.3-1.6,2.1l.7.7c.4.4.4.9,0,1.3-.4.4-.9.4-1.3,0l-.8-.8c-.5.4-1.1.8-1.7,1.1l.7,1.1c.3.4.2,1-.3,1.3-.4.3-1,.2-1.3-.3l-.9-1.4c-.6.2-1.3.3-2,.4v1.4c0,.5-.4.9-.9.9s-.9-.4-.9-.9v-1.4c-.7,0-1.4-.2-2-.4l-.9,1.4c-.3.4-.8.5-1.3.3-.4-.3-.5-.8-.3-1.3l.7-1.1c-.6-.3-1.2-.7-1.7-1.1l-.8.8c-.4.4-.9.4-1.3,0-.4-.4-.4-.9,0-1.3l.7-.7c-.8-.8-1.3-1.7-1.7-2.3-.2-.3-.3-.6-.4-.8,0,0,0-.2-.1-.2,0,0,0,0,0,0h0s0,0,0,0h0s0,0,0,0t.8-.4l-.8.4c-.2-.5,0-1,.5-1.2Z"/>
</svg>