<svg viewBox="0 0 45 23.7" width="45px" height="24px" > 
  <rect fill="#fff" y="0" width="45" height="23.7"/>
  <g>
    <path fill="#ff092a" d="M6.9,4.7c0,.1,0,.8,0,.8.2,0,1.2-.2,2.1-.2,0,.8-.3,1.7-.3,1.7.2,0,1,0,1,0,.2,0,1.1,0,1.1,0,0-.2-.2-.9-.3-1.7,1,0,2.1.2,2.1.2,0,0,0-.5,0-.8s0-.8,0-.8c0,0-1.1.1-2.1.2,0-.8.2-1.7.2-1.7,0,0-.7,0-1,0s-1,0-1,0c0,0,.2.8.2,1.7-1.1,0-2.1-.2-2.1-.2,0,.1,0,.8,0,.8Z"/>
    <path fill="#ff092a" d="M32.5,4.7c0,.1,0,.8,0,.8.2,0,1.2-.2,2.1-.2,0,.8-.3,1.7-.3,1.7.2,0,1,0,1,0,.2,0,1.1,0,1.1,0,0-.2-.2-.9-.3-1.7,1,0,2.1.2,2.1.2,0,0,0-.5,0-.8s0-.8,0-.8c0,0-1.1.1-2.1.2,0-.8.2-1.7.2-1.7,0,0-.7,0-1,0s-1,0-1,0c0,0,.2.8.2,1.7-1.1,0-2.1-.2-2.1-.2,0,.1,0,.8,0,.8Z"/>
    <path fill="#ff092a" d="M12.6,19.1c0-.3,0-.8,0-.8,0,0-1.1.1-2.1.2,0-.8.2-1.7.2-1.7,0,0-.7,0-1,0s-1,0-1,0c0,0,.2.8.2,1.7-1.1,0-2.1-.2-2.1-.2,0,.1,0,.8,0,.8,0,.1,0,.8,0,.8.2,0,1.2-.2,2.1-.2,0,.8-.3,1.7-.3,1.7.2,0,1,0,1,0,.2,0,1.1,0,1.1,0,0-.2-.2-.9-.3-1.7,1,0,2.1.2,2.1.2,0,0,0-.5,0-.8Z"/>
    <path fill="#ff092a" d="M38.2,19.1c0-.3,0-.8,0-.8,0,0-1.1.1-2.1.2,0-.8.2-1.7.2-1.7,0,0-.7,0-1,0s-1,0-1,0c0,0,.2.8.2,1.7-1.1,0-2.1-.2-2.1-.2,0,.1,0,.8,0,.8,0,.1,0,.8,0,.8.2,0,1.2-.2,2.1-.2,0,.8-.3,1.7-.3,1.7.2,0,1,0,1,0,.2,0,1.1,0,1.1,0,0-.2-.2-.9-.3-1.7,1,0,2.1.2,2.1.2,0,0,0-.5,0-.8Z"/>
    <polygon fill="#ff092a" points="45 9.5 45 9.5 25.5 9.5 25.5 0 25.5 0 25.5 0 19.5 0 19.5 9.5 0 9.5 0 14.2 0 14.2 0 14.3 19.5 14.3 19.5 23.7 25.5 23.7 25.5 23.7 25.5 23.7 25.5 14.3 45 14.3 45 9.5 45 9.5"/>
  </g>
</svg>