<svg viewBox="0 0 24 24">  
  <circle cx="15.7" cy="8.3" r="1.9"/>
  <path d="M21.8,6.8c-.2-1.3-.6-2.4-1.4-3.2-.8-.8-1.9-1.2-3.2-1.4-1.3-.2-3-.2-5.1-.2h-.1c-2.1,0-3.8,0-5.1.2-1.3.2-2.4.6-3.2,1.4-.8.8-1.2,1.9-1.4,3.2-.2,1.3-.2,3-.2,5.1h0c0,.5,0,1,0,1.5,0,1.7,0,3.1.2,4.2.2,1.1.6,2.1,1.3,2.8.8.8,1.9,1.2,3.2,1.4,1.3.2,3,.2,5.1.2h.1c2.1,0,3.8,0,5.1-.2,1.3-.2,2.4-.6,3.2-1.4.3-.3.5-.6.7-1,.4-.8.6-1.8.7-3,0-1.2,0-2.6,0-4.4h0c0-2.2,0-3.9-.2-5.2ZM20.5,16.3c0,1-.2,1.8-.5,2.3l-2.6-2.4c-1-.9-2.4-1-3.5-.2l-.3.2c-.7.5-1.7.4-2.4-.2l-4-4c-.8-.8-2.1-.8-2.9,0l-.9.8c0-.3,0-.5,0-.8,0-2.2,0-3.8.2-5,.2-1.2.5-1.9,1-2.4.5-.5,1.2-.8,2.4-1,1.2-.2,2.8-.2,5-.2s3.8,0,5,.2c1.2.2,1.9.5,2.4,1,.5.5.8,1.2,1,2.4.2,1.2.2,2.8.2,5s0,3.2,0,4.3Z"/>
</svg>