<svg viewBox="0 0 24 24">
  <path d="M16.2,2H7.8c-3.2,0-5.8,2.6-5.8,5.8v8.3c0,3.2,2.6,5.8,5.8,5.8h8.3c3.2,0,5.8-2.6,5.8-5.8V7.8c0-3.2-2.6-5.8-5.8-5.8ZM20.3,16.2c0,2.3-1.9,4.2-4.2,4.2H7.8c-2.3,0-4.2-1.9-4.2-4.2V7.8c0-2.3,1.9-4.2,4.2-4.2h8.3c2.3,0,4.2,1.9,4.2,4.2v8.3Z"/>
  <path d="M17.4,5.3c-.7,0-1.2.6-1.2,1.2s.6,1.2,1.2,1.2c0,0,0,0,0,0,.7,0,1.2-.6,1.2-1.2,0-.7-.6-1.2-1.2-1.2Z"/>
  <path d="M12,7c-2.8,0-5,2.2-5,5s2.2,5,5,5,5-2.2,5-5-2.2-5-5-5ZM12,15.3c-1.8,0-3.3-1.5-3.3-3.3,0-1.8,1.5-3.3,3.3-3.3,1.8,0,3.3,1.5,3.3,3.3s-1.5,3.3-3.3,3.3Z"/>
</svg>