<svg viewBox="0 0 167.39 101.89"> 
  <path d="M127.37,50.94l-3.64,3.64,3.64,3.64,3.64-3.64-3.64-3.64h0ZM50.94,32.75l3.64-3.64L83.69,0l14.55,14.55,3.64,3.64-3.64,3.64h0s-3.64,3.64-3.64,3.64l-3.64,3.64-3.64-3.64-3.64-3.64-10.92,10.92,3.64,3.64,3.64-3.64,3.64-3.64,3.64,3.64h0s3.64,3.64,3.64,3.64h0s3.64-3.64,3.64-3.64h0s3.64-3.64,3.64-3.64l3.64,3.64h0s14.56,14.56,14.56,14.56l-29.11,29.11h0s-3.64,3.64-3.64,3.64l-3.64-3.63h0s-10.92-10.92-10.92-10.92h0s-3.64-3.64-3.64-3.64l7.28-7.28h0s3.64-3.64,3.64-3.64l3.64,3.64,3.64,3.64,10.92-10.91-3.64-3.64h0s-3.64,3.63-3.64,3.63h0s-3.64,3.64-3.64,3.64l-3.64-3.64-3.64-3.64-7.28,7.27-3.64-3.64-10.92-10.92-3.64-3.64h0ZM65.5,54.58l-3.64-3.64-3.64,3.64,3.64,3.64,3.64-3.64h0ZM58.22,47.31l-3.64-3.64-3.64,3.64,3.64,3.64,3.64-3.64h0ZM50.94,40.03l-3.64-3.64-3.64,3.64,3.64,3.64,3.64-3.64h0ZM123.72,40.03l-3.64-3.64-3.64,3.64,3.64,3.64,3.64-3.64h0ZM116.44,32.75l-3.64-3.64-3.64,3.64,3.64,3.64,3.64-3.64h0ZM109.17,25.47l-3.64-3.64-3.64,3.64,3.64,3.64,3.64-3.64h0ZM69.14,43.67l3.64-3.64h0s-3.64-3.64-3.64-3.64l-3.64-3.64,3.64-3.64,10.92-10.92,3.64-3.64,3.64,3.64h0s3.64,3.64,3.64,3.64l3.64-3.64-10.91-10.91-25.47,25.47,10.92,10.92h0ZM98.25,36.39l-3.64,3.64,7.28,7.28-14.55,14.55-3.64,3.64-3.64-3.64-3.64-3.64-3.64,3.64,10.92,10.92,25.47-25.47-10.92-10.92h0ZM87.33,40.03l-3.64-3.64-3.64,3.64,3.64,3.64,3.64-3.64h0ZM76.41,36.39h0s0,0,0,0h0ZM72.77,40.03h0,0ZM145.56,98.25l3.64-3.64,3.64,3.64-3.64,3.64-3.64-3.64h0ZM145.56,83.69l3.64-3.64h0l3.64,3.64,3.64,3.64,3.64-3.64-10.92-10.92-10.92,10.92,3.64,3.64,3.64-3.64h0ZM152.84,90.97l-3.64-3.64-3.64,3.64-3.64,3.64-10.92-10.91,3.64-3.64h0s10.92-10.91,10.92-10.91h0s3.64-3.64,3.64-3.64l3.64,3.63h0s10.92,10.92,10.92,10.92h0s3.64,3.64,3.64,3.64l-3.64,3.64-3.64,3.64-3.64,3.64-3.64-3.64h0ZM65.5,98.25l-3.64-3.64-3.64,3.64,3.64,3.64,3.64-3.64h0ZM61.86,80.05l-7.28,7.28-3.64-3.64,10.91-10.92,10.92,10.92-3.64,3.64-7.28-7.28h0ZM58.23,90.97l3.64-3.64,3.64,3.64,3.64,3.64,3.64-3.64,3.64-3.64,3.64-3.64-3.64-3.64h0s-10.92-10.91-10.92-10.91h0s-3.64-3.64-3.64-3.64l-3.64,3.63-10.92,10.92-3.64,3.64,10.92,10.91,3.64-3.64h0ZM21.83,98.25l-3.64-3.64-3.64,3.64,3.64,3.64,3.64-3.64h0ZM18.19,80.05l-7.28,7.28-3.64-3.64,10.92-10.92,10.92,10.92-3.64,3.64-7.28-7.28h0ZM14.56,90.97l3.64-3.64,3.64,3.64,3.64,3.64,3.64-3.64,3.64-3.64,3.64-3.64-3.64-3.64h0s-10.92-10.91-10.92-10.91h0s-3.64-3.64-3.64-3.64l-3.64,3.63h0s-10.92,10.92-10.92,10.92h0s-3.64,3.64-3.64,3.64l7.28,7.28,3.64,3.64,3.64-3.64h0ZM40.03,50.94l-3.64,3.64,3.64,3.64,3.64-3.64-3.64-3.64h0ZM58.23,61.86l-18.2,18.2-18.19-18.2,18.19-18.19,18.2,18.19h0ZM47.31,58.22l-7.28,7.28-7.27-7.28-3.64,3.63,10.91,10.92,10.92-10.92-3.64-3.63h0ZM109.17,98.25l-3.64-3.64-3.64,3.64,3.64,3.64,3.64-3.64h0ZM109.17,83.69l-3.64-3.64h0l-3.64,3.64-3.64,3.64-3.64-3.64,10.92-10.92,10.92,10.92-3.64,3.64-3.64-3.64h0ZM101.89,90.97l3.64-3.64,3.64,3.64,3.64,3.64,10.92-10.91-3.64-3.64h0s-10.92-10.91-10.92-10.91h0s-3.64-3.64-3.64-3.64l-3.64,3.63h0s-10.92,10.92-10.92,10.92h0s-3.64,3.64-3.64,3.64l3.64,3.64,3.64,3.64,3.64,3.64,3.64-3.64h0ZM145.56,61.86l-18.19,18.2-18.19-18.2,18.19-18.19,18.19,18.19h0ZM134.64,58.22l-7.28,7.28-7.28-7.28-3.64,3.63,10.92,10.92,10.92-10.92-3.64-3.63h0Z"/>
</svg>