<svg viewBox="0 0 167.39 101.89">  
  <path d="M87.33,32.75h0l-3.64,3.64-3.64-3.64-3.64-3.64-7.28,7.28h0s-3.64,3.64-3.64,3.64l3.64,3.64h0l10.92,10.92,3.64,3.64,14.56-14.55,3.64-3.64h0,0l-3.64-3.64-7.28-7.28-3.64,3.64h0ZM145.56,3.64l3.64,3.64,3.64-3.64L149.2,0l-3.64,3.64h0ZM145.56,18.19l3.64,3.64h0l3.64-3.64,3.64-3.64,3.64,3.64-10.92,10.92-10.92-10.92,3.64-3.64,3.64,3.64h0ZM152.84,10.92l-3.64,3.64-3.64-3.64-3.64-3.64-10.92,10.91,3.64,3.64h0s10.92,10.92,10.92,10.92h0l3.64,3.64,3.64-3.64h0s10.92-10.92,10.92-10.92h0s3.64-3.64,3.64-3.64l-3.64-3.64-3.64-3.64-3.64-3.64-3.64,3.64h0ZM65.5,3.64l-3.64,3.64-3.64-3.64L61.87,0l3.64,3.64h0ZM61.86,21.83l-7.28-7.28-3.64,3.64,10.91,10.92,10.92-10.92-3.64-3.64-7.28,7.28h0ZM58.23,10.91l3.64,3.64,3.64-3.64,3.64-3.64,3.64,3.64,3.64,3.64,3.64,3.64-3.64,3.64h0s-10.92,10.91-10.92,10.91h0s-3.64,3.64-3.64,3.64l-3.64-3.64-10.92-10.92-3.64-3.64,10.92-10.91,3.64,3.64h0ZM21.83,3.64l-3.64,3.64-3.64-3.64L18.2,0l3.64,3.64h0ZM18.19,21.83l-7.28-7.28-3.64,3.64,10.92,10.92,10.92-10.92-3.64-3.64-7.28,7.28h0ZM14.56,10.91l3.64,3.64,3.64-3.64,3.64-3.64,3.64,3.64,3.64,3.64,3.64,3.64-3.64,3.64h0s-10.92,10.91-10.92,10.91h0s-3.64,3.64-3.64,3.64l-3.64-3.64L3.64,21.83h0S0,18.19,0,18.19l7.28-7.28,3.64-3.64,3.64,3.64h0ZM40.03,50.94l-3.64-3.64,3.64-3.64,3.64,3.64-3.64,3.64h0ZM58.23,40.03l-18.2-18.2-18.19,18.2,18.19,18.19,18.2-18.19h0ZM47.31,43.66l-7.28-7.28-7.27,7.28-3.64-3.64,10.91-10.92,10.92,10.92-3.64,3.64h0ZM109.17,3.64l-3.64,3.64-3.64-3.64L105.53,0l3.64,3.64h0ZM109.17,18.19l-3.64,3.64h0l-3.64-3.64-3.64-3.64-3.64,3.64,10.92,10.92,10.92-10.92-3.64-3.64-3.64,3.64h0ZM101.89,10.92l3.64,3.64,3.64-3.64,3.64-3.64,10.92,10.91-3.64,3.64h0s-10.92,10.92-10.92,10.92l-3.64,3.64-3.64-3.64h0s-10.92-10.92-10.92-10.92h0s-3.64-3.64-3.64-3.64l3.64-3.64,3.64-3.64,3.64-3.64,3.64,3.64h0ZM127.37,50.94l-3.64-3.64,3.64-3.64,3.64,3.64-3.64,3.64h0ZM145.56,40.03l-18.19-18.2-18.19,18.2,18.19,18.19,18.19-18.19h0ZM134.64,43.66l-7.28-7.28-7.28,7.28-3.64-3.64,10.92-10.92,10.92,10.92-3.64,3.64h0ZM120.09,65.5l-3.64-3.64,3.64-3.64,3.64,3.64-3.64,3.64h0ZM47.31,58.22l3.64,3.64-3.64,3.64-3.64-3.64,3.64-3.64h0ZM80.06,98.25l3.64-3.64,3.64,3.64-3.64,3.64-3.64-3.64h0ZM87.34,25.47l-3.64,3.64-3.64-3.64,3.64-3.64,3.64,3.64h0ZM109.17,69.14l-3.64,3.64-10.92-10.92,10.92-10.92,3.64,3.64-3.64,3.64-3.64,3.64,3.64,3.64,3.64,3.64h0ZM101.89,76.41h0s3.64,3.64,3.64,3.64l3.64-3.64,7.28-7.28-3.64-3.64-3.64-3.64,7.28-7.28-7.28-7.28h0s-3.64-3.64-3.64-3.64l-3.64,3.64-14.56,14.55,14.56,14.56h0ZM58.23,54.58l3.64-3.64,10.92,10.92-10.92,10.92-3.64-3.64,3.64-3.64,3.64-3.64-3.64-3.64-3.64-3.64h0ZM58.22,47.3l-7.28,7.28,7.28,7.28-7.28,7.28,7.28,7.28,3.64,3.64,3.64-3.64h0s10.92-10.92,10.92-10.92l3.64-3.64-14.56-14.55-3.64-3.64-3.64,3.64h0ZM80.06,90.97h0l3.64-3.64,3.64,3.64h0s3.64,3.64,3.64,3.64l7.28-7.28,3.64-3.64-3.64-3.64-14.56-14.56-14.56,14.56-3.64,3.64,3.64,3.64h0s7.28,7.28,7.28,7.28l3.64-3.64h0ZM76.42,87.33l-3.64-3.64,10.92-10.92,10.92,10.92-3.64,3.64-3.64-3.64-3.64-3.64h0l-3.64,3.64-3.64,3.64h0ZM101.89,83.69h0,0ZM90.97,36.39l3.64,3.64-10.92,10.92-10.92-10.92,3.64-3.64,3.64,3.64,3.64,3.64h0l3.64-3.64,3.64-3.64h0Z"/>
</svg>