<svg viewBox="0 0 167.39 123.73" width="167" height="124">
  <path d="M43.67,90.98h0l-3.64-3.64-3.64,3.64-3.64,3.64-7.28-7.28h0s-3.64-3.64-3.64-3.64l3.64-3.64h0l10.92-10.92,3.64-3.64,14.56,14.55,3.64,3.64h0,0l-3.64,3.64-7.28,7.28-3.64-3.64h0ZM101.89,120.09l3.64-3.64,3.64,3.64-3.64,3.64-3.64-3.64h0ZM105.53,109.17c2.43,2.43,4.85,4.85,7.28,7.28l10.91-10.92-18.19-18.19-18.19,18.19c3.64,3.64,7.27,7.28,10.92,10.92,2.43-2.43,4.85-4.85,7.28-7.28h0ZM98.25,109.17l-3.64-3.64,10.92-10.92,10.92,10.92-3.64,3.64-7.28-7.28-7.27,7.28h0ZM58.23,120.09l3.64-3.64,3.64,3.64-3.64,3.64-3.64-3.64h0ZM61.86,109.17c2.43,2.43,4.85,4.85,7.28,7.28l10.91-10.92-18.19-18.19-18.19,18.19c3.64,3.64,7.27,7.28,10.92,10.92,2.43-2.43,4.85-4.85,7.28-7.28h0ZM54.59,109.17l-3.64-3.64,10.92-10.92,10.92,10.92-3.64,3.64-7.28-7.28-7.28,7.28h0ZM101.89,3.64l3.64,3.64,3.64-3.64-3.64-3.64-3.64,3.64h0ZM105.53,14.56c2.43-2.43,4.85-4.85,7.28-7.28l10.91,10.92-18.19,18.19-18.19-18.19c3.64-3.64,7.27-7.28,10.92-10.92,2.43,2.43,4.85,4.85,7.28,7.28h0ZM98.25,14.56l-3.64,3.64,10.92,10.92,10.92-10.92-3.64-3.64-7.28,7.28-7.27-7.28h0ZM58.23,3.64l3.64,3.64,3.64-3.64-3.64-3.64-3.64,3.64h0ZM61.86,14.56c2.43-2.43,4.85-4.85,7.28-7.28l10.91,10.92-18.19,18.19-18.19-18.19c3.64-3.64,7.27-7.28,10.92-10.92,2.43,2.43,4.85,4.85,7.28,7.28h0ZM54.59,14.56l-3.64,3.64,10.92,10.92,10.92-10.92-3.64-3.64-7.28,7.28-7.28-7.28h0ZM83.7,72.78l-3.64,3.64,3.64,3.64,3.64-3.64-3.64-3.64h0ZM101.9,83.7l-18.2,18.19-18.19-18.19,18.19-18.2,18.2,18.2h0ZM90.98,80.06l-7.28,7.28-7.28-7.28-3.64,3.64,10.92,10.91,10.92-10.91-3.64-3.64h0ZM83.7,50.95l-3.64-3.64,3.64-3.64,3.64,3.64-3.64,3.64h0ZM101.9,40.04l-18.2-18.19-18.19,18.19,18.19,18.2,18.2-18.2h0ZM90.98,43.68l-7.28-7.28-7.28,7.28-3.64-3.64,10.92-10.91,10.92,10.91-3.64,3.64h0ZM131,90.98h0l-3.64-3.64-3.64,3.64-3.64,3.64-7.28-7.28h0s-3.64-3.64-3.64-3.64l3.64-3.64h0l10.92-10.92,3.64-3.64,14.56,14.55,3.64,3.64h0,0l-3.64,3.64-7.28,7.28-3.64-3.64h0ZM163.75,58.23l-3.64,3.64,3.64,3.64,3.64-3.64-3.64-3.64h0ZM90.97,65.5l3.64-3.64-3.64-3.64-3.64,3.64,3.64,3.64h0ZM123.73,25.47l3.64,3.64,3.64-3.64-3.64-3.64-3.64,3.64h0ZM131,98.25l-3.64-3.64-3.64,3.64,3.64,3.64,3.64-3.64h0ZM152.83,54.59l-3.64-3.64-10.92,10.92,10.92,10.92,3.64-3.64-3.64-3.64-3.64-3.64,3.64-3.64,3.64-3.64h0ZM145.56,47.31h0s3.64-3.64,3.64-3.64l3.64,3.64,7.28,7.28-3.64,3.64-3.64,3.64,7.28,7.28-7.28,7.28h0s-3.64,3.64-3.64,3.64l-3.64-3.64-14.56-14.55,14.56-14.56h0ZM101.89,69.14l3.64,3.64,10.92-10.92-10.92-10.92-3.64,3.64,3.64,3.64,3.64,3.64-3.64,3.64-3.64,3.64h0ZM101.89,76.42l-7.28-7.28,7.28-7.28-7.28-7.28,7.28-7.28,3.64-3.64,3.64,3.64h0s10.92,10.92,10.92,10.92l3.64,3.64-14.56,14.55-3.64,3.64-3.64-3.64h0ZM123.73,32.75h0l3.64,3.64,3.64-3.64h0s3.64-3.64,3.64-3.64l7.28,7.28,3.64,3.64-3.64,3.64-14.56,14.56-14.56-14.56-3.64-3.64,3.64-3.64h0s7.28-7.28,7.28-7.28l3.64,3.64h0ZM120.09,36.39l-3.64,3.64,10.92,10.92,10.92-10.92-3.64-3.64-3.64,3.64-3.64,3.64h0l-3.63-3.64-3.64-3.64h0ZM145.56,40.03h0,0ZM134.64,87.34l3.64-3.64-10.92-10.92-10.92,10.92,3.64,3.64,3.64-3.64,3.63-3.64h0l3.64,3.64,3.64,3.64h0ZM76.42,58.23l-3.64,3.64,3.64,3.64,3.64-3.64-3.64-3.64h0ZM3.64,65.5l3.64-3.64-3.64-3.64-3.64,3.64,3.64,3.64h0ZM36.39,25.47l3.64,3.64,3.64-3.64-3.64-3.64-3.64,3.64h0ZM43.67,98.25l-3.64-3.64-3.64,3.64,3.64,3.64,3.64-3.64h0ZM65.5,54.59l-3.64-3.64-10.92,10.92,10.92,10.92,3.64-3.64-3.64-3.64-3.64-3.64,3.64-3.64,3.64-3.64h0ZM58.22,47.31h0s3.64-3.64,3.64-3.64l3.64,3.64,7.28,7.28-3.64,3.64-3.64,3.64,7.28,7.28-7.28,7.28h0s-3.64,3.64-3.64,3.64l-3.64-3.64-14.56-14.55,14.56-14.56h0ZM14.56,69.14l3.64,3.64,10.92-10.92-10.92-10.92-3.64,3.64,3.64,3.64,3.64,3.64-3.64,3.64-3.64,3.64h0ZM14.55,76.42l-7.28-7.28,7.28-7.28-7.28-7.28,7.28-7.28,3.64-3.64,3.64,3.64h0s10.92,10.92,10.92,10.92l3.64,3.64-14.56,14.55-3.64,3.64-3.64-3.64h0ZM36.39,32.75h0l3.64,3.64,3.64-3.64h0s3.64-3.64,3.64-3.64l7.28,7.28,3.64,3.64-3.64,3.64-14.56,14.56-14.56-14.56-3.64-3.64,3.64-3.64h0s7.28-7.28,7.28-7.28l3.64,3.64h0ZM32.75,36.39l-3.64,3.64,10.92,10.92,10.92-10.92-3.64-3.64-3.64,3.64-3.64,3.64h0l-3.64-3.64-3.64-3.64h0ZM58.22,40.03h0,0ZM47.31,87.34l3.64-3.64-10.92-10.92-10.92,10.92,3.64,3.64,3.64-3.64,3.64-3.64h0l3.64,3.64,3.64,3.64h0Z"/>
</svg>