<svg viewBox="0 0 123.73 123.73"> 
  <path d="M61.86,72.78l-3.64,3.64,3.64,3.64,3.64-3.64-3.64-3.64h0ZM61.86,50.95l-3.64-3.64,3.64-3.64,3.64,3.64-3.64,3.64h0ZM3.64,43.67l3.64-3.64-3.64-3.64-3.64,3.64,3.64,3.64h0ZM14.56,47.31l3.64,3.64,10.92-10.92-10.92-10.92-3.64,3.64,7.28,7.28-7.28,7.28h0ZM7.28,47.31l7.28-7.28-7.28-7.28c3.64-3.64,7.28-7.28,10.92-10.92l18.2,18.2-18.19,18.19-10.92-10.92h0ZM120.09,43.67l-3.64-3.64,3.64-3.64,3.64,3.64-3.64,3.64h0ZM109.17,47.31l-3.64,3.64-10.92-10.92,10.92-10.92,3.64,3.64-7.28,7.28,3.64,3.64,3.64,3.64h0ZM116.45,47.31l-7.28-7.28,7.28-7.28c-3.64-3.64-7.28-7.28-10.92-10.92l-18.2,18.2,18.19,18.19,10.92-10.92h0ZM80.06,3.64l3.64,3.64,3.64-3.64-3.64-3.64-3.64,3.64h0ZM76.42,14.56l-3.64,3.64,10.92,10.92,10.92-10.92-3.64-3.64-7.28,7.28-7.28-7.28h0ZM76.42,7.28l7.28,7.28,7.28-7.28,10.92,10.92-18.2,18.2-18.2-18.2c3.64-3.64,7.28-7.28,10.92-10.92h0ZM43.67,3.64l-3.64,3.64-3.64-3.64,3.64-3.64,3.64,3.64h0ZM47.31,14.56l3.64,3.64-10.92,10.92-10.92-10.92,3.64-3.64,7.28,7.28,7.28-7.28h0ZM47.31,7.28l-7.28,7.28-7.28-7.28-10.92,10.92,18.2,18.2,18.2-18.2c-3.64-3.64-7.28-7.28-10.92-10.92h0ZM80.06,40.03l-18.19-18.2-18.2,18.2,18.2,18.2,18.19-18.2h0ZM69.14,43.67l-7.28-7.28-7.28,7.28-3.64-3.64,10.92-10.92,10.92,10.92-3.64,3.64h0ZM3.64,80.06l3.64,3.64-3.64,3.64-3.64-3.64,3.64-3.64h0ZM14.56,76.42l3.64-3.64,10.92,10.92-10.92,10.92-3.64-3.64,7.28-7.28-7.28-7.28h0ZM7.28,76.42l7.28,7.28-7.28,7.28,10.92,10.92,18.2-18.2-3.64-3.64-14.56-14.56-10.92,10.92h0ZM50.95,61.86l-3.64,3.64-3.64-3.64,3.64-3.64,3.64,3.64h0ZM40.03,43.67l-18.2,18.19,18.2,18.2,18.2-18.2-18.2-18.19h0ZM43.67,54.58l-7.28,7.28,7.28,7.28-3.64,3.64-10.92-10.92,10.92-10.92,3.64,3.64h0ZM120.09,80.06l-3.64,3.64,3.64,3.64,3.64-3.64-3.64-3.64h0ZM109.17,76.42l-3.64-3.64-10.92,10.92,10.92,10.92,3.64-3.64-7.28-7.28,7.28-7.28h0ZM116.45,76.42l-7.28,7.28,7.28,7.28c-3.64,3.64-7.28,7.28-10.92,10.92l-18.2-18.2,18.19-18.19,10.92,10.92h0ZM72.78,61.86l3.64,3.64,3.64-3.64-3.64-3.64-3.64,3.64h0ZM83.7,43.67l18.2,18.19-18.2,18.2-18.2-18.2,18.2-18.19h0ZM80.06,54.58l7.28,7.28-7.28,7.28,3.64,3.64,10.92-10.92-10.92-10.92-3.64,3.64h0ZM80.06,120.09l3.64-3.64,3.64,3.64-3.64,3.64-3.64-3.64h0ZM76.42,109.17l-3.64-3.64,10.92-10.92,10.92,10.92-3.64,3.64-7.28-7.28-7.28,7.28h0ZM76.42,116.45l7.28-7.28,7.28,7.28,10.92-10.92-18.2-18.2-18.2,18.2,10.92,10.92h0ZM43.67,120.09l-3.64-3.64-3.64,3.64,3.64,3.64,3.64-3.64h0ZM47.31,109.17l3.64-3.64-10.92-10.92-10.92,10.92,3.64,3.64,7.28-7.28,7.28,7.28h0ZM47.31,116.45l-7.28-7.28-7.28,7.28-10.92-10.92,18.2-18.2,18.2,18.2c-3.64,3.64-7.28,7.28-10.92,10.92h0ZM80.06,83.7l-18.19,18.2-18.2-18.2,18.2-18.2,18.19,18.2h0ZM69.14,80.06l-7.28,7.28-7.28-7.28-3.64,3.64,10.92,10.92,10.92-10.92-3.64-3.64h0Z"/>
</svg>