<svg viewBox="0 0 123.73 123.73">  
  <path d="M61.86,72.78l-3.64,3.64,3.64,3.64,3.64-3.64-3.64-3.64h0ZM0,98.25l3.64,3.64L0,105.53l3.64,3.64,3.64-3.64,3.64-3.64-3.64-3.64-3.64-3.64L0,98.25H0ZM98.25,123.73l3.64-3.64,3.64,3.64,3.64-3.64-3.64-3.64-3.64-3.64-3.64,3.64-3.64,3.64,3.64,3.64h0ZM123.72,25.47l-3.64-3.64,3.64-3.64-3.64-3.64-3.64,3.64-3.64,3.64,3.64,3.64,3.64,3.64,3.64-3.64h0ZM25.47,0l-3.64,3.64L18.2,0l-3.64,3.64,3.64,3.64,3.64,3.64,3.64-3.64,3.64-3.64L25.47,0h0ZM29.11,120.09l-3.64-3.64-3.64,3.64,3.64-3.64-3.64-3.64-3.64,3.64-3.64,3.64,3.64,3.64,3.64-3.64,3.64,3.64,3.64-3.64h0ZM120.09,94.61l-3.64,3.64-3.64,3.64,3.64,3.64,3.64,3.64,3.64-3.64-3.64-3.64,3.64-3.64-3.64-3.64h0ZM94.61,3.64l3.64,3.64,3.64,3.64,3.64-3.64,3.64-3.64L105.53,0l-3.64,3.64L98.25,0l-3.64,3.64h0ZM3.64,29.11l3.64-3.64,3.64-3.64-3.64-3.64-3.64-3.64L0,18.19l3.64,3.64L0,25.47l3.64,3.64h0ZM14.56,112.81l3.64-3.64-3.64-3.64-3.64,3.64-3.64,3.64,3.64,3.64,3.64-3.64h0ZM112.81,109.17l-3.64-3.64-3.64,3.64,3.64,3.64,3.64,3.64,3.64-3.64-3.64-3.64h0ZM109.17,10.92l-3.64,3.64,3.64,3.64,3.64-3.64,3.64-3.64-3.64-3.64-3.64,3.64h0ZM10.92,14.55l3.64,3.64,3.64-3.64-3.64-3.64-3.64-3.64-3.64,3.64,3.64,3.64h0ZM0,120.09l3.64-3.64,3.64,3.64-3.64,3.64L0,120.09H0ZM120.09,123.73l-3.64-3.64,3.64-3.64,3.64,3.64-3.64,3.64h0ZM123.72,3.64l-3.64,3.64-3.64-3.64L120.09,0l3.64,3.64h0ZM3.64,0l3.64,3.64-3.64,3.64L0,3.64,3.64,0h0ZM69.14,123.73l-3.64-3.64,3.64-3.64,3.64,3.64-3.64,3.64h0ZM54.58,123.73l3.64-3.64-3.64-3.64-3.64,3.64,3.64,3.64h0ZM69.14,0l-3.64,3.64,3.64,3.64,3.64-3.64L69.14,0h0ZM54.58,0l3.64,3.64-3.64,3.64-3.64-3.64L54.58,0h0ZM123.72,69.14l-3.64-3.64-3.64,3.64,3.64,3.64,3.64-3.64h0ZM123.72,54.58l-3.64,3.64-3.64-3.64,3.64-3.64,3.64,3.64h0ZM0,69.14l3.64-3.64,3.64,3.64-3.64,3.64L0,69.14H0ZM0,54.58l3.64,3.64,3.64-3.64-3.64-3.64L0,54.58H0ZM109.17,61.86l3.64,3.64,3.64-3.64-3.64-3.64-3.64,3.64h0ZM7.28,61.86l3.64,3.64,3.64-3.64-3.64-3.64-3.64,3.64h0ZM58.22,112.81l3.64,3.64,3.64-3.64-3.64-3.64-3.64,3.64h0ZM58.22,10.92l3.64,3.64,3.64-3.64-3.64-3.64-3.64,3.64h0ZM3.64,43.67l3.64-3.64-3.64-3.64L0,40.03l3.64,3.64h0ZM10.92,43.67h0s3.64-3.64,3.64-3.64l-3.64-3.64h0s-3.64-3.64-3.64-3.64l3.64-3.64,7.28-7.27,14.56,14.55,3.64,3.64-14.56,14.56-3.64,3.64-3.64-3.64-3.64-3.64-3.64-3.64,3.64-3.64h0ZM14.56,47.31l3.64,3.64,10.92-10.92-10.92-10.92-3.64,3.64,3.64,3.64,3.64,3.64h0s-3.64,3.64-3.64,3.64l-3.64,3.64h0ZM18.2,58.22h0s0,0,0,0h0ZM3.64,80.06l3.64,3.64-3.64,3.64L0,83.7l3.64-3.64h0ZM10.92,80.06h0s3.64,3.64,3.64,3.64l-3.64,3.64h0s-3.64,3.64-3.64,3.64l3.64,3.64,7.28,7.28,3.64-3.64,10.92-10.92,3.64-3.64-18.2-18.19-10.92,10.92,3.64,3.64h0ZM14.56,76.42l3.64-3.64,10.92,10.92-10.92,10.92-3.64-3.64,3.64-3.64,3.64-3.64-7.28-7.27h0ZM50.95,61.86l-3.64,3.64-3.64-3.64,3.64-3.64,3.64,3.64h0ZM40.03,43.67l-18.2,18.19,18.2,18.2,18.19-18.2-18.19-18.19h0ZM43.67,54.59l-7.27,7.27,7.27,7.28-3.64,3.64-10.92-10.92,10.92-10.92,3.64,3.64h0ZM120.09,43.67l-3.64-3.64,3.64-3.64,3.64,3.64-3.64,3.64h0ZM109.17,47.31l-3.64,3.64-10.92-10.92,10.92-10.92,3.64,3.64-3.64,3.64-3.64,3.64h0s3.64,3.64,3.64,3.64l3.64,3.64h0ZM101.89,54.59h0s2.43,2.43,2.43,2.43l1.21,1.21h0s3.64-3.64,3.64-3.64l7.28-7.28-7.28-7.28,3.64-3.64,3.64-3.64-10.92-10.91-3.64,3.64h0s-10.92,10.92-10.92,10.92h0s-3.64,3.64-3.64,3.64l3.64,3.64,10.92,10.92h0ZM120.09,80.06l-3.64,3.64,3.64,3.64,3.64-3.64-3.64-3.64h0ZM109.17,76.42l-3.64-3.64-10.92,10.92,10.92,10.92,3.64-3.64-7.28-7.28,7.28-7.27h0ZM101.89,69.14h0l3.64-3.64,10.92,10.92-3.64,3.64-3.64,3.64,3.64,3.64h0s3.64,3.64,3.64,3.64l-10.92,10.91-3.64-3.64h0s-10.92-10.92-10.92-10.92l-3.64-3.64,14.55-14.55h0ZM72.78,61.86l3.64,3.64,3.64-3.64-3.64-3.64-3.64,3.64h0ZM83.7,43.67l18.19,18.19-18.19,18.2-18.19-18.2,18.19-18.19h0ZM80.06,54.59l7.28,7.27-7.28,7.28,3.64,3.64,10.92-10.92-10.92-10.92-3.64,3.64h0ZM80.06,3.64l3.64,3.64,3.64-3.64L83.7,0l-3.64,3.64h0ZM76.42,14.56l-3.64,3.64,10.92,10.91,10.91-10.91-3.64-3.64-3.64,3.64h0s-3.64,3.64-3.64,3.64l-7.28-7.28h0ZM69.14,14.55l3.64-3.63h0s3.64-3.64,3.64-3.64l3.64,3.64,3.64,3.64,7.28-7.28,3.64,3.64,3.63,3.64h0s3.64,3.64,3.64,3.64l-3.64,3.64h0s-10.91,10.91-10.91,10.91l-3.64,3.64-14.55-14.55-3.64-3.64,3.64-3.64h0ZM43.67,3.64l-3.64,3.64-3.64-3.64L40.03,0l3.64,3.64h0ZM47.31,14.56l3.64,3.64-10.92,10.91-10.91-10.91,3.64-3.64,3.64,3.64,3.64,3.64,7.28-7.28h0ZM54.58,14.55l-3.64-3.63h0s-3.64-3.64-3.64-3.64l-3.64,3.64-3.64,3.64-3.64-3.64-3.64-3.64-3.64,3.64-3.64,3.64-3.64,3.64,3.64,3.64,14.56,14.55,14.55-14.55,3.64-3.64-3.64-3.64h0ZM61.86,50.95l-3.64-3.64,3.64-3.64,3.64,3.64-3.64,3.64h0ZM80.06,40.03l-18.19-18.19-18.2,18.19,18.2,18.19,18.19-18.19h0ZM69.14,43.67l-7.28-7.28-7.28,7.28-3.64-3.64,10.92-10.92,10.91,10.92-3.64,3.64h0ZM80.06,120.09l3.64-3.64,3.64,3.64-3.64,3.64-3.64-3.64h0ZM76.42,109.17l-3.64-3.64,10.92-10.91,10.91,10.91-3.64,3.64-3.64-3.64h0l-3.64-3.64-7.28,7.28h0ZM69.14,109.17l3.64,3.64h0l3.64,3.64,7.28-7.28,7.28,7.28,3.64-3.64,3.64-3.64,3.64-3.64-3.64-3.64-10.91-10.91-3.64-3.64-18.19,18.2,3.64,3.64h0ZM43.67,120.09l-3.64-3.64-3.64,3.64,3.64,3.64,3.64-3.64h0ZM47.31,109.17l3.64-3.64-10.92-10.91-10.91,10.91,3.64,3.64,7.28-7.28,7.28,7.28h0ZM54.58,109.17l-3.64,3.64-3.64,3.64-7.28-7.28-3.64,3.64-3.64,3.64-3.64-3.64-3.64-3.64-3.64-3.64,3.64-3.64,14.56-14.56,18.19,18.2-3.64,3.64h0ZM80.06,83.69l-18.19,18.2-18.2-18.2,18.2-18.19,18.19,18.19h0ZM69.14,80.06l-7.28,7.27-7.28-7.27-3.64,3.64,10.92,10.92,10.91-10.92-3.64-3.64h0Z"/>
</svg>