<svg viewBox="0 0 211.02 118.36">  
  <path d="M5.15,25.73H0v-5.15h5.15v5.15h0ZM118.37,108.07h-10.29v-5.15h5.15v-5.15h5.15c0,3.43,0,6.86,0,10.29h0ZM92.64,108.07h10.29v-5.15h-5.15v-5.15h-5.15c0,3.43,0,6.86,0,10.29h0ZM118.37,118.36h-5.15v-5.15h5.15v5.15h0ZM108.08,118.36h-5.15v-5.15h5.15v5.15h0ZM97.79,118.36h-5.15v-5.15h5.15v5.15h0ZM108.08,61.75v5.15h-5.15v-5.15h5.15ZM108.08,72.04v5.15h-5.15v-5.15h5.15ZM159.55,102.92v5.15h-5.15v-5.15h5.15ZM159.55,113.21v5.15h-5.15v-5.15h5.15ZM169.85,66.9h-5.15v-5.15h5.15v5.15h0ZM159.55,66.9h-5.15v-5.15h5.15v5.15h0ZM149.26,66.9h-5.15v-5.15h5.15v5.15h0ZM169.85,72.04h-10.29v5.15h5.15v5.15h5.15c0-3.43,0-6.86,0-10.29h0ZM144.12,72.04h10.29v5.15h-5.15v5.15h-5.15c0-3.43,0-6.86,0-10.29h0ZM169.84,97.77h-10.29v-5.15h5.15s0-5.14,0-5.14h5.15s0,5.14,0,5.14h0v5.15h0ZM174.99,102.92c0-3.44,0-6.86,0-10.3h15.44v25.73h-25.73c0-5.15,0-10.29,0-15.44,3.44,0,6.86,0,10.3,0h0ZM169.85,108.07v5.15s15.44,0,15.44,0v-15.44h-5.15s0,10.29,0,10.29h-10.29ZM205.87,92.63h5.15v5.15h-5.15v-5.15h0ZM195.58,82.34h10.29v5.15h-5.15s0,5.14,0,5.14h-5.15s0-5.14,0-5.14h0v-5.15h0ZM190.43,77.19c0,3.44,0,6.86,0,10.3h-15.44v-25.73h25.73c0,5.15,0,10.29,0,15.44-3.44,0-6.86,0-10.3,0h0ZM195.58,72.04v-5.15s-15.44,0-15.44,0v15.44h5.15s0-10.29,0-10.29h10.29ZM154.4,87.48h5.15v-5.15h-5.15v5.15h0ZM144.12,97.77h10.29v-5.15h-5.15s0-5.14,0-5.14h-5.15s0,5.14,0,5.14h0v5.15h0ZM138.96,102.92c0-3.44,0-6.86,0-10.3h-15.44v25.73h25.73c0-5.15,0-10.29,0-15.44-3.44,0-6.86,0-10.3,0h0ZM144.11,108.07v5.15s-15.44,0-15.44,0v-15.44h5.15s0,10.29,0,10.29h10.29ZM118.37,82.34h-10.29v5.15h5.15s0,5.14,0,5.14h5.15s0-5.14,0-5.14h0v-5.15h0ZM123.53,77.19c0,3.44,0,6.86,0,10.3h15.44v-25.73h-25.73c0,5.15,0,10.29,0,15.44,3.44,0,6.86,0,10.3,0h0ZM118.38,72.04v-5.15s15.44,0,15.44,0v15.44h-5.15s0-10.29,0-10.29h-10.29ZM56.61,102.92v5.15h-5.15v-5.15h5.15ZM56.61,113.21v5.15h-5.15v-5.15h5.15ZM66.91,66.9h-5.15v-5.15h5.15v5.15h0ZM56.62,66.9h-5.15v-5.15h5.15v5.15h0ZM46.33,66.9h-5.15v-5.15h5.15v5.15h0ZM66.92,72.04h-10.29v5.15h5.15v5.15h5.15c0-3.43,0-6.86,0-10.29h0ZM41.18,72.04h10.29v5.15h-5.15v5.15h-5.15c0-3.43,0-6.86,0-10.29h0ZM66.9,97.77h-10.29v-5.15h5.15s0-5.14,0-5.14h5.15s0,5.14,0,5.14h0v5.15h0ZM72.06,102.92c0-3.44,0-6.86,0-10.3h15.44v25.73h-25.73c0-5.15,0-10.29,0-15.44,3.44,0,6.86,0,10.3,0h0ZM66.91,108.07v5.15s15.44,0,15.44,0v-15.44h-5.15s0,10.29,0,10.29h-10.29ZM102.94,92.63h5.15v5.15h-5.15v-5.15h0ZM92.65,82.34h10.29v5.15h-5.15s0,5.14,0,5.14h-5.15s0-5.14,0-5.14h0v-5.15h0ZM87.49,77.19c0,3.44,0,6.86,0,10.3h-15.44v-25.73h25.73c0,5.15,0,10.29,0,15.44-3.44,0-6.86,0-10.3,0h0ZM92.64,72.04v-5.15s-15.44,0-15.44,0v15.44h5.15s0-10.29,0-10.29h10.29ZM51.47,87.48h5.15v-5.15h-5.15v5.15h0ZM41.18,97.77h10.29v-5.15h-5.15s0-5.14,0-5.14h-5.15s0,5.14,0,5.14h0v5.15h0ZM36.02,102.92c0-3.44,0-6.86,0-10.3h-15.44v25.73h25.73c0-5.15,0-10.29,0-15.44-3.44,0-6.86,0-10.3,0h0ZM41.17,108.07v5.15s-15.44,0-15.44,0v-15.44h5.15s0,10.29,0,10.29h10.29ZM5.15,92.63H0v5.15h5.15v-5.15h0ZM15.44,82.34H5.14v5.15h5.15s0,5.14,0,5.14h5.15s0-5.14,0-5.14h0v-5.15h0ZM20.59,77.19c0,3.44,0,6.86,0,10.3h15.44v-25.73H10.3c0,5.15,0,10.29,0,15.44,3.44,0,6.86,0,10.3,0h0ZM15.44,72.04v-5.15s15.44,0,15.44,0v15.44h-5.15s0-10.29,0-10.29h-10.29ZM118.37,10.29h-10.29v5.15h5.15v5.15h5.15c0-3.43,0-6.86,0-10.29h0ZM92.64,10.29h10.29v5.15h-5.15v5.15h-5.15c0-3.43,0-6.86,0-10.29h0ZM118.37,0h-5.15v5.15h5.15V0h0ZM108.08,0h-5.15v5.15h5.15V0h0ZM97.79,0h-5.15v5.15h5.15V0h0ZM108.08,56.61v-5.15h-5.15v5.15h5.15ZM108.08,46.31v-5.15h-5.15v5.15h5.15ZM159.55,15.44v-5.15h-5.15v5.15h5.15ZM159.55,5.15V0h-5.15v5.15h5.15ZM169.85,51.46h-5.15v5.15h5.15v-5.15h0ZM159.55,51.46h-5.15v5.15h5.15v-5.15h0ZM149.26,51.46h-5.15v5.15h5.15v-5.15h0ZM169.85,46.31h-10.29v-5.15h5.15v-5.15h5.15c0,3.43,0,6.86,0,10.29h0ZM144.12,46.31h10.29v-5.15h-5.15v-5.15h-5.15c0,3.43,0,6.86,0,10.29h0ZM169.84,20.58h-10.29v5.15h5.15s0,5.14,0,5.14h5.15s0-5.14,0-5.14h0v-5.15h0ZM174.99,15.44c0,3.44,0,6.86,0,10.3h15.44V0h-25.73c0,5.15,0,10.29,0,15.44,3.44,0,6.86,0,10.3,0h0ZM169.85,10.29v-5.15s15.44,0,15.44,0v15.44h-5.15s0-10.29,0-10.29h-10.29ZM205.87,25.73h5.15v-5.15h-5.15v5.15h0ZM195.58,36.02h10.29v-5.15h-5.15s0-5.14,0-5.14h-5.15s0,5.14,0,5.14h0v5.15h0ZM190.43,41.17c0-3.44,0-6.86,0-10.3h-15.44v25.73h25.73c0-5.15,0-10.29,0-15.44-3.44,0-6.86,0-10.3,0h0ZM195.58,46.31v5.15s-15.44,0-15.44,0v-15.44h5.15s0,10.29,0,10.29h10.29ZM154.4,30.88h5.15v5.15h-5.15v-5.15h0ZM144.12,20.58h10.29v5.15h-5.15s0,5.14,0,5.14h-5.15s0-5.14,0-5.14h0v-5.15h0ZM138.96,15.44c0,3.44,0,6.86,0,10.3h-15.44V0h25.73c0,5.15,0,10.29,0,15.44-3.44,0-6.86,0-10.3,0h0ZM144.11,10.29v-5.15s-15.44,0-15.44,0v15.44h5.15s0-10.29,0-10.29h10.29ZM118.37,36.02h-10.29v-5.15h5.15s0-5.14,0-5.14h5.15s0,5.14,0,5.14h0v5.15h0ZM123.53,41.17c0-3.44,0-6.86,0-10.3h15.44v25.73h-25.73c0-5.15,0-10.29,0-15.44,3.44,0,6.86,0,10.3,0h0ZM118.38,46.31v5.15s15.44,0,15.44,0v-15.44h-5.15s0,10.29,0,10.29h-10.29ZM56.61,15.44v-5.15h-5.15v5.15h5.15ZM56.61,5.15V0h-5.15v5.15h5.15ZM66.91,51.46h-5.15v5.15h5.15v-5.15h0ZM56.62,51.46h-5.15v5.15h5.15v-5.15h0ZM46.33,51.46h-5.15v5.15h5.15v-5.15h0ZM66.92,46.31h-10.29v-5.15h5.15v-5.15h5.15c0,3.43,0,6.86,0,10.29h0ZM41.18,46.31h10.29v-5.15h-5.15v-5.15h-5.15c0,3.43,0,6.86,0,10.29h0ZM66.9,20.58h-10.29v5.15h5.15s0,5.14,0,5.14h5.15s0-5.14,0-5.14h0v-5.15h0ZM72.06,15.44c0,3.44,0,6.86,0,10.3h15.44V0h-25.73c0,5.15,0,10.29,0,15.44,3.44,0,6.86,0,10.3,0h0ZM66.91,10.29v-5.15s15.44,0,15.44,0v15.44h-5.15s0-10.29,0-10.29h-10.29ZM102.94,25.73h5.15v-5.15h-5.15v5.15h0ZM92.65,36.02h10.29v-5.15h-5.15s0-5.14,0-5.14h-5.15s0,5.14,0,5.14h0v5.15h0ZM87.49,41.17c0-3.44,0-6.86,0-10.3h-15.44v25.73h25.73c0-5.15,0-10.29,0-15.44-3.44,0-6.86,0-10.3,0h0ZM92.64,46.31v5.15s-15.44,0-15.44,0v-15.44h5.15s0,10.29,0,10.29h10.29ZM51.47,30.88h5.15v5.15h-5.15v-5.15h0ZM41.18,20.58h10.29v5.15h-5.15s0,5.14,0,5.14h-5.15s0-5.14,0-5.14h0v-5.15h0ZM36.02,15.44c0,3.44,0,6.86,0,10.3h-15.44V0h25.73c0,5.15,0,10.29,0,15.44-3.44,0-6.86,0-10.3,0h0ZM41.17,10.29v-5.15s-15.44,0-15.44,0v15.44h5.15s0-10.29,0-10.29h10.29ZM15.44,36.02H5.14v-5.15h5.15s0-5.14,0-5.14h5.15s0,5.14,0,5.14h0v5.15h0ZM20.59,41.17c0-3.44,0-6.86,0-10.3h15.44v25.73H10.3c0-5.15,0-10.29,0-15.44,3.44,0,6.86,0,10.3,0h0ZM15.44,46.31v5.15s15.44,0,15.44,0v-15.44h-5.15s0,10.29,0,10.29h-10.29Z"/>
</svg>