<svg viewBox="0 0 953.42 123.72">  
  <path d="M567.68,90.97h0l-3.64-3.64-3.64,3.64-3.64,3.64-7.28-7.28h0s-3.64-3.64-3.64-3.64l3.64-3.64h0l10.92-10.92,3.64-3.64,14.56,14.55,3.64,3.64h0,0l-3.64,3.64-7.28,7.28-3.64-3.64h0ZM10.92,58.22h0s3.64,3.64,3.64,3.64l-3.64,3.64-3.64,3.64,7.28,7.28h0l3.64,3.64,3.64-3.64h0s10.92-10.92,10.92-10.92l3.64-3.64-14.55-14.56-3.64-3.64h0s0,0,0,0l-3.64,3.64-7.28,7.28,3.64,3.64h0ZM43.67,25.47l-3.64,3.64-3.64-3.64,3.64-3.64,3.64,3.64h0ZM36.39,98.25l3.64-3.64,3.64,3.64-3.64,3.64-3.64-3.64h0ZM76.42,65.5l-3.64-3.64,3.64-3.64,3.64,3.64-3.64,3.64h0ZM3.64,58.22l3.64,3.64-3.64,3.64-3.64-3.64,3.64-3.64h0ZM47.31,36.39l3.64,3.64-10.92,10.92-10.92-10.92,3.64-3.64,3.64,3.64,3.64,3.64,3.64-3.64,3.64-3.64h0ZM54.58,43.67h0l3.64-3.64-3.64-3.64-7.28-7.28-3.64,3.64-3.64,3.64-7.28-7.28-7.28,7.28h0l-3.64,3.64,3.64,3.64,14.55,14.56,14.56-14.56h0ZM32.75,87.33l-3.64-3.64,10.92-10.92,10.92,10.92-3.64,3.64-3.64-3.64-3.64-3.64-3.64,3.64-3.64,3.64h0ZM25.47,87.33l7.28,7.28,7.28-7.28,7.28,7.28,7.28-7.28,3.64-3.64-3.64-3.64h0l-10.92-10.92-3.64-3.64-14.55,14.56-3.64,3.64,3.64,3.64h0ZM69.14,65.5h0s-3.64-3.64-3.64-3.64l3.64-3.64h0s3.64-3.64,3.64-3.64l-7.28-7.28-3.64-3.64-3.64,3.64-14.56,14.56,14.56,14.56,3.64,3.64,3.64-3.64h0s7.28-7.28,7.28-7.28l-3.64-3.64h0ZM65.5,69.14l-3.64,3.64-10.92-10.92,10.92-10.92,3.64,3.64-3.64,3.64-3.64,3.64h0s3.64,3.64,3.64,3.64l3.64,3.64h0ZM61.86,43.67h0s0,0,0,0h0ZM14.56,54.58l3.64-3.64,10.92,10.92-10.92,10.92-3.64-3.64,3.64-3.64,3.64-3.63h0s-3.64-3.64-3.64-3.64l-3.64-3.64h0ZM123.73,90.97h0l3.64-3.64,3.64,3.64,3.64,3.64,7.28-7.28h0s3.64-3.64,3.64-3.64l-3.64-3.64h0l-10.92-10.92-3.64-3.64-14.56,14.55-3.64,3.64h0,0l3.64,3.64,7.28,7.28,3.64-3.64h0ZM65.5,120.08l-3.64-3.64-3.64,3.64,3.64,3.64,3.64-3.64h0ZM65.5,105.53l-3.64-3.64h0l-3.64,3.64-3.64,3.64-3.64-3.64,10.92-10.92,10.92,10.92-3.64,3.64-3.64-3.64h0ZM58.22,112.8l3.64-3.64,3.64,3.64,3.64,3.64,10.92-10.91-3.64-3.64h0s-10.92-10.92-10.92-10.92h0l-3.64-3.63-3.64,3.63h0s-10.92,10.92-10.92,10.92h0s-3.64,3.64-3.64,3.64l3.64,3.64,3.64,3.64,3.64,3.64,3.64-3.64h0ZM145.56,120.08l3.64-3.64,3.64,3.64-3.64,3.64-3.64-3.64h0ZM149.2,101.89l7.28,7.28,3.64-3.64-10.91-10.92-10.92,10.92,3.64,3.64,7.28-7.28h0ZM152.83,112.81l-3.64-3.64-3.64,3.64-3.64,3.64-3.64-3.64-3.64-3.64-3.64-3.64,3.64-3.64h0s10.92-10.91,10.92-10.91h0s3.64-3.64,3.64-3.64l3.64,3.63,10.92,10.92,3.64,3.64-10.92,10.91-3.64-3.64h0ZM189.23,120.08l3.64-3.64,3.64,3.64-3.64,3.64-3.64-3.64h0ZM192.87,101.89l7.28,7.28,3.64-3.64-10.92-10.92-10.92,10.92,3.64,3.64,7.28-7.28h0ZM196.5,112.81l-3.64-3.64-3.64,3.64-3.64,3.64-3.64-3.64-3.64-3.64-3.64-3.64,3.64-3.64h0s10.92-10.91,10.92-10.91h0s3.64-3.64,3.64-3.64l3.64,3.63,10.92,10.92h0s3.64,3.64,3.64,3.64l-7.28,7.28-3.64,3.64-3.64-3.64h0ZM171.03,72.78l3.64,3.64-3.64,3.64-3.64-3.64,3.64-3.64h0ZM152.83,83.69l18.2,18.2,18.19-18.2-18.19-18.19-18.2,18.19h0ZM163.75,80.05l7.28,7.28,7.28-7.28,3.64,3.63-10.91,10.92-10.92-10.92,3.64-3.63h0ZM101.89,120.08l3.64-3.64,3.64,3.64-3.64,3.64-3.64-3.64h0ZM101.89,105.53l3.64-3.64h0l3.64,3.64,3.64,3.64,3.64-3.64-10.92-10.92-10.92,10.92,3.64,3.64,3.64-3.64h0ZM109.17,112.8l-3.64-3.64-3.64,3.64-3.64,3.64-10.92-10.91,3.64-3.64h0s10.92-10.92,10.92-10.92l3.64-3.63,3.64,3.63h0s10.92,10.92,10.92,10.92h0s3.64,3.64,3.64,3.64l-3.64,3.64-3.64,3.64-3.64,3.64-3.64-3.64h0ZM83.69,72.78l3.64,3.64-3.64,3.64-3.64-3.64,3.64-3.64h0ZM65.5,83.69l18.19,18.2,18.19-18.2-18.19-18.19-18.19,18.19h0ZM76.42,80.05l7.28,7.28,7.28-7.28,3.64,3.63-10.92,10.92-10.92-10.92,3.64-3.63h0ZM90.97,58.22l3.64,3.64-3.64,3.64-3.64-3.64,3.64-3.64h0ZM163.75,65.5l-3.64-3.64,3.64-3.64,3.64,3.64-3.64,3.64h0ZM131,25.47l-3.64,3.64-3.64-3.64,3.64-3.64,3.64,3.64h0ZM123.72,98.25l3.64-3.64,3.64,3.64-3.64,3.64-3.64-3.64h0ZM101.89,54.58l3.64-3.64,10.92,10.92-10.92,10.92-3.64-3.64,3.64-3.64,3.64-3.64-3.64-3.64-3.64-3.64h0ZM109.17,47.31h0s-3.64-3.64-3.64-3.64l-3.64,3.64-7.28,7.28,3.64,3.64,3.64,3.64-7.28,7.28,7.28,7.28h0s3.64,3.64,3.64,3.64l3.64-3.64,14.56-14.55-14.56-14.56h0ZM152.83,69.14l-3.64,3.64-10.92-10.92,10.92-10.92,3.64,3.64-3.64,3.64-3.64,3.64,3.64,3.64,3.64,3.64h0ZM152.84,76.41l7.28-7.28-7.28-7.28,7.28-7.28-7.28-7.28-3.64-3.64-3.64,3.64h0s-10.92,10.92-10.92,10.92l-3.64,3.64,14.56,14.55,3.64,3.64,3.64-3.64h0ZM131,32.75h0l-3.64,3.64-3.64-3.64h0s-3.64-3.64-3.64-3.64l-7.28,7.28-3.64,3.64,3.64,3.64,14.56,14.56,14.56-14.56,3.64-3.64-3.64-3.64h0s-7.28-7.28-7.28-7.28l-3.64,3.64h0ZM134.64,36.39l3.64,3.64-10.92,10.92-10.92-10.92,3.64-3.64,3.64,3.64,3.64,3.64h0l3.63-3.64,3.64-3.64h0ZM109.17,40.03h0,0ZM120.09,87.33l-3.64-3.64,10.92-10.92,10.92,10.92-3.64,3.64-3.64-3.64-3.63-3.64h0l-3.64,3.64-3.64,3.64h0ZM65.5,3.64l-3.64,3.64-3.64-3.64,3.64-3.64,3.64,3.64h0ZM65.5,18.19l-3.64,3.64h0l-3.64-3.64-3.64-3.64-3.64,3.64,10.92,10.92,10.92-10.92-3.64-3.64-3.64,3.64h0ZM58.22,10.92l3.64,3.64,3.64-3.64,3.64-3.64,10.92,10.91-3.64,3.64h0s-10.92,10.92-10.92,10.92h0l-3.64,3.63-3.64-3.63h0s-10.92-10.92-10.92-10.92h0s-3.64-3.64-3.64-3.64l3.64-3.64,3.64-3.64,3.64-3.64,3.64,3.64h0ZM145.56,3.64l3.64,3.64,3.64-3.64-3.64-3.64-3.64,3.64h0ZM149.2,21.83l7.28-7.28,3.64,3.64-10.91,10.92-10.92-10.92,3.64-3.64,7.28,7.28h0ZM152.83,10.91l-3.64,3.64-3.64-3.64-3.64-3.64-3.64,3.64-3.64,3.64-3.64,3.64,3.64,3.64h0s10.92,10.91,10.92,10.91h0s3.64,3.64,3.64,3.64l3.64-3.63,10.92-10.92,3.64-3.64-10.92-10.91-3.64,3.64h0ZM189.23,3.64l3.64,3.64,3.64-3.64-3.64-3.64-3.64,3.64h0ZM192.87,21.83l7.28-7.28,3.64,3.64-10.92,10.92-10.92-10.92,3.64-3.64,7.28,7.28h0ZM196.5,10.91l-3.64,3.64-3.64-3.64-3.64-3.64-3.64,3.64-3.64,3.64-3.64,3.64,3.64,3.64h0s10.92,10.91,10.92,10.91h0s3.64,3.64,3.64,3.64l3.64-3.63,10.92-10.92h0s3.64-3.64,3.64-3.64l-7.28-7.28-3.64-3.64-3.64,3.64h0ZM171.03,50.94l3.64-3.64-3.64-3.64-3.64,3.64,3.64,3.64h0ZM152.83,40.03l18.2-18.2,18.19,18.2-18.19,18.19-18.2-18.19h0ZM163.75,43.67l7.28-7.28,7.28,7.28,3.64-3.63-10.91-10.92-10.92,10.92,3.64,3.63h0ZM101.89,3.64l3.64,3.64,3.64-3.64-3.64-3.64-3.64,3.64h0ZM101.89,18.19l3.64,3.64h0l3.64-3.64,3.64-3.64,3.64,3.64-10.92,10.92-10.92-10.92,3.64-3.64,3.64,3.64h0ZM109.17,10.92l-3.64,3.64-3.64-3.64-3.64-3.64-10.92,10.91,3.64,3.64h0s10.92,10.92,10.92,10.92l3.64,3.63,3.64-3.63h0s10.92-10.92,10.92-10.92h0s3.64-3.64,3.64-3.64l-3.64-3.64-3.64-3.64-3.64-3.64-3.64,3.64h0ZM83.69,50.94l3.64-3.64-3.64-3.64-3.64,3.64,3.64,3.64h0ZM65.5,40.03l18.19-18.2,18.19,18.2-18.19,18.19-18.19-18.19h0ZM76.42,43.67l7.28-7.28,7.28,7.28,3.64-3.63-10.92-10.92-10.92,10.92,3.64,3.63h0ZM942.5,58.22h0s-3.64,3.64-3.64,3.64l3.64,3.64,3.64,3.64-7.28,7.28h0l-3.64,3.64-3.64-3.64h0s-10.92-10.92-10.92-10.92l-3.64-3.64,14.55-14.56,3.64-3.64h0s0,0,0,0l3.64,3.64,7.28,7.28-3.64,3.64h0ZM909.75,25.47l3.64,3.64,3.64-3.64-3.64-3.64-3.64,3.64h0ZM917.03,98.25l-3.64-3.64-3.64,3.64,3.64,3.64,3.64-3.64h0ZM877,65.5l3.64-3.64-3.64-3.64-3.64,3.64,3.64,3.64h0ZM949.78,58.22l-3.64,3.64,3.64,3.64,3.64-3.64-3.64-3.64h0ZM906.11,36.39l-3.64,3.64,10.92,10.92,10.92-10.92-3.64-3.64-3.64,3.64-3.64,3.64-3.64-3.64-3.64-3.64h0ZM898.83,43.67h0l-3.64-3.64,3.64-3.64,7.28-7.28,3.64,3.64,3.64,3.64,7.28-7.28,7.28,7.28h0l3.64,3.64-3.64,3.64-14.55,14.56-14.56-14.56h0ZM920.67,87.33l3.64-3.64-10.92-10.92-10.92,10.92,3.64,3.64,3.64-3.64,3.64-3.64,3.64,3.64,3.64,3.64h0ZM927.94,87.33l-7.28,7.28-7.28-7.28-7.28,7.28-7.28-7.28-3.64-3.64,3.64-3.64h0l10.92-10.92,3.64-3.64,14.55,14.56,3.64,3.64-3.64,3.64h0ZM884.28,65.5h0s3.64-3.64,3.64-3.64l-3.64-3.64h0s-3.64-3.64-3.64-3.64l7.28-7.28,3.64-3.64,3.64,3.64,14.56,14.56-14.56,14.56-3.64,3.64-3.64-3.64h0s-7.28-7.28-7.28-7.28l3.64-3.64h0ZM887.92,69.14l3.64,3.64,10.92-10.92-10.92-10.92-3.64,3.64,3.64,3.64,3.64,3.64h0s-3.64,3.64-3.64,3.64l-3.64,3.64h0ZM891.56,43.67h0s0,0,0,0h0ZM938.86,54.58l-3.64-3.64-10.92,10.92,10.92,10.92,3.64-3.64-3.64-3.64-3.64-3.63h0s3.64-3.64,3.64-3.64l3.64-3.64h0ZM887.92,120.08l3.64-3.64,3.64,3.64-3.64,3.64-3.64-3.64h0ZM887.92,105.53l3.64-3.64h0l3.64,3.64,3.64,3.64,3.64-3.64-10.92-10.92-10.92,10.92,3.64,3.64,3.64-3.64h0ZM895.2,112.8l-3.64-3.64-3.64,3.64-3.64,3.64-10.92-10.91,3.64-3.64h0s10.92-10.92,10.92-10.92h0l3.64-3.63,3.64,3.63h0s10.92,10.92,10.92,10.92h0s3.64,3.64,3.64,3.64l-3.64,3.64-3.64,3.64-3.64,3.64-3.64-3.64h0ZM851.53,120.08l-3.64-3.64-3.64,3.64,3.64,3.64,3.64-3.64h0ZM851.53,105.53l-3.64-3.64h0l-3.64,3.64-3.64,3.64-3.64-3.64,10.92-10.92,10.92,10.92-3.64,3.64-3.64-3.64h0ZM844.25,112.8l3.64-3.64,3.64,3.64,3.64,3.64,10.92-10.91-3.64-3.64h0s-10.92-10.92-10.92-10.92l-3.64-3.63-3.64,3.63h0s-10.92,10.92-10.92,10.92h0s-3.64,3.64-3.64,3.64l3.64,3.64,3.64,3.64,3.64,3.64,3.64-3.64h0ZM869.72,72.78l-3.64,3.64,3.64,3.64,3.64-3.64-3.64-3.64h0ZM887.92,83.69l-18.19,18.2-18.19-18.2,18.19-18.19,18.19,18.19h0ZM877,80.05l-7.28,7.28-7.28-7.28-3.64,3.63,10.92,10.92,10.92-10.92-3.64-3.63h0ZM480.35,32.75h0l-3.64,3.64-3.64-3.64-3.64-3.64-7.28,7.28h0s-3.64,3.64-3.64,3.64l3.64,3.64h0l10.92,10.92,3.64,3.64,14.56-14.55,3.64-3.64h0,0l-3.64-3.64-7.28-7.28-3.64,3.64h0ZM538.57,3.64l3.64,3.64,3.64-3.64-3.64-3.64-3.64,3.64h0ZM538.57,18.19l3.64,3.64h0l3.64-3.64,3.64-3.64,3.64,3.64-10.92,10.92-10.92-10.92,3.64-3.64,3.64,3.64h0ZM545.85,10.92l-3.64,3.64-3.64-3.64-3.64-3.64-10.92,10.91,3.64,3.64h0s10.92,10.92,10.92,10.92h0l3.64,3.63,3.64-3.63h0s10.92-10.92,10.92-10.92h0s3.64-3.64,3.64-3.64l-3.64-3.64-3.64-3.64-3.64-3.64-3.64,3.64h0ZM458.52,3.64l-3.64,3.64-3.64-3.64,3.64-3.64,3.64,3.64h0ZM454.88,21.83l-7.28-7.28-3.64,3.64,10.91,10.92,10.92-10.92-3.64-3.64-7.28,7.28h0ZM451.24,10.91l3.64,3.64,3.64-3.64,3.64-3.64,3.64,3.64,3.64,3.64,3.64,3.64-3.64,3.64h0s-10.92,10.91-10.92,10.91h0s-3.64,3.64-3.64,3.64l-3.64-3.63-10.92-10.92-3.64-3.64,10.92-10.91,3.64,3.64h0ZM414.85,3.64l-3.64,3.64-3.64-3.64,3.64-3.64,3.64,3.64h0ZM411.21,21.83l-7.28-7.28-3.64,3.64,10.92,10.92,10.92-10.92-3.64-3.64-7.28,7.28h0ZM407.57,10.91l3.64,3.64,3.64-3.64,3.64-3.64,3.64,3.64,3.64,3.64,3.64,3.64-3.64,3.64h0s-10.92,10.91-10.92,10.91h0s-3.64,3.64-3.64,3.64l-3.64-3.63-10.92-10.92h0s-3.64-3.64-3.64-3.64l7.28-7.28,3.64-3.64,3.64,3.64h0ZM433.04,50.94l-3.64-3.64,3.64-3.64,3.64,3.64-3.64,3.64h0ZM451.24,40.03l-18.2-18.2-18.19,18.2,18.19,18.19,18.2-18.19h0ZM440.32,43.67l-7.28-7.28-7.27,7.28-3.64-3.63,10.91-10.92,10.92,10.92-3.64,3.63h0ZM502.18,3.64l-3.64,3.64-3.64-3.64,3.64-3.64,3.64,3.64h0ZM502.18,18.19l-3.64,3.64h0l-3.64-3.64-3.64-3.64-3.64,3.64,10.92,10.92,10.92-10.92-3.64-3.64-3.64,3.64h0ZM494.9,10.92l3.64,3.64,3.64-3.64,3.64-3.64,10.92,10.91-3.64,3.64h0s-10.92,10.92-10.92,10.92l-3.64,3.63-3.64-3.63h0s-10.92-10.92-10.92-10.92h0s-3.64-3.64-3.64-3.64l3.64-3.64,3.64-3.64,3.64-3.64,3.64,3.64h0ZM520.38,50.94l-3.64-3.64,3.64-3.64,3.64,3.64-3.64,3.64h0ZM538.57,40.03l-18.19-18.2-18.19,18.2,18.19,18.19,18.19-18.19h0ZM527.66,43.67l-7.28-7.28-7.28,7.28-3.64-3.63,10.92-10.92,10.92,10.92-3.64,3.63h0ZM513.1,65.5l-3.64-3.64,3.64-3.64,3.64,3.64-3.64,3.64h0ZM440.32,58.22l3.64,3.64-3.64,3.64-3.64-3.64,3.64-3.64h0ZM473.07,98.25l3.64-3.64,3.64,3.64-3.64,3.64-3.64-3.64h0ZM480.35,25.47l-3.64,3.64-3.64-3.64,3.64-3.64,3.64,3.64h0ZM502.18,69.14l-3.64,3.64-10.92-10.92,10.92-10.92,3.64,3.64-3.64,3.64-3.64,3.64,3.64,3.64,3.64,3.64h0ZM494.9,76.41h0s3.64,3.64,3.64,3.64l3.64-3.64,7.28-7.28-3.64-3.64-3.64-3.64,7.28-7.28-7.28-7.28h0s-3.64-3.64-3.64-3.64l-3.64,3.64-14.56,14.55,14.56,14.56h0ZM451.24,54.58l3.64-3.64,10.92,10.92-10.92,10.92-3.64-3.64,3.64-3.64,3.64-3.64-3.64-3.64-3.64-3.64h0ZM451.24,47.31l-7.28,7.28,7.28,7.28-7.28,7.28,7.28,7.28,3.64,3.64,3.64-3.64h0s10.92-10.92,10.92-10.92l3.64-3.64-14.56-14.55-3.64-3.64-3.64,3.64h0ZM473.07,90.97h0l3.64-3.64,3.64,3.64h0s3.64,3.64,3.64,3.64l7.28-7.28,3.64-3.64-3.64-3.64-14.56-14.56-14.56,14.56-3.64,3.64,3.64,3.64h0s7.28,7.28,7.28,7.28l3.64-3.64h0ZM469.43,87.33l-3.64-3.64,10.92-10.92,10.92,10.92-3.64,3.64-3.64-3.64-3.64-3.64h0l-3.64,3.64-3.64,3.64h0ZM494.9,83.69h0,0ZM483.99,36.39l3.64,3.64-10.92,10.92-10.92-10.92,3.64-3.64,3.64,3.64,3.64,3.64h0l3.64-3.64,3.64-3.64h0ZM393.01,90.97h0l-3.64-3.64-3.64,3.64-3.64,3.64-7.28-7.28h0s-3.64-3.64-3.64-3.64l3.64-3.64h0l10.92-10.92,3.64-3.64,14.56,14.55,3.64,3.64h0,0l-3.64,3.64-7.28,7.28-3.64-3.64h0ZM451.24,120.08l3.64-3.64,3.64,3.64-3.64,3.64-3.64-3.64h0ZM451.24,105.52l3.64-3.64h0l3.64,3.64,3.64,3.64,3.64-3.64-10.92-10.92-10.92,10.92,3.64,3.64,3.64-3.64h0ZM458.52,112.8l-3.64-3.64-3.64,3.64-3.64,3.64-10.92-10.91,3.64-3.64h0s10.92-10.92,10.92-10.92h0l3.64-3.63,3.64,3.63h0s10.92,10.92,10.92,10.92h0s3.64,3.64,3.64,3.64l-3.64,3.64-3.64,3.64-3.64,3.64-3.64-3.64h0ZM371.18,120.08l-3.64-3.64-3.64,3.64,3.64,3.64,3.64-3.64h0ZM367.54,101.88l-7.28,7.28-3.64-3.64,10.91-10.92,10.92,10.92-3.64,3.64-7.28-7.28h0ZM363.9,112.8l3.64-3.64,3.64,3.64,3.64,3.64,3.64-3.64,3.64-3.64,3.64-3.64-3.64-3.64h0s-10.92-10.91-10.92-10.91h0s-3.64-3.64-3.64-3.64l-3.64,3.63-10.92,10.92-3.64,3.64,10.92,10.91,3.64-3.64h0ZM327.51,120.08l-3.64-3.64-3.64,3.64,3.64,3.64,3.64-3.64h0ZM323.87,101.88l-7.28,7.28-3.64-3.64,10.92-10.92,10.92,10.92-3.64,3.64-7.28-7.28h0ZM320.23,112.8l3.64-3.64,3.64,3.64,3.64,3.64,3.64-3.64,3.64-3.64,3.64-3.64-3.64-3.64h0s-10.92-10.91-10.92-10.91h0s-3.64-3.64-3.64-3.64l-3.64,3.63-10.92,10.92h0s-3.64,3.64-3.64,3.64l7.28,7.28,3.64,3.64,3.64-3.64h0ZM345.7,72.77l-3.64,3.64,3.64,3.64,3.64-3.64-3.64-3.64h0ZM363.9,83.68l-18.2,18.2-18.19-18.2,18.19-18.19,18.2,18.19h0ZM352.98,80.05l-7.28,7.28-7.27-7.28-3.64,3.63,10.91,10.92,10.92-10.92-3.64-3.63h0ZM414.85,120.08l-3.64-3.64-3.64,3.64,3.64,3.64,3.64-3.64h0ZM414.85,105.52l-3.64-3.64h0l-3.64,3.64-3.64,3.64-3.64-3.64,10.92-10.92,10.92,10.92-3.64,3.64-3.64-3.64h0ZM407.57,112.8l3.64-3.64,3.64,3.64,3.64,3.64,10.92-10.91-3.64-3.64h0s-10.92-10.92-10.92-10.92l-3.64-3.63-3.64,3.63h0s-10.92,10.92-10.92,10.92h0s-3.64,3.64-3.64,3.64l3.64,3.64,3.64,3.64,3.64,3.64,3.64-3.64h0ZM433.04,72.77l-3.64,3.64,3.64,3.64,3.64-3.64-3.64-3.64h0ZM451.24,83.68l-18.19,18.2-18.19-18.2,18.19-18.19,18.19,18.19h0ZM440.32,80.05l-7.28,7.28-7.28-7.28-3.64,3.63,10.92,10.92,10.92-10.92-3.64-3.63h0ZM425.76,58.22l-3.64,3.64,3.64,3.64,3.64-3.64-3.64-3.64h0ZM352.98,65.49l3.64-3.64-3.64-3.64-3.64,3.64,3.64,3.64h0ZM385.74,25.46l3.64,3.64,3.64-3.64-3.64-3.64-3.64,3.64h0ZM393.01,98.24l-3.64-3.64-3.64,3.64,3.64,3.64,3.64-3.64h0ZM414.84,54.58l-3.64-3.64-10.92,10.92,10.92,10.92,3.64-3.64-3.64-3.64-3.64-3.64,3.64-3.64,3.64-3.64h0ZM407.57,47.3h0s3.64-3.64,3.64-3.64l3.64,3.64,7.28,7.28-3.64,3.64-3.64,3.64,7.28,7.28-7.28,7.28h0s-3.64,3.64-3.64,3.64l-3.64-3.64-14.56-14.55,14.56-14.56h0ZM363.9,69.13l3.64,3.64,10.92-10.92-10.92-10.92-3.64,3.64,3.64,3.64,3.64,3.64-3.64,3.64-3.64,3.64h0ZM363.9,76.41l-7.28-7.28,7.28-7.28-7.28-7.28,7.28-7.28,3.64-3.64,3.64,3.64h0s10.92,10.92,10.92,10.92l3.64,3.64-14.56,14.55-3.64,3.64-3.64-3.64h0ZM385.74,32.74h0l3.64,3.64,3.64-3.64h0s3.64-3.64,3.64-3.64l7.28,7.28,3.64,3.64-3.64,3.64-14.56,14.56-14.56-14.56-3.64-3.64,3.64-3.64h0s7.28-7.28,7.28-7.28l3.64,3.64h0ZM382.1,36.38l-3.64,3.64,10.92,10.92,10.92-10.92-3.64-3.64-3.64,3.64-3.64,3.64h0l-3.64-3.64-3.64-3.64h0ZM407.57,40.02h0,0ZM396.65,87.33l3.64-3.64-10.92-10.92-10.92,10.92,3.64,3.64,3.64-3.64,3.64-3.64h0l3.64,3.64,3.64,3.64h0ZM305.67,32.75h0l-3.64,3.64-3.64-3.64-3.64-3.64-7.28,7.28h0s-3.64,3.64-3.64,3.64l3.64,3.64h0l10.92,10.92,3.64,3.64,14.56-14.55,3.64-3.64h0,0l-3.64-3.64-7.28-7.28-3.64,3.64h0ZM363.9,3.64l3.64,3.64,3.64-3.64-3.64-3.64-3.64,3.64h0ZM363.9,18.19l3.64,3.64h0l3.64-3.64,3.64-3.64,3.64,3.64-10.92,10.92-10.92-10.92,3.64-3.64,3.64,3.64h0ZM371.18,10.92l-3.64,3.64-3.64-3.64-3.64-3.64-10.92,10.91,3.64,3.64h0s10.92,10.92,10.92,10.92h0l3.64,3.63,3.64-3.63h0s10.92-10.92,10.92-10.92h0s3.64-3.64,3.64-3.64l-3.64-3.64-3.64-3.64-3.64-3.64-3.64,3.64h0ZM283.84,3.64l-3.64,3.64-3.64-3.64,3.64-3.64,3.64,3.64h0ZM280.2,21.83l-7.28-7.28-3.64,3.64,10.91,10.92,10.92-10.92-3.64-3.64-7.28,7.28h0ZM276.56,10.91l3.64,3.64,3.64-3.64,3.64-3.64,3.64,3.64,3.64,3.64,3.64,3.64-3.64,3.64h0s-10.92,10.91-10.92,10.91h0s-3.64,3.64-3.64,3.64l-3.64-3.63-10.92-10.92-3.64-3.64,10.92-10.91,3.64,3.64h0ZM240.17,3.64l-3.64,3.64-3.64-3.64,3.64-3.64,3.64,3.64h0ZM236.53,21.83l-7.28-7.28-3.64,3.64,10.92,10.92,10.92-10.92-3.64-3.64-7.28,7.28h0ZM232.9,10.91l3.64,3.64,3.64-3.64,3.64-3.64,3.64,3.64,3.64,3.64,3.64,3.64-3.64,3.64h0s-10.92,10.91-10.92,10.91h0s-3.64,3.64-3.64,3.64l-3.64-3.63-10.92-10.92h0s-3.64-3.64-3.64-3.64l7.28-7.28,3.64-3.64,3.64,3.64h0ZM258.37,50.94l-3.64-3.64,3.64-3.64,3.64,3.64-3.64,3.64h0ZM276.56,40.03l-18.2-18.2-18.19,18.2,18.19,18.19,18.2-18.19h0ZM265.65,43.67l-7.28-7.28-7.27,7.28-3.64-3.63,10.91-10.92,10.92,10.92-3.64,3.63h0ZM327.51,3.64l-3.64,3.64-3.64-3.64,3.64-3.64,3.64,3.64h0ZM327.51,18.19l-3.64,3.64h0l-3.64-3.64-3.64-3.64-3.64,3.64,10.92,10.92,10.92-10.92-3.64-3.64-3.64,3.64h0ZM320.23,10.92l3.64,3.64,3.64-3.64,3.64-3.64,10.92,10.91-3.64,3.64h0s-10.92,10.92-10.92,10.92l-3.64,3.63-3.64-3.63h0s-10.92-10.92-10.92-10.92h0s-3.64-3.64-3.64-3.64l3.64-3.64,3.64-3.64,3.64-3.64,3.64,3.64h0ZM345.7,50.94l-3.64-3.64,3.64-3.64,3.64,3.64-3.64,3.64h0ZM363.9,40.03l-18.19-18.2-18.19,18.2,18.19,18.19,18.19-18.19h0ZM352.98,43.67l-7.28-7.28-7.28,7.28-3.64-3.63,10.92-10.92,10.92,10.92-3.64,3.63h0ZM338.43,65.5l-3.64-3.64,3.64-3.64,3.64,3.64-3.64,3.64h0ZM265.65,58.22l3.64,3.64-3.64,3.64-3.64-3.64,3.64-3.64h0ZM298.4,98.25l3.64-3.64,3.64,3.64-3.64,3.64-3.64-3.64h0ZM305.68,25.47l-3.64,3.64-3.64-3.64,3.64-3.64,3.64,3.64h0ZM327.51,69.14l-3.64,3.64-10.92-10.92,10.92-10.92,3.64,3.64-3.64,3.64-3.64,3.64,3.64,3.64,3.64,3.64h0ZM320.23,76.41h0s3.64,3.64,3.64,3.64l3.64-3.64,7.28-7.28-3.64-3.64-3.64-3.64,7.28-7.28-7.28-7.28h0s-3.64-3.64-3.64-3.64l-3.64,3.64-14.56,14.55,14.56,14.56h0ZM276.56,54.58l3.64-3.64,10.92,10.92-10.92,10.92-3.64-3.64,3.64-3.64,3.64-3.64-3.64-3.64-3.64-3.64h0ZM276.56,47.31l-7.28,7.28,7.28,7.28-7.28,7.28,7.28,7.28,3.64,3.64,3.64-3.64h0s10.92-10.92,10.92-10.92l3.64-3.64-14.56-14.55-3.64-3.64-3.64,3.64h0ZM298.4,90.97h0l3.64-3.64,3.64,3.64h0s3.64,3.64,3.64,3.64l7.28-7.28,3.64-3.64-3.64-3.64-14.56-14.56-14.56,14.56-3.64,3.64,3.64,3.64h0s7.28,7.28,7.28,7.28l3.64-3.64h0ZM294.76,87.33l-3.64-3.64,10.92-10.92,10.92,10.92-3.64,3.64-3.64-3.64-3.64-3.64h0l-3.63,3.64-3.64,3.64h0ZM320.23,83.69h0,0ZM309.31,36.39l3.64,3.64-10.92,10.92-10.92-10.92,3.64-3.64,3.64,3.64,3.63,3.64h0l3.64-3.64,3.64-3.64h0ZM218.34,90.97h0l-3.64-3.64-3.64,3.64-3.64,3.64-7.28-7.28h0s-3.64-3.64-3.64-3.64l3.64-3.64h0l10.92-10.92,3.64-3.64,14.56,14.55,3.64,3.64h0,0l-3.64,3.64-7.28,7.28-3.64-3.64h0ZM276.56,120.08l3.64-3.64,3.64,3.64-3.64,3.64-3.64-3.64h0ZM276.56,105.52l3.64-3.64h0l3.64,3.64,3.64,3.64,3.64-3.64-10.92-10.92-10.92,10.92,3.64,3.64,3.64-3.64h0ZM283.84,112.8l-3.64-3.64-3.64,3.64-3.64,3.64-10.92-10.91,3.64-3.64h0s10.92-10.92,10.92-10.92h0l3.64-3.63,3.64,3.63h0s10.92,10.92,10.92,10.92h0s3.64,3.64,3.64,3.64l-3.64,3.64-3.64,3.64-3.64,3.64-3.64-3.64h0ZM240.17,120.08l-3.64-3.64-3.64,3.64,3.64,3.64,3.64-3.64h0ZM240.17,105.52l-3.64-3.64h0l-3.64,3.64-3.64,3.64-3.64-3.64,10.92-10.92,10.92,10.92-3.64,3.64-3.64-3.64h0ZM232.89,112.8l3.64-3.64,3.64,3.64,3.64,3.64,10.92-10.91-3.64-3.64h0s-10.92-10.92-10.92-10.92l-3.64-3.63-3.64,3.63h0s-10.92,10.92-10.92,10.92h0s-3.64,3.64-3.64,3.64l3.64,3.64,3.64,3.64,3.64,3.64,3.64-3.64h0ZM258.37,72.77l-3.64,3.64,3.64,3.64,3.64-3.64-3.64-3.64h0ZM276.56,83.68l-18.19,18.2-18.19-18.2,18.19-18.19,18.19,18.19h0ZM265.65,80.05l-7.28,7.28-7.28-7.28-3.64,3.63,10.92,10.92,10.92-10.92-3.64-3.63h0ZM251.09,58.22l-3.64,3.64,3.64,3.64,3.64-3.64-3.64-3.64h0ZM178.31,65.49l3.64-3.64-3.64-3.64-3.64,3.64,3.64,3.64h0ZM211.06,25.46l3.64,3.64,3.64-3.64-3.64-3.64-3.64,3.64h0ZM218.34,98.24l-3.64-3.64-3.64,3.64,3.64,3.64,3.64-3.64h0ZM240.17,54.58l-3.64-3.64-10.92,10.92,10.92,10.92,3.64-3.64-3.64-3.64-3.64-3.64,3.64-3.64,3.64-3.64h0ZM232.89,47.3h0s3.64-3.64,3.64-3.64l3.64,3.64,7.28,7.28-3.64,3.64-3.64,3.64,7.28,7.28-7.28,7.28h0s-3.64,3.64-3.64,3.64l-3.64-3.64-14.56-14.55,14.56-14.56h0ZM189.23,69.13l3.64,3.64,10.92-10.92-10.92-10.92-3.64,3.64,3.64,3.64,3.64,3.64-3.64,3.64-3.64,3.64h0ZM189.23,76.41l-7.28-7.28,7.28-7.28-7.28-7.28,7.28-7.28,3.64-3.64,3.64,3.64h0s10.92,10.92,10.92,10.92l3.64,3.64-14.56,14.55-3.64,3.64-3.64-3.64h0ZM211.06,32.74h0l3.64,3.64,3.64-3.64h0s3.64-3.64,3.64-3.64l7.28,7.28,3.64,3.64-3.64,3.64-14.56,14.56-14.56-14.56-3.64-3.64,3.64-3.64h0s7.28-7.28,7.28-7.28l3.64,3.64h0ZM207.42,36.38l-3.64,3.64,10.92,10.92,10.92-10.92-3.64-3.64-3.64,3.64-3.64,3.64h0l-3.63-3.64-3.64-3.64h0ZM232.89,40.02h0,0ZM221.98,87.33l3.64-3.64-10.92-10.92-10.92,10.92,3.64,3.64,3.64-3.64,3.63-3.64h0l3.64,3.64,3.64,3.64h0ZM829.69,32.75h0l-3.64,3.64-3.64-3.64-3.64-3.64-7.28,7.28h0s-3.64,3.64-3.64,3.64l3.64,3.64h0l10.92,10.92,3.64,3.64,14.56-14.55,3.64-3.64h0,0l-3.64-3.64-7.28-7.28-3.64,3.64h0ZM887.92,3.64l3.64,3.64,3.64-3.64-3.64-3.64-3.64,3.64h0ZM887.92,18.19l3.64,3.64h0l3.64-3.64,3.64-3.64,3.64,3.64-10.92,10.92-10.92-10.92,3.64-3.64,3.64,3.64h0ZM895.2,10.92l-3.64,3.64-3.64-3.64-3.64-3.64-10.92,10.91,3.64,3.64h0s10.92,10.92,10.92,10.92h0l3.64,3.63,3.64-3.63h0s10.92-10.92,10.92-10.92h0s3.64-3.64,3.64-3.64l-3.64-3.64-3.64-3.64-3.64-3.64-3.64,3.64h0ZM807.86,3.64l-3.64,3.64-3.64-3.64,3.64-3.64,3.64,3.64h0ZM804.22,21.83l-7.28-7.28-3.64,3.64,10.91,10.92,10.92-10.92-3.64-3.64-7.28,7.28h0ZM800.58,10.91l3.64,3.64,3.64-3.64,3.64-3.64,3.64,3.64,3.64,3.64,3.64,3.64-3.64,3.64h0s-10.92,10.91-10.92,10.91h0s-3.64,3.64-3.64,3.64l-3.64-3.63-10.92-10.92-3.64-3.64,10.92-10.91,3.64,3.64h0ZM764.19,3.64l-3.64,3.64-3.64-3.64,3.64-3.64,3.64,3.64h0ZM760.55,21.83l-7.28-7.28-3.64,3.64,10.92,10.92,10.92-10.92-3.64-3.64-7.28,7.28h0ZM756.91,10.91l3.64,3.64,3.64-3.64,3.64-3.64,3.64,3.64,3.64,3.64,3.64,3.64-3.64,3.64h0s-10.92,10.91-10.92,10.91h0s-3.64,3.64-3.64,3.64l-3.64-3.63-10.92-10.92h0s-3.64-3.64-3.64-3.64l7.28-7.28,3.64-3.64,3.64,3.64h0ZM782.39,50.94l-3.64-3.64,3.64-3.64,3.64,3.64-3.64,3.64h0ZM800.58,40.03l-18.2-18.2-18.19,18.2,18.19,18.19,18.2-18.19h0ZM789.67,43.67l-7.28-7.28-7.27,7.28-3.64-3.63,10.91-10.92,10.92,10.92-3.64,3.63h0ZM851.53,3.64l-3.64,3.64-3.64-3.64,3.64-3.64,3.64,3.64h0ZM851.53,18.19l-3.64,3.64h0l-3.64-3.64-3.64-3.64-3.64,3.64,10.92,10.92,10.92-10.92-3.64-3.64-3.64,3.64h0ZM844.25,10.92l3.64,3.64,3.64-3.64,3.64-3.64,10.92,10.91-3.64,3.64h0s-10.92,10.92-10.92,10.92l-3.64,3.63-3.64-3.63h0s-10.92-10.92-10.92-10.92h0s-3.64-3.64-3.64-3.64l3.64-3.64,3.64-3.64,3.64-3.64,3.64,3.64h0ZM869.72,50.94l-3.64-3.64,3.64-3.64,3.64,3.64-3.64,3.64h0ZM887.92,40.03l-18.19-18.2-18.19,18.2,18.19,18.19,18.19-18.19h0ZM877,43.67l-7.28-7.28-7.28,7.28-3.64-3.63,10.92-10.92,10.92,10.92-3.64,3.63h0ZM862.45,65.5l-3.64-3.64,3.64-3.64,3.64,3.64-3.64,3.64h0ZM789.67,58.22l3.64,3.64-3.64,3.64-3.64-3.64,3.64-3.64h0ZM822.42,98.25l3.64-3.64,3.64,3.64-3.64,3.64-3.64-3.64h0ZM829.69,25.47l-3.64,3.64-3.64-3.64,3.64-3.64,3.64,3.64h0ZM851.53,69.14l-3.64,3.64-10.92-10.92,10.92-10.92,3.64,3.64-3.64,3.64-3.64,3.64,3.64,3.64,3.64,3.64h0ZM844.25,76.41h0s3.64,3.64,3.64,3.64l3.64-3.64,7.28-7.28-3.64-3.64-3.64-3.64,7.28-7.28-7.28-7.28h0s-3.64-3.64-3.64-3.64l-3.64,3.64-14.56,14.55,14.56,14.56h0ZM800.58,54.58l3.64-3.64,10.92,10.92-10.92,10.92-3.64-3.64,3.64-3.64,3.64-3.64-3.64-3.64-3.64-3.64h0ZM800.58,47.31l-7.28,7.28,7.28,7.28-7.28,7.28,7.28,7.28,3.64,3.64,3.64-3.64h0s10.92-10.92,10.92-10.92l3.64-3.64-14.56-14.55-3.64-3.64-3.64,3.64h0ZM822.42,90.97h0l3.64-3.64,3.64,3.64h0s3.64,3.64,3.64,3.64l7.28-7.28,3.64-3.64-3.64-3.64-14.56-14.56-14.56,14.56-3.64,3.64,3.64,3.64h0s7.28,7.28,7.28,7.28l3.64-3.64h0ZM818.78,87.33l-3.64-3.64,10.92-10.92,10.92,10.92-3.64,3.64-3.64-3.64-3.64-3.64h0l-3.64,3.64-3.64,3.64h0ZM844.25,83.69h0,0ZM833.33,36.39l3.64,3.64-10.92,10.92-10.92-10.92,3.64-3.64,3.64,3.64,3.64,3.64h0l3.64-3.64,3.64-3.64h0ZM742.36,90.97h0l-3.64-3.64-3.64,3.64-3.64,3.64-7.28-7.28h0s-3.64-3.64-3.64-3.64l3.64-3.64h0l10.92-10.92,3.64-3.64,14.56,14.55,3.64,3.64h0,0l-3.64,3.64-7.28,7.28-3.64-3.64h0ZM800.58,120.08l3.64-3.64,3.64,3.64-3.64,3.64-3.64-3.64h0ZM800.58,105.52l3.64-3.64h0l3.64,3.64,3.64,3.64,3.64-3.64-10.92-10.92-10.92,10.92,3.64,3.64,3.64-3.64h0ZM807.86,112.8l-3.64-3.64-3.64,3.64-3.64,3.64-10.92-10.91,3.64-3.64h0s10.92-10.92,10.92-10.92h0l3.64-3.63,3.64,3.63h0s10.92,10.92,10.92,10.92h0s3.64,3.64,3.64,3.64l-3.64,3.64-3.64,3.64-3.64,3.64-3.64-3.64h0ZM720.52,120.08l-3.64-3.64-3.64,3.64,3.64,3.64,3.64-3.64h0ZM716.88,101.88l-7.28,7.28-3.64-3.64,10.91-10.92,10.92,10.92-3.64,3.64-7.28-7.28h0ZM713.25,112.8l3.64-3.64,3.64,3.64,3.64,3.64,3.64-3.64,3.64-3.64,3.64-3.64-3.64-3.64h0s-10.92-10.91-10.92-10.91h0s-3.64-3.64-3.64-3.64l-3.64,3.63-10.92,10.92-3.64,3.64,10.92,10.91,3.64-3.64h0ZM676.86,120.08l-3.64-3.64-3.64,3.64,3.64,3.64,3.64-3.64h0ZM673.22,101.88l-7.28,7.28-3.64-3.64,10.92-10.92,10.92,10.92-3.64,3.64-7.28-7.28h0ZM669.58,112.8l3.64-3.64,3.64,3.64,3.64,3.64,3.64-3.64,3.64-3.64,3.64-3.64-3.64-3.64h0s-10.92-10.91-10.92-10.91h0s-3.64-3.64-3.64-3.64l-3.64,3.63-10.92,10.92h0s-3.64,3.64-3.64,3.64l7.28,7.28,3.64,3.64,3.64-3.64h0ZM695.05,72.77l-3.64,3.64,3.64,3.64,3.64-3.64-3.64-3.64h0ZM713.25,83.68l-18.2,18.2-18.19-18.2,18.19-18.19,18.2,18.19h0ZM702.33,80.05l-7.28,7.28-7.27-7.28-3.64,3.63,10.91,10.92,10.92-10.92-3.64-3.63h0ZM764.19,120.08l-3.64-3.64-3.64,3.64,3.64,3.64,3.64-3.64h0ZM764.19,105.52l-3.64-3.64h0l-3.64,3.64-3.64,3.64-3.64-3.64,10.92-10.92,10.92,10.92-3.64,3.64-3.64-3.64h0ZM756.91,112.8l3.64-3.64,3.64,3.64,3.64,3.64,10.92-10.91-3.64-3.64h0s-10.92-10.92-10.92-10.92l-3.64-3.63-3.64,3.63h0s-10.92,10.92-10.92,10.92h0s-3.64,3.64-3.64,3.64l3.64,3.64,3.64,3.64,3.64,3.64,3.64-3.64h0ZM782.39,72.77l-3.64,3.64,3.64,3.64,3.64-3.64-3.64-3.64h0ZM800.58,83.68l-18.19,18.2-18.19-18.2,18.19-18.19,18.19,18.19h0ZM789.66,80.05l-7.28,7.28-7.28-7.28-3.64,3.63,10.92,10.92,10.92-10.92-3.64-3.63h0ZM775.11,58.22l-3.64,3.64,3.64,3.64,3.64-3.64-3.64-3.64h0ZM702.33,65.49l3.64-3.64-3.64-3.64-3.64,3.64,3.64,3.64h0ZM735.08,25.46l3.64,3.64,3.64-3.64-3.64-3.64-3.64,3.64h0ZM742.36,98.24l-3.64-3.64-3.64,3.64,3.64,3.64,3.64-3.64h0ZM764.19,54.58l-3.64-3.64-10.92,10.92,10.92,10.92,3.64-3.64-3.64-3.64-3.64-3.64,3.64-3.64,3.64-3.64h0ZM756.91,47.3h0s3.64-3.64,3.64-3.64l3.64,3.64,7.28,7.28-3.64,3.64-3.64,3.64,7.28,7.28-7.28,7.28h0s-3.64,3.64-3.64,3.64l-3.64-3.64-14.56-14.55,14.56-14.56h0ZM713.25,69.13l3.64,3.64,10.92-10.92-10.92-10.92-3.64,3.64,3.64,3.64,3.64,3.64-3.64,3.64-3.64,3.64h0ZM713.24,76.41l-7.28-7.28,7.28-7.28-7.28-7.28,7.28-7.28,3.64-3.64,3.64,3.64h0s10.92,10.92,10.92,10.92l3.64,3.64-14.56,14.55-3.64,3.64-3.64-3.64h0ZM735.08,32.74h0l3.64,3.64,3.64-3.64h0s3.64-3.64,3.64-3.64l7.28,7.28,3.64,3.64-3.64,3.64-14.56,14.56-14.56-14.56-3.64-3.64,3.64-3.64h0s7.28-7.28,7.28-7.28l3.64,3.64h0ZM731.44,36.38l-3.64,3.64,10.92,10.92,10.92-10.92-3.64-3.64-3.64,3.64-3.64,3.64h0l-3.63-3.64-3.64-3.64h0ZM756.91,40.02h0,0ZM746,87.33l3.64-3.64-10.92-10.92-10.92,10.92,3.64,3.64,3.64-3.64,3.63-3.64h0l3.64,3.64,3.64,3.64h0ZM655.02,32.75h0l-3.64,3.64-3.64-3.64-3.64-3.64-7.28,7.28h0s-3.64,3.64-3.64,3.64l3.64,3.64h0l10.92,10.92,3.64,3.64,14.56-14.55,3.64-3.64h0,0l-3.64-3.64-7.28-7.28-3.64,3.64h0ZM713.24,3.64l3.64,3.64,3.64-3.64-3.64-3.64-3.64,3.64h0ZM713.24,18.19l3.64,3.64h0l3.64-3.64,3.64-3.64,3.64,3.64-10.92,10.92-10.92-10.92,3.64-3.64,3.64,3.64h0ZM720.52,10.92l-3.64,3.64-3.64-3.64-3.64-3.64-10.92,10.91,3.64,3.64h0s10.92,10.92,10.92,10.92h0l3.64,3.63,3.64-3.63h0s10.92-10.92,10.92-10.92h0s3.64-3.64,3.64-3.64l-3.64-3.64-3.64-3.64-3.64-3.64-3.64,3.64h0ZM633.19,3.64l-3.64,3.64-3.64-3.64,3.64-3.64,3.64,3.64h0ZM629.55,21.83l-7.28-7.28-3.64,3.64,10.91,10.92,10.92-10.92-3.64-3.64-7.28,7.28h0ZM625.91,10.91l3.64,3.64,3.64-3.64,3.64-3.64,3.64,3.64,3.64,3.64,3.64,3.64-3.64,3.64h0s-10.92,10.91-10.92,10.91h0s-3.64,3.64-3.64,3.64l-3.64-3.63-10.92-10.92-3.64-3.64,10.92-10.91,3.64,3.64h0ZM589.52,3.64l-3.64,3.64-3.64-3.64,3.64-3.64,3.64,3.64h0ZM585.88,21.83l-7.28-7.28-3.64,3.64,10.92,10.92,10.92-10.92-3.64-3.64-7.28,7.28h0ZM582.24,10.91l3.64,3.64,3.64-3.64,3.64-3.64,3.64,3.64,3.64,3.64,3.64,3.64-3.64,3.64h0s-10.92,10.91-10.92,10.91h0s-3.64,3.64-3.64,3.64l-3.64-3.63-10.92-10.92h0s-3.64-3.64-3.64-3.64l7.28-7.28,3.64-3.64,3.64,3.64h0ZM607.71,50.94l-3.64-3.64,3.64-3.64,3.64,3.64-3.64,3.64h0ZM625.91,40.03l-18.2-18.2-18.19,18.2,18.19,18.19,18.2-18.19h0ZM614.99,43.67l-7.28-7.28-7.27,7.28-3.64-3.63,10.91-10.92,10.92,10.92-3.64,3.63h0ZM676.86,3.64l-3.64,3.64-3.64-3.64,3.64-3.64,3.64,3.64h0ZM676.86,18.19l-3.64,3.64h0l-3.64-3.64-3.64-3.64-3.64,3.64,10.92,10.92,10.92-10.92-3.64-3.64-3.64,3.64h0ZM669.58,10.92l3.64,3.64,3.64-3.64,3.64-3.64,10.92,10.91-3.64,3.64h0s-10.92,10.92-10.92,10.92l-3.64,3.63-3.64-3.63h0s-10.92-10.92-10.92-10.92h0s-3.64-3.64-3.64-3.64l3.64-3.64,3.64-3.64,3.64-3.64,3.64,3.64h0ZM695.05,50.94l-3.64-3.64,3.64-3.64,3.64,3.64-3.64,3.64h0ZM713.24,40.03l-18.19-18.2-18.19,18.2,18.19,18.19,18.19-18.19h0ZM702.33,43.67l-7.28-7.28-7.28,7.28-3.64-3.63,10.92-10.92,10.92,10.92-3.64,3.63h0ZM687.77,65.5l-3.64-3.64,3.64-3.64,3.64,3.64-3.64,3.64h0ZM614.99,58.22l3.64,3.64-3.64,3.64-3.64-3.64,3.64-3.64h0ZM647.74,98.25l3.64-3.64,3.64,3.64-3.64,3.64-3.64-3.64h0ZM655.02,25.47l-3.64,3.64-3.64-3.64,3.64-3.64,3.64,3.64h0ZM676.85,69.14l-3.64,3.64-10.92-10.92,10.92-10.92,3.64,3.64-3.64,3.64-3.64,3.64,3.64,3.64,3.64,3.64h0ZM669.58,76.41h0s3.64,3.64,3.64,3.64l3.64-3.64,7.28-7.28-3.64-3.64-3.64-3.64,7.28-7.28-7.28-7.28h0s-3.64-3.64-3.64-3.64l-3.64,3.64-14.56,14.55,14.56,14.56h0ZM625.91,54.58l3.64-3.64,10.92,10.92-10.92,10.92-3.64-3.64,3.64-3.64,3.64-3.64-3.64-3.64-3.64-3.64h0ZM625.91,47.31l-7.28,7.28,7.28,7.28-7.28,7.28,7.28,7.28,3.64,3.64,3.64-3.64h0s10.92-10.92,10.92-10.92l3.64-3.64-14.56-14.55-3.64-3.64-3.64,3.64h0ZM647.74,90.97h0l3.64-3.64,3.64,3.64h0s3.64,3.64,3.64,3.64l7.28-7.28,3.64-3.64-3.64-3.64-14.56-14.56-14.56,14.56-3.64,3.64,3.64,3.64h0s7.28,7.28,7.28,7.28l3.64-3.64h0ZM644.1,87.33l-3.64-3.64,10.92-10.92,10.92,10.92-3.64,3.64-3.64-3.64-3.64-3.64h0l-3.64,3.64-3.64,3.64h0ZM669.58,83.69h0,0ZM658.66,36.39l3.64,3.64-10.92,10.92-10.92-10.92,3.64-3.64,3.64,3.64,3.64,3.64h0l3.64-3.64,3.64-3.64h0ZM625.91,120.08l3.64-3.64,3.64,3.64-3.64,3.64-3.64-3.64h0ZM625.91,105.52l3.64-3.64h0l3.64,3.64,3.64,3.64,3.64-3.64-10.92-10.92-10.92,10.92,3.64,3.64,3.64-3.64h0ZM633.19,112.8l-3.64-3.64-3.64,3.64-3.64,3.64-10.92-10.91,3.64-3.64h0s10.92-10.92,10.92-10.92h0l3.64-3.63,3.64,3.63h0s10.92,10.92,10.92,10.92h0s3.64,3.64,3.64,3.64l-3.64,3.64-3.64,3.64-3.64,3.64-3.64-3.64h0ZM545.85,120.08l-3.64-3.64-3.64,3.64,3.64,3.64,3.64-3.64h0ZM542.21,101.88l-7.28,7.28-3.64-3.64,10.91-10.92,10.92,10.92-3.64,3.64-7.28-7.28h0ZM538.57,112.8l3.64-3.64,3.64,3.64,3.64,3.64,3.64-3.64,3.64-3.64,3.64-3.64-3.64-3.64h0s-10.92-10.91-10.92-10.91h0s-3.64-3.64-3.64-3.64l-3.64,3.63-10.92,10.92-3.64,3.64,10.92,10.91,3.64-3.64h0ZM502.18,120.08l-3.64-3.64-3.64,3.64,3.64,3.64,3.64-3.64h0ZM498.54,101.88l-7.28,7.28-3.64-3.64,10.92-10.92,10.92,10.92-3.64,3.64-7.28-7.28h0ZM494.9,112.8l3.64-3.64,3.64,3.64,3.64,3.64,3.64-3.64,3.64-3.64,3.64-3.64-3.64-3.64h0s-10.92-10.91-10.92-10.91h0s-3.64-3.64-3.64-3.64l-3.64,3.63-10.92,10.92h0s-3.64,3.64-3.64,3.64l7.28,7.28,3.64,3.64,3.64-3.64h0ZM520.38,72.77l-3.64,3.64,3.64,3.64,3.64-3.64-3.64-3.64h0ZM538.57,83.68l-18.2,18.2-18.19-18.2,18.19-18.19,18.2,18.19h0ZM527.66,80.05l-7.28,7.28-7.27-7.28-3.64,3.63,10.91,10.92,10.92-10.92-3.64-3.63h0ZM589.52,120.08l-3.64-3.64-3.64,3.64,3.64,3.64,3.64-3.64h0ZM589.52,105.52l-3.64-3.64h0l-3.64,3.64-3.64,3.64-3.64-3.64,10.92-10.92,10.92,10.92-3.64,3.64-3.64-3.64h0ZM582.24,112.8l3.64-3.64,3.64,3.64,3.64,3.64,10.92-10.91-3.64-3.64h0s-10.92-10.92-10.92-10.92l-3.64-3.63-3.64,3.63h0s-10.92,10.92-10.92,10.92h0s-3.64,3.64-3.64,3.64l3.64,3.64,3.64,3.64,3.64,3.64,3.64-3.64h0ZM607.71,72.77l-3.64,3.64,3.64,3.64,3.64-3.64-3.64-3.64h0ZM625.91,83.68l-18.19,18.2-18.19-18.2,18.19-18.19,18.19,18.19h0ZM614.99,80.05l-7.28,7.28-7.28-7.28-3.64,3.63,10.92,10.92,10.92-10.92-3.64-3.63h0ZM600.44,58.22l-3.64,3.64,3.64,3.64,3.64-3.64-3.64-3.64h0ZM527.66,65.49l3.64-3.64-3.64-3.64-3.64,3.64,3.64,3.64h0ZM560.41,25.46l3.64,3.64,3.64-3.64-3.64-3.64-3.64,3.64h0ZM567.68,98.24l-3.64-3.64-3.64,3.64,3.64,3.64,3.64-3.64h0ZM589.52,54.58l-3.64-3.64-10.92,10.92,10.92,10.92,3.64-3.64-3.64-3.64-3.64-3.64,3.64-3.64,3.64-3.64h0ZM582.24,47.3h0s3.64-3.64,3.64-3.64l3.64,3.64,7.28,7.28-3.64,3.64-3.64,3.64,7.28,7.28-7.28,7.28h0s-3.64,3.64-3.64,3.64l-3.64-3.64-14.56-14.55,14.56-14.56h0ZM538.57,69.13l3.64,3.64,10.92-10.92-10.92-10.92-3.64,3.64,3.64,3.64,3.64,3.64-3.64,3.64-3.64,3.64h0ZM538.57,76.41l-7.28-7.28,7.28-7.28-7.28-7.28,7.28-7.28,3.64-3.64,3.64,3.64h0s10.92,10.92,10.92,10.92l3.64,3.64-14.56,14.55-3.64,3.64-3.64-3.64h0ZM560.41,32.74h0l3.64,3.64,3.64-3.64h0s3.64-3.64,3.64-3.64l7.28,7.28,3.64,3.64-3.64,3.64-14.56,14.56-14.56-14.56-3.64-3.64,3.64-3.64h0s7.28-7.28,7.28-7.28l3.64,3.64h0ZM556.77,36.38l-3.64,3.64,10.92,10.92,10.92-10.92-3.64-3.64-3.64,3.64-3.64,3.64h0l-3.64-3.64-3.64-3.64h0ZM582.24,40.02h0,0ZM571.32,87.33l3.64-3.64-10.92-10.92-10.92,10.92,3.64,3.64,3.64-3.64,3.64-3.64h0l3.64,3.64,3.64,3.64h0Z"/>
</svg>