<svg viewBox="0 0 473.07 123.73">  
  <path d="M327.51,61.86l3.64-3.64,32.75-32.75,3.64-3.64,3.64,3.64,14.55,14.55-10.91,10.92-3.64-3.64-3.64-3.64-10.92,10.92,3.64,3.64,3.64-3.64,3.64-3.64,7.28,7.27,14.55-14.56,3.64,3.64h0s10.92,10.92,10.92,10.92l3.64,3.64-36.39,36.39-3.64,3.64-3.64-3.64h0s-10.91-10.92-10.91-10.92h0s-3.64-3.64-3.64-3.64l7.28-7.27,3.64-3.64,3.64,3.64,3.64,3.64,10.91-10.91-3.64-3.64-7.28,7.28-3.64-3.64-3.64-3.64-14.56,14.55-18.19-18.19h0ZM3.64,80.06l3.64,3.64-3.64,3.64-3.64-3.64,3.64-3.64h0ZM14.56,76.42l3.64-3.64,10.92,10.92-10.92,10.92-3.64-3.64,3.64-3.64,3.64-3.64-7.27-7.27h0ZM18.19,65.5l-10.92,10.92,7.27,7.28-7.27,7.27,7.28,7.28,3.64,3.64,3.64-3.64,10.92-10.92h0s3.64-3.64,3.64-3.64l-18.2-18.19h0ZM3.64,43.67l3.64-3.64-3.64-3.64-3.64,3.64,3.64,3.64h0ZM14.56,47.31l3.64,3.64,10.92-10.92-10.92-10.92-3.64,3.64,7.27,7.28-7.27,7.28h0ZM14.56,54.59l-7.28-7.28,7.28-7.28-7.28-7.28,10.92-10.92,18.2,18.19-14.56,14.56-3.64,3.64-3.64-3.64h0ZM50.95,61.86l-3.64-3.64-3.64,3.64,3.64,3.64,3.64-3.64h0ZM40.03,80.06l-18.2-18.19,18.2-18.2,18.19,18.2-18.19,18.19h0ZM43.67,69.14l-7.27-7.28,7.27-7.28-3.64-3.64-10.92,10.92,10.92,10.92,3.64-3.64h0ZM43.67,120.09l-3.64-3.64-3.64,3.64,3.64,3.64,3.64-3.64h0ZM43.67,112.81h0s-3.64-3.64-3.64-3.64l-3.64,3.64h0s-3.64,3.64-3.64,3.64l-3.64-3.64-3.64-3.64-3.64-3.64,3.64-3.64h0s10.92-10.91,10.92-10.91h0s3.64-3.64,3.64-3.64l3.64,3.63h0s10.92,10.92,10.92,10.92h0s3.64,3.64,3.64,3.64l-3.64,3.64-3.64,3.64h0s-3.64,3.64-3.64,3.64l-3.64-3.64h0ZM47.31,109.17l3.64-3.64-10.92-10.92-10.92,10.92,3.64,3.64,7.28-7.28,7.28,7.28h0ZM80.06,120.09l3.64-3.64,3.64,3.64-3.64,3.64-3.64-3.64h0ZM80.06,112.81h0s3.64-3.64,3.64-3.64l3.64,3.64,3.64,3.64,3.64-3.64h0s7.28-7.28,7.28-7.28l-3.64-3.64h0s-10.92-10.91-10.92-10.91h0s-3.64-3.64-3.64-3.64l-3.64,3.63h0s-10.92,10.92-10.92,10.92h0s-3.64,3.64-3.64,3.64l3.64,3.64,3.64,3.64,3.64,3.64,3.64-3.64h0ZM76.42,109.17l-3.64-3.64,10.92-10.92,10.91,10.92-3.64,3.64-7.28-7.28-7.28,7.28h0ZM61.86,72.78l3.64,3.64-3.64,3.64-3.64-3.64,3.64-3.64h0ZM43.67,83.69l18.2,18.2,18.19-18.2-18.19-18.19-18.2,18.19h0ZM54.59,80.06l7.28,7.28,7.28-7.28,3.64,3.64-10.92,10.92-10.92-10.92,3.64-3.64h0ZM152.83,61.86l36.39-36.39,3.64-3.64,18.19,18.19-10.92,10.92-7.28-7.28-10.92,10.92,3.64,3.64,3.64-3.64,3.64-3.64,7.27,7.28,10.92-10.92,3.64-3.64,18.19,18.2-40.03,40.03-3.64-3.64h0s-10.92-10.92-10.92-10.92h0s-3.64-3.64-3.64-3.64l7.28-7.27,3.64-3.64,7.28,7.27,10.91-10.91-3.64-3.63-7.28,7.28-3.64-3.64-3.64-3.64-14.56,14.55-18.2-18.19h0ZM192.87,29.11l-32.75,32.75,10.92,10.92,10.91-10.92h0s-3.64-3.64-3.64-3.64l-3.64-3.64,3.64-3.64h0s10.92-10.92,10.92-10.92h0s3.64-3.64,3.64-3.64l3.64,3.64h0l3.64,3.64,3.64-3.64-10.92-10.91h0ZM192.87,58.23l-3.64,3.64,3.64,3.64,3.64-3.64-3.64-3.64h0ZM185.59,80.06l-3.64,3.64,10.92,10.91,32.75-32.75-10.92-10.92-10.92,10.92,3.64,3.64,3.64,3.64-18.19,18.2-7.28-7.28h0ZM218.34,61.86l-3.64-3.64-3.64,3.64,3.64,3.64,3.64-3.64h0ZM174.67,61.86l-3.64-3.64-3.64,3.64,3.64,3.64,3.64-3.64h0ZM236.53,72.78l-3.64,3.64,3.64,3.64,3.64-3.64-3.64-3.64h0ZM254.73,83.69l-18.19,18.2-18.19-18.2,18.19-18.19,18.19,18.19h0ZM243.81,80.06l-7.28,7.28-7.28-7.28-3.64,3.63,10.92,10.92,10.92-10.92-3.64-3.63h0ZM221.98,109.17l3.64-3.64-10.92-10.92-10.92,10.92,3.64,3.64,3.64-3.64,3.64-3.64h0l3.64,3.64,3.64,3.64h0ZM229.25,101.89h0s3.64,3.64,3.64,3.64l-10.92,10.91-3.64-3.64-3.64-3.64-3.64,3.64h0s-3.64,3.64-3.64,3.64l-3.64-3.64-3.64-3.64-3.64-3.64,3.64-3.64h0s10.92-10.91,10.92-10.91h0s3.64-3.64,3.64-3.64l3.64,3.63h0s10.92,10.92,10.92,10.92h0ZM218.34,120.09l-3.64-3.64-3.64,3.64,3.64,3.64,3.64-3.64h0ZM149.2,72.78l-3.64,3.64,3.64,3.64,3.64-3.64-3.64-3.64h0ZM167.39,83.69l-18.2,18.2-18.19-18.2,18.19-18.19,18.2,18.19h0ZM156.48,80.06l-7.28,7.28-7.27-7.28-3.64,3.63,10.91,10.92,10.92-10.92-3.64-3.63h0ZM134.64,109.17l3.64-3.64-10.92-10.92-10.92,10.92,3.64,3.64,7.28-7.28,7.28,7.28h0ZM141.92,101.89h0s3.64,3.64,3.64,3.64l-3.64,3.64-3.64,3.64-3.64,3.64-3.64-3.64-3.64-3.64-3.64,3.64-3.64,3.64-3.64-3.64-7.28-7.28,3.64-3.64h0s10.92-10.91,10.92-10.91h0s3.64-3.64,3.64-3.64l3.64,3.63h0s10.92,10.92,10.92,10.92h0ZM131,120.09l-3.64-3.64-3.64,3.64,3.64,3.64,3.64-3.64h0ZM178.31,109.17l3.64-3.64-10.91-10.92-10.92,10.92,3.64,3.64,7.28-7.28,7.28,7.28h0ZM185.59,101.89h0s3.64,3.64,3.64,3.64l-3.64,3.64-3.64,3.64-3.64,3.64-7.28-7.27-3.64,3.64-3.64,3.64-10.92-10.91,3.64-3.64,10.92-10.92,3.64-3.63,3.64,3.63h0s10.92,10.92,10.92,10.92h0ZM174.67,120.09l-3.64-3.64-3.64,3.64,3.64,3.64,3.64-3.64h0ZM251.09,109.17l-3.64-3.64,10.92-10.92,10.92,10.92-3.64,3.64-3.64-3.64-3.64-3.64h0l-3.64,3.64-3.64,3.64h0ZM243.81,101.89h0s-3.64,3.64-3.64,3.64l10.92,10.91,3.64-3.64,3.64-3.64,3.64,3.64h0s3.64,3.64,3.64,3.64l3.64-3.64,3.64-3.64,3.64-3.64-3.64-3.64h0s-10.92-10.91-10.92-10.91h0s-3.64-3.64-3.64-3.64l-3.64,3.63h0s-10.92,10.92-10.92,10.92h0ZM254.73,120.09l3.64-3.64,3.64,3.64-3.64,3.64-3.64-3.64h0ZM43.67,3.64l-3.64,3.64-3.64-3.64,3.64-3.64,3.64,3.64h0ZM43.67,10.92h0l-3.64,3.64-3.64-3.64h0l-3.64-3.64-10.92,10.91,3.64,3.64,10.92,10.92,3.64,3.64,3.64-3.64,10.92-10.92,3.64-3.64-3.64-3.64-3.64-3.64-3.64-3.64-3.64,3.64h0ZM47.31,14.56l3.64,3.64-10.92,10.92-10.92-10.92,3.64-3.64,7.28,7.28,7.28-7.28h0ZM123.73,3.64l3.64,3.64,3.64-3.64-3.64-3.64-3.64,3.64h0ZM120.09,14.56l-3.64,3.64,10.92,10.92,10.92-10.92-3.64-3.64-7.28,7.28-7.28-7.28h0ZM109.17,18.19l7.28-7.28,3.64-3.64,3.64,3.64,3.64,3.64,3.64-3.64,3.64-3.64,3.64,3.64,3.64,3.64,3.64,3.64-3.64,3.64h0l-10.92,10.92h0s-3.64,3.64-3.64,3.64l-3.64-3.64-14.56-14.56h0ZM167.39,3.64l3.64,3.64,3.64-3.64-3.64-3.64-3.64,3.64h0ZM167.39,10.92h0l3.64,3.64,3.64-3.64,3.64-3.64,3.64,3.64,3.64,3.64,3.64,3.64-3.64,3.64-10.92,10.92h0s-3.64,3.64-3.64,3.64l-3.64-3.64-14.56-14.56,7.28-7.28,3.64-3.64,3.64,3.64h0ZM163.75,14.56l-3.64,3.64,10.92,10.92,10.92-10.92-3.64-3.64-3.64,3.64-3.64,3.64-7.28-7.28h0ZM149.2,50.95l3.64-3.64-3.64-3.64-3.64,3.64,3.64,3.64h0ZM131,40.03l18.19-18.19,18.2,18.19-18.2,18.2-18.19-18.2h0ZM141.92,43.67l7.28-7.28,7.28,7.28,3.64-3.64-10.92-10.92-10.91,10.92,3.64,3.64h0ZM80.06,3.64l3.64,3.64,3.64-3.64-3.64-3.64-3.64,3.64h0ZM76.42,14.55l-3.64,3.64,10.92,10.92,10.92-10.92-3.64-3.64-3.64,3.64-3.64,3.64-3.64-3.64-3.64-3.64h0ZM69.14,21.83h0s-3.64-3.64-3.64-3.64l3.64-3.64,3.64-3.64,3.64-3.64,3.64,3.64,3.64,3.64,7.28-7.28,3.64,3.64,7.28,7.28-14.56,14.56h0s-3.64,3.64-3.64,3.64l-3.64-3.64h0s-10.92-10.92-10.92-10.92h0ZM61.86,50.95l3.64-3.64-3.64-3.64-3.64,3.64,3.64,3.64h0ZM43.67,40.03l18.2-18.19,18.19,18.19-18.19,18.2-18.2-18.2h0ZM54.59,43.67l7.28-7.28,7.28,7.28,3.64-3.64-10.92-10.92-10.92,10.92,3.64,3.64h0ZM145.56,61.86l-40.03,40.03-3.64-3.64h0l-10.92-10.92h0s-3.64-3.64-3.64-3.64l10.91-10.91,7.28,7.28,10.92-10.92-3.64-3.64-3.64,3.64-3.64,3.64-3.64-3.64h0s-3.64-3.64-3.64-3.64l-10.92,10.92-3.64,3.64-3.64-3.64-14.55-14.55,3.64-3.64,32.75-32.75,3.64-3.64,14.56,14.56,3.64,3.64-10.92,10.92-7.28-7.28-10.92,10.92,3.64,3.64,7.28-7.28,7.28,7.28,14.55-14.56,3.64,3.64,10.92,10.92,3.64,3.64h0ZM105.53,94.62l32.75-32.75-10.92-10.92-10.92,10.92h0s3.64,3.64,3.64,3.64h0s3.64,3.64,3.64,3.64l-18.19,18.2-7.28-7.28-3.64,3.64,10.92,10.92h0ZM105.53,65.5l3.64-3.64h0s-3.64-3.64-3.64-3.64l-3.64,3.64,3.64,3.64h0ZM112.81,43.67l3.64-3.64-10.92-10.92-32.75,32.75,10.92,10.92,10.92-10.91h0s-3.64-3.64-3.64-3.64l-3.64-3.64,3.64-3.64,10.92-10.92h0s3.64-3.64,3.64-3.64l7.28,7.28h0ZM80.06,61.86l3.64,3.64,3.64-3.64-3.64-3.64-3.64,3.64h0ZM123.73,61.86l3.64,3.64,3.64-3.64-3.64-3.64-3.64,3.64h0ZM469.43,43.67l-3.64-3.64,3.64-3.64,3.64,3.64-3.64,3.64h0ZM458.51,32.75l-3.64-3.64-10.92,10.91,10.92,10.92,3.64-3.64-7.27-7.28,7.27-7.28h0ZM454.87,21.83l3.64,3.64,7.28,7.28-7.28,7.28,7.28,7.28-7.28,7.28h0s-3.64,3.64-3.64,3.64l-3.64-3.64-14.56-14.56,18.2-18.19h0ZM469.43,80.06l-3.64,3.64,3.64,3.64,3.64-3.64-3.64-3.64h0ZM458.51,76.42l-3.64-3.64-10.91,10.92,10.91,10.91,3.64-3.64-3.64-3.64h0s-3.64-3.64-3.64-3.64l7.27-7.27h0ZM454.87,65.5l10.92,10.92-7.28,7.28,7.28,7.28-7.28,7.28-3.64,3.64-14.55-14.55h0s-3.64-3.64-3.64-3.64l18.2-18.19h0ZM422.12,61.86l3.64,3.64,3.64-3.64-3.64-3.64-3.64,3.64h0ZM433.04,43.67l18.19,18.2-18.19,18.19-18.2-18.19,18.2-18.2h0ZM429.4,54.59l7.27,7.28-7.27,7.28,3.64,3.64,10.91-10.91-10.91-10.92-3.64,3.64h0ZM429.4,3.64l3.64,3.64,3.64-3.64-3.64-3.64-3.64,3.64h0ZM429.4,10.92h0s3.64,3.64,3.64,3.64l3.64-3.64h0l3.64-3.64,7.28,7.28,3.64,3.64h0s-3.64,3.64-3.64,3.64l-14.55,14.56-3.64-3.64-10.92-10.92-3.64-3.64h0s3.64-3.64,3.64-3.64l7.28-7.28-3.64,3.64,3.64,3.64-3.64,3.64,10.92,10.92,10.92-10.92-3.64-3.64-7.27,7.28-7.28-7.28,3.64-3.64h0ZM425.76,7.28l3.64,3.64-3.64-3.64h0ZM393.01,3.64l-3.64,3.64-3.64-3.64,3.64-3.64,3.64,3.64h0ZM396.65,14.55l3.64,3.64-10.92,10.92-10.92-10.92,3.64-3.64,3.64,3.64,3.64,3.64h0l3.64-3.64,3.64-3.64h0ZM403.93,14.56l-3.64-3.64-3.64-3.64-7.28,7.27-3.64-3.64-3.64-3.64-10.92,10.91h0,0s14.56,14.56,14.56,14.56l3.64,3.64,3.64-3.64h0s10.92-10.92,10.92-10.92l3.64-3.64h0s-3.64-3.64-3.64-3.64h0ZM411.21,50.95l-3.64-3.64,3.64-3.64,3.64,3.64-3.64,3.64h0ZM429.4,40.03l-18.2-18.19-18.19,18.19,18.19,18.2,18.2-18.2h0ZM418.48,43.67l-7.28-7.28-7.28,7.28-3.64-3.64,10.92-10.92,10.92,10.92-3.64,3.64h0ZM320.23,61.86l-36.39,36.39h0s-3.64,3.64-3.64,3.64l-14.55-14.55-3.64-3.64,10.92-10.91,7.28,7.27,10.91-10.91-3.64-3.64-3.64,3.64h0s-3.64,3.64-3.64,3.64l-3.64-3.64-3.64-3.64-14.56,14.56-18.19-18.19,40.03-40.03,3.64,3.64,14.55,14.55-10.92,10.92-7.28-7.28-10.92,10.92,3.64,3.64h0l7.27-7.28,3.64,3.64,3.64,3.64,10.92-10.92,3.64-3.64,18.2,18.2h0ZM280.2,94.61l32.75-32.75-10.92-10.92-10.92,10.92h0s3.64,3.64,3.64,3.64h0s3.64,3.64,3.64,3.64l-18.2,18.2-7.28-7.28-3.64,3.64,10.91,10.91h0ZM280.2,65.5l3.64-3.64-3.64-3.64-3.64,3.64,3.64,3.64h0ZM287.48,43.67l3.64-3.64-10.92-10.91-32.75,32.75,10.92,10.92,10.92-10.92h0s-7.28-7.28-7.28-7.28l14.56-14.56,3.64-3.64,3.64,3.64h0s3.64,3.64,3.64,3.64h0ZM254.73,61.86l3.64,3.64,3.64-3.64-3.64-3.64-3.64,3.64h0ZM298.4,61.86l3.64,3.64,3.64-3.64-3.64-3.64-3.64,3.64h0ZM236.53,50.95l3.64-3.64-3.64-3.64-3.64,3.64,3.64,3.64h0ZM218.34,40.03l18.19-18.19,18.19,18.19-18.19,18.2-18.19-18.2h0ZM229.26,43.67l7.28-7.28,7.28,7.28,3.64-3.64-10.92-10.92-10.92,10.92,3.64,3.64h0ZM251.09,14.55l-3.64,3.64,10.92,10.92,10.92-10.92-3.64-3.64-7.28,7.28-7.27-7.28h0ZM240.17,18.19l10.92-10.91,3.64,3.64,3.64,3.64,3.64-3.64h0s3.64-3.64,3.64-3.64l3.64,3.64,3.64,3.64,3.64,3.64-3.64,3.64h0l-10.92,10.92h0s-3.64,3.64-3.64,3.64l-3.64-3.64-14.56-14.56h0ZM254.73,3.64l3.64,3.64,3.64-3.64-3.64-3.64-3.64,3.64h0ZM323.87,50.95l3.64-3.64-3.64-3.64-3.64,3.64,3.64,3.64h0ZM305.67,40.03l18.2-18.19,18.19,18.19-18.19,18.2-18.2-18.2h0ZM316.59,43.67l7.28-7.28,7.27,7.28,3.64-3.64-10.91-10.92-10.92,10.92,3.64,3.64h0ZM342.07,10.92h0l3.64,3.64,3.64-3.64,3.64-3.64,3.64,3.64,3.64,3.64,3.64,3.64-3.64,3.64-10.92,10.92h0s-3.64,3.64-3.64,3.64l-3.64-3.64-10.92-10.92-3.64-3.64,3.64-3.64,3.64-3.64,3.64-3.64,3.64,3.64h0ZM338.43,14.56l-3.64,3.64,10.92,10.92,10.92-10.92-3.64-3.64-3.64,3.64-3.64,3.64-7.28-7.28h0ZM342.07,3.64l3.64,3.64,3.64-3.64-3.64-3.64-3.64,3.64h0ZM298.4,10.92h0l3.64,3.64,3.64-3.64,3.64-3.64,3.64,3.64,7.28,7.28-14.56,14.56-3.64,3.64-3.64-3.64h0s-10.92-10.92-10.92-10.92l-3.64-3.64,10.92-10.91,3.64,3.64h0ZM294.76,14.55l-3.64,3.64,10.92,10.92,10.92-10.92-3.64-3.64-7.28,7.28-3.64-3.64-3.64-3.64h0ZM298.4,3.64l3.64,3.64,3.64-3.64-3.64-3.64-3.64,3.64h0ZM221.98,14.55l3.64,3.64-10.92,10.92-10.92-10.92,3.64-3.64,7.28,7.28,3.64-3.64,3.64-3.64h0ZM229.25,21.83h0s3.64-3.64,3.64-3.64l-3.64-3.64-7.28-7.28-3.64,3.64-3.64,3.64-3.64-3.64h0s-3.64-3.64-3.64-3.64l-3.64,3.64-3.64,3.64-3.64,3.64,3.64,3.64,10.92,10.92,3.64,3.64,3.64-3.64h0s10.92-10.92,10.92-10.92h0ZM218.34,3.64l-3.64,3.64-3.64-3.64,3.64-3.64,3.64,3.64h0ZM429.4,120.09l3.64-3.64,3.64,3.64-3.64,3.64-3.64-3.64h0ZM429.4,112.81h0s3.64-3.64,3.64-3.64l3.64,3.64h0l3.64,3.64,10.92-10.91-3.64-3.64h0s-10.92-10.92-10.92-10.92l-3.64-3.63-3.64,3.63h0s-10.92,10.92-10.92,10.92h0s-3.64,3.64-3.64,3.64l10.92,10.91,3.64-3.64h0ZM425.76,109.17l-3.64-3.64,10.92-10.92,10.92,10.92-3.64,3.64-7.27-7.28-7.28,7.28h0ZM349.34,120.09l-3.64-3.64-3.64,3.64,3.64,3.64,3.64-3.64h0ZM349.34,112.81h0s-3.64-3.64-3.64-3.64l-3.64,3.64-3.64,3.64-3.64-3.64-3.64-3.64-3.64-3.64,3.64-3.64h0s10.92-10.91,10.92-10.91h0s3.64-3.64,3.64-3.64l3.64,3.63h0s10.92,10.92,10.92,10.92h0s3.64,3.64,3.64,3.64l-3.64,3.64-3.64,3.64-3.64,3.64-3.64-3.64h0ZM352.98,109.17l3.64-3.64-10.92-10.92-10.92,10.92,3.64,3.64,7.28-7.28,7.28,7.28h0ZM305.67,120.09l-3.64-3.64-3.64,3.64,3.64,3.64,3.64-3.64h0ZM309.31,109.17l3.64-3.64-10.91-10.92-10.92,10.92,3.64,3.64,3.64-3.64,3.64-3.64,7.27,7.28h0ZM320.23,105.53l-7.28,7.28-3.64,3.64-7.28-7.27-3.64,3.64-3.64,3.64-3.64-3.64-3.64-3.64-3.64-3.64,3.64-3.64h0s10.92-10.91,10.92-10.91h0s3.64-3.64,3.64-3.64l3.63,3.63,10.92,10.92,3.64,3.64h0ZM323.87,72.78l-3.64,3.64,3.64,3.64,3.64-3.64-3.64-3.64h0ZM342.07,83.69l-18.19,18.2-18.2-18.2,18.2-18.19,18.19,18.19h0ZM331.15,80.06l-7.27,7.28-7.28-7.28-3.64,3.63,10.92,10.92,10.91-10.92-3.64-3.63h0ZM393.01,120.09l-3.64-3.64-3.64,3.64,3.64,3.64,3.64-3.64h0ZM396.65,109.17l3.64-3.64-10.92-10.92-10.91,10.92,3.64,3.64,3.64-3.64,3.64-3.64h0l3.64,3.64,3.64,3.64h0ZM403.93,101.89h0s3.64,3.64,3.64,3.64l-3.64,3.64-3.64,3.64-3.64,3.64-7.28-7.27-3.64,3.64-3.64,3.64-10.92-10.91,3.64-3.64,10.92-10.91h0s3.64-3.64,3.64-3.64l3.64,3.63h0s10.92,10.92,10.92,10.92h0ZM367.54,29.11l-32.75,32.75,10.92,10.92,10.92-10.92h0s-3.64-3.64-3.64-3.64l-3.64-3.64,14.56-14.56h0s3.64-3.64,3.64-3.64l7.28,7.28,3.64-3.64-10.92-10.91h0ZM367.54,58.23l-3.64,3.64,3.64,3.64,3.64-3.64-3.64-3.64h0ZM360.26,72.78h0s0,0,0,0h0ZM360.26,80.06l-3.64,3.64,10.91,10.91,32.75-32.75-10.92-10.92-10.92,10.92h0s3.63,3.64,3.63,3.64l3.64,3.64-18.19,18.2-7.28-7.28h0ZM393.01,61.86l-3.64-3.64-3.64,3.64,3.64,3.64,3.64-3.64h0ZM349.34,61.86l-3.64-3.64-3.64,3.64,3.64,3.64,3.64-3.64h0ZM411.21,72.78l-3.64,3.64,3.64,3.64,3.64-3.64-3.64-3.64h0ZM429.4,83.69l-18.2,18.2-18.19-18.2,18.19-18.19,18.2,18.19h0ZM418.48,80.06l-7.28,7.28-7.28-7.28-3.64,3.63,10.92,10.92,10.92-10.92-3.64-3.63h0Z"/>
</svg>