<svg viewBox="0 0 705.11 56.61">  
  <path d="M41.17,25.73h5.15v-5.15h-5.15v5.15h0ZM705.1,20.58h-5.15v5.15h5.15v-5.15h0ZM705.1,30.88h-5.15v5.15h5.15v-5.15h0ZM705.1,41.17h-5.15v5.15h5.15v-5.15h0ZM705.1,51.46h-5.15v5.15h5.15v-5.15h0ZM5.15,20.58H0v5.15h5.15v-5.15h0ZM5.15,30.88H0v5.15h5.15v-5.15h0ZM5.15,41.17H0v5.15h5.15v-5.15h0ZM674.22,10.29h-10.29v5.15h5.15v5.15h5.15c0-3.43,0-6.86,0-10.29h0ZM571.29,10.29h-10.29v5.15h5.15v5.15h5.15c0-3.43,0-6.86,0-10.29h0ZM468.35,10.29h-10.29v5.15h5.15v5.15h5.15c0-3.43,0-6.86,0-10.29h0ZM365.42,10.29h-10.29v5.15h5.15v5.15h5.15c0-3.43,0-6.86,0-10.29h0ZM648.49,10.29h10.29v5.15h-5.15v5.15h-5.15c0-3.43,0-6.86,0-10.29h0ZM545.55,10.29h10.29v5.15h-5.15v5.15h-5.15c0-3.43,0-6.86,0-10.29h0ZM442.62,10.29h10.29v5.15h-5.15v5.15h-5.15c0-3.43,0-6.86,0-10.29h0ZM339.68,10.29h10.29v5.15h-5.15v5.15h-5.15c0-3.43,0-6.86,0-10.29h0ZM674.22,0h-5.15v5.15h5.15V0h0ZM571.29,0h-5.15v5.15h5.15V0h0ZM468.35,0h-5.15v5.15h5.15V0h0ZM365.42,0h-5.15v5.15h5.15V0h0ZM663.93,0h-5.15v5.15h5.15V0h0ZM560.99,0h-5.15v5.15h5.15V0h0ZM458.06,0h-5.15v5.15h5.15V0h0ZM355.12,0h-5.15v5.15h5.15V0h0ZM653.64,0h-5.15v5.15h5.15V0h0ZM550.7,0h-5.15v5.15h5.15V0h0ZM447.77,0h-5.15v5.15h5.15V0h0ZM344.83,0h-5.15v5.15h5.15V0h0ZM663.93,56.61v-5.15h-5.15v5.15h5.15ZM560.99,56.61v-5.15h-5.15v5.15h5.15ZM458.06,56.61v-5.15h-5.15v5.15h5.15ZM355.12,56.61v-5.15h-5.15v5.15h5.15ZM663.93,46.31v-5.15h-5.15v5.15h5.15ZM560.99,46.31v-5.15h-5.15v5.15h5.15ZM458.06,46.31v-5.15h-5.15v5.15h5.15ZM355.12,46.31v-5.15h-5.15v5.15h5.15ZM612.46,15.44v-5.15h-5.15v5.15h5.15ZM509.53,15.44v-5.15h-5.15v5.15h5.15ZM406.59,15.44v-5.15h-5.15v5.15h5.15ZM612.46,5.15V0h-5.15v5.15h5.15ZM509.53,5.15V0h-5.15v5.15h5.15ZM406.59,5.15V0h-5.15v5.15h5.15ZM612.47,51.46h-5.15v5.15h5.15v-5.15h0ZM509.53,51.46h-5.15v5.15h5.15v-5.15h0ZM406.6,51.46h-5.15v5.15h5.15v-5.15h0ZM602.18,51.46h-5.15v5.15h5.15v-5.15h0ZM499.24,51.46h-5.15v5.15h5.15v-5.15h0ZM396.31,51.46h-5.15v5.15h5.15v-5.15h0ZM597.03,46.31h10.29v-5.15h-5.15v-5.15h-5.15c0,3.43,0,6.86,0,10.29h0ZM494.09,46.31h10.29v-5.15h-5.15v-5.15h-5.15c0,3.43,0,6.86,0,10.29h0ZM391.16,46.31h10.29v-5.15h-5.15v-5.15h-5.15c0,3.43,0,6.86,0,10.29h0ZM694.81,15.44c0,3.44,0,6.86,0,10.3h-15.44V0h25.73c0,5.15,0,10.29,0,15.44-3.44,0-6.86,0-10.3,0h0ZM699.96,10.29v-5.15s-15.44,0-15.44,0v15.44h5.15s0-10.29,0-10.29h10.29ZM597.03,20.58h10.29v5.15h-5.15s0,5.14,0,5.14h-5.15s0-5.14,0-5.14h0v-5.15h0ZM591.87,15.44c0,3.44,0,6.86,0,10.3h-15.44V0h25.73c0,5.15,0,10.29,0,15.44-3.44,0-6.86,0-10.3,0h0ZM597.02,10.29v-5.15s-15.44,0-15.44,0v15.44h5.15s0-10.29,0-10.29h10.29ZM494.09,20.58h10.29v5.15h-5.15s0,5.14,0,5.14h-5.15s0-5.14,0-5.14h0v-5.15h0ZM488.94,15.44c0,3.44,0,6.86,0,10.3h-15.44V0h25.73c0,5.15,0,10.29,0,15.44-3.44,0-6.86,0-10.3,0h0ZM494.09,10.29v-5.15s-15.44,0-15.44,0v15.44h5.15s0-10.29,0-10.29h10.29ZM391.16,20.58h10.29v5.15h-5.15s0,5.14,0,5.14h-5.15s0-5.14,0-5.14h0v-5.15h0ZM386,15.44c0,3.44,0,6.86,0,10.3h-15.44V0h25.73c0,5.15,0,10.29,0,15.44-3.44,0-6.86,0-10.3,0h0ZM391.15,10.29v-5.15s-15.44,0-15.44,0v15.44h5.15s0-10.29,0-10.29h10.29ZM674.22,36.02h-10.29v-5.15h5.15s0-5.14,0-5.14h5.15s0,5.14,0,5.14h0v5.15h0ZM679.38,41.17c0-3.44,0-6.86,0-10.3h15.44v25.73h-25.73c0-5.15,0-10.29,0-15.44,3.44,0,6.86,0,10.3,0h0ZM674.23,46.31v5.15s15.44,0,15.44,0v-15.44h-5.15s0,10.29,0,10.29h-10.29ZM571.29,36.02h-10.29v-5.15h5.15s0-5.14,0-5.14h5.15s0,5.14,0,5.14h0v5.15h0ZM576.44,41.17c0-3.44,0-6.86,0-10.3h15.44v25.73h-25.73c0-5.15,0-10.29,0-15.44,3.44,0,6.86,0,10.3,0h0ZM571.29,46.31v5.15s15.44,0,15.44,0v-15.44h-5.15s0,10.29,0,10.29h-10.29ZM468.35,36.02h-10.29v-5.15h5.15s0-5.14,0-5.14h5.15s0,5.14,0,5.14h0v5.15h0ZM473.51,41.17c0-3.44,0-6.86,0-10.3h15.44v25.73h-25.73c0-5.15,0-10.29,0-15.44,3.44,0,6.86,0,10.3,0h0ZM468.36,46.31v5.15s15.44,0,15.44,0v-15.44h-5.15s0,10.29,0,10.29h-10.29ZM365.42,36.02h-10.29v-5.15h5.15s0-5.14,0-5.14h5.15s0,5.14,0,5.14h0v5.15h0ZM370.57,41.17c0-3.44,0-6.86,0-10.3h15.44v25.73h-25.73c0-5.15,0-10.29,0-15.44,3.44,0,6.86,0,10.3,0h0ZM365.42,46.31v5.15s15.44,0,15.44,0v-15.44h-5.15s0,10.29,0,10.29h-10.29ZM622.76,51.46h-5.15v5.15h5.15v-5.15h0ZM519.83,51.46h-5.15v5.15h5.15v-5.15h0ZM416.89,51.46h-5.15v5.15h5.15v-5.15h0ZM313.95,51.46h-5.15v5.15h5.15v-5.15h0ZM622.77,46.31h-10.29v-5.15h5.15v-5.15h5.15c0,3.43,0,6.86,0,10.29h0ZM519.83,46.31h-10.29v-5.15h5.15v-5.15h5.15c0,3.43,0,6.86,0,10.29h0ZM416.89,46.31h-10.29v-5.15h5.15v-5.15h5.15c0,3.43,0,6.86,0,10.29h0ZM313.96,46.31h-10.29v-5.15h5.15v-5.15h5.15c0,3.43,0,6.86,0,10.29h0ZM612.47,30.88h-5.15v5.15h5.15v-5.15h0ZM622.75,20.58h-10.29v5.15h5.15s0,5.14,0,5.14h5.15s0-5.14,0-5.14h0v-5.15h0ZM627.91,15.44c0,3.44,0,6.86,0,10.3h15.44V0h-25.73c0,5.15,0,10.29,0,15.44,3.44,0,6.86,0,10.3,0h0ZM622.76,10.29v-5.15s15.44,0,15.44,0v15.44h-5.15s0-10.29,0-10.29h-10.29ZM509.53,30.88h-5.15v5.15h5.15v-5.15h0ZM519.82,20.58h-10.29v5.15h5.15s0,5.14,0,5.14h5.15s0-5.14,0-5.14h0v-5.15h0ZM524.97,15.44c0,3.44,0,6.86,0,10.3h15.44V0h-25.73c0,5.15,0,10.29,0,15.44,3.44,0,6.86,0,10.3,0h0ZM519.83,10.29v-5.15s15.44,0,15.44,0v15.44h-5.15s0-10.29,0-10.29h-10.29ZM406.6,30.88h-5.15v5.15h5.15v-5.15h0ZM416.88,20.58h-10.29v5.15h5.15s0,5.14,0,5.14h5.15s0-5.14,0-5.14h0v-5.15h0ZM422.04,15.44c0,3.44,0,6.86,0,10.3h15.44V0h-25.73c0,5.15,0,10.29,0,15.44,3.44,0,6.86,0,10.3,0h0ZM416.89,10.29v-5.15s15.44,0,15.44,0v15.44h-5.15s0-10.29,0-10.29h-10.29ZM313.95,20.58h-10.29v5.15h5.15s0,5.14,0,5.14h5.15s0-5.14,0-5.14h0v-5.15h0ZM319.1,15.44c0,3.44,0,6.86,0,10.3h15.44V0h-25.73c0,5.15,0,10.29,0,15.44,3.44,0,6.86,0,10.3,0h0ZM313.95,10.29v-5.15s15.44,0,15.44,0v15.44h-5.15s0-10.29,0-10.29h-10.29ZM658.79,25.73h5.15v-5.15h-5.15v5.15h0ZM648.5,36.02h10.29v-5.15h-5.15s0-5.14,0-5.14h-5.15s0,5.14,0,5.14h0v5.15h0ZM643.34,41.17c0-3.44,0-6.86,0-10.3h-15.44v25.73h25.73c0-5.15,0-10.29,0-15.44-3.44,0-6.86,0-10.3,0h0ZM648.49,46.31v5.15s-15.44,0-15.44,0v-15.44h5.15s0,10.29,0,10.29h10.29ZM555.85,25.73h5.15v-5.15h-5.15v5.15h0ZM545.56,36.02h10.29v-5.15h-5.15s0-5.14,0-5.14h-5.15s0,5.14,0,5.14h0v5.15h0ZM540.41,41.17c0-3.44,0-6.86,0-10.3h-15.44v25.73h25.73c0-5.15,0-10.29,0-15.44-3.44,0-6.86,0-10.3,0h0ZM545.56,46.31v5.15s-15.44,0-15.44,0v-15.44h5.15s0,10.29,0,10.29h10.29ZM452.91,25.73h5.15v-5.15h-5.15v5.15h0ZM442.63,36.02h10.29v-5.15h-5.15s0-5.14,0-5.14h-5.15s0,5.14,0,5.14h0v5.15h0ZM437.47,41.17c0-3.44,0-6.86,0-10.3h-15.44v25.73h25.73c0-5.15,0-10.29,0-15.44-3.44,0-6.86,0-10.3,0h0ZM442.62,46.31v5.15s-15.44,0-15.44,0v-15.44h5.15s0,10.29,0,10.29h10.29ZM349.98,25.73h5.15v-5.15h-5.15v5.15h0ZM339.69,36.02h10.29v-5.15h-5.15s0-5.14,0-5.14h-5.15s0,5.14,0,5.14h0v5.15h0ZM334.54,41.17c0-3.44,0-6.86,0-10.3h-15.44v25.73h25.73c0-5.15,0-10.29,0-15.44-3.44,0-6.86,0-10.3,0h0ZM339.68,46.31v5.15s-15.44,0-15.44,0v-15.44h5.15s0,10.29,0,10.29h10.29ZM262.48,10.29h-10.29v5.15h5.15v5.15h5.15c0-3.43,0-6.86,0-10.29h0ZM159.55,10.29h-10.29v5.15h5.15v5.15h5.15c0-3.43,0-6.86,0-10.29h0ZM236.75,10.29h10.29v5.15h-5.15v5.15h-5.15c0-3.43,0-6.86,0-10.29h0ZM133.81,10.29h10.29v5.15h-5.15v5.15h-5.15c0-3.43,0-6.86,0-10.29h0ZM262.48,0h-5.15v5.15h5.15V0h0ZM159.54,0h-5.15v5.15h5.15V0h0ZM252.19,0h-5.15v5.15h5.15V0h0ZM149.25,0h-5.15v5.15h5.15V0h0ZM241.9,0h-5.15v5.15h5.15V0h0ZM138.96,0h-5.15v5.15h5.15V0h0ZM252.19,56.61v-5.15h-5.15v5.15h5.15ZM149.25,56.61v-5.15h-5.15v5.15h5.15ZM252.19,46.31v-5.15h-5.15v5.15h5.15ZM149.25,46.31v-5.15h-5.15v5.15h5.15ZM303.66,15.44v-5.15h-5.15v5.15h5.15ZM200.72,15.44v-5.15h-5.15v5.15h5.15ZM303.66,5.15V0h-5.15v5.15h5.15ZM200.72,5.15V0h-5.15v5.15h5.15ZM303.66,51.46h-5.15v5.15h5.15v-5.15h0ZM200.73,51.46h-5.15v5.15h5.15v-5.15h0ZM293.37,51.46h-5.15v5.15h5.15v-5.15h0ZM190.43,51.46h-5.15v5.15h5.15v-5.15h0ZM288.22,46.31h10.29v-5.15h-5.15v-5.15h-5.15c0,3.43,0,6.86,0,10.29h0ZM185.29,46.31h10.29v-5.15h-5.15v-5.15h-5.15c0,3.43,0,6.86,0,10.29h0ZM298.51,30.88h5.15v5.15h-5.15v-5.15h0ZM288.22,20.58h10.29v5.15h-5.15s0,5.14,0,5.14h-5.15s0-5.14,0-5.14h0v-5.15h0ZM283.07,15.44c0,3.44,0,6.86,0,10.3h-15.44V0h25.73c0,5.15,0,10.29,0,15.44-3.44,0-6.86,0-10.3,0h0ZM288.22,10.29v-5.15s-15.44,0-15.44,0v15.44h5.15s0-10.29,0-10.29h10.29ZM185.29,20.58h10.29v5.15h-5.15s0,5.14,0,5.14h-5.15s0-5.14,0-5.14h0v-5.15h0ZM180.13,15.44c0,3.44,0,6.86,0,10.3h-15.44V0h25.73c0,5.15,0,10.29,0,15.44-3.44,0-6.86,0-10.3,0h0ZM185.28,10.29v-5.15s-15.44,0-15.44,0v15.44h5.15s0-10.29,0-10.29h10.29ZM262.48,36.02h-10.29v-5.15h5.15s0-5.14,0-5.14h5.15s0,5.14,0,5.14h0v5.15h0ZM267.64,41.17c0-3.44,0-6.86,0-10.3h15.44v25.73h-25.73c0-5.15,0-10.29,0-15.44,3.44,0,6.86,0,10.3,0h0ZM262.49,46.31v5.15s15.44,0,15.44,0v-15.44h-5.15s0,10.29,0,10.29h-10.29ZM159.54,36.02h-10.29v-5.15h5.15s0-5.14,0-5.14h5.15s0,5.14,0,5.14h0v5.15h0ZM164.7,41.17c0-3.44,0-6.86,0-10.3h15.44v25.73h-25.73c0-5.15,0-10.29,0-15.44,3.44,0,6.86,0,10.3,0h0ZM159.55,46.31v5.15s15.44,0,15.44,0v-15.44h-5.15s0,10.29,0,10.29h-10.29ZM211.02,51.46h-5.15v5.15h5.15v-5.15h0ZM108.08,51.46h-5.15v5.15h5.15v-5.15h0ZM211.02,46.31h-10.29v-5.15h5.15v-5.15h5.15c0,3.43,0,6.86,0,10.29h0ZM108.09,46.31h-10.29v-5.15h5.15v-5.15h5.15c0,3.43,0,6.86,0,10.29h0ZM200.72,30.88h-5.15v5.15h5.15v-5.15h0ZM211.01,20.58h-10.29v5.15h5.15s0,5.14,0,5.14h5.15s0-5.14,0-5.14h0v-5.15h0ZM216.17,15.44c0,3.44,0,6.86,0,10.3h15.44V0h-25.73c0,5.15,0,10.29,0,15.44,3.44,0,6.86,0,10.3,0h0ZM211.02,10.29v-5.15s15.44,0,15.44,0v15.44h-5.15s0-10.29,0-10.29h-10.29ZM108.08,20.58h-10.29v5.15h5.15s0,5.14,0,5.14h5.15s0-5.14,0-5.14h0v-5.15h0ZM113.23,15.44c0,3.44,0,6.86,0,10.3h15.44V0h-25.73c0,5.15,0,10.29,0,15.44,3.44,0,6.86,0,10.3,0h0ZM108.08,10.29v-5.15s15.44,0,15.44,0v15.44h-5.15s0-10.29,0-10.29h-10.29ZM247.04,25.73h5.15v-5.15h-5.15v5.15h0ZM236.76,36.02h10.29v-5.15h-5.15s0-5.14,0-5.14h-5.15s0,5.14,0,5.14h0v5.15h0ZM231.6,41.17c0-3.44,0-6.86,0-10.3h-15.44v25.73h25.73c0-5.15,0-10.29,0-15.44-3.44,0-6.86,0-10.3,0h0ZM236.75,46.31v5.15s-15.44,0-15.44,0v-15.44h5.15s0,10.29,0,10.29h10.29ZM144.11,25.73h5.15v-5.15h-5.15v5.15h0ZM133.82,36.02h10.29v-5.15h-5.15s0-5.14,0-5.14h-5.15s0,5.14,0,5.14h0v5.15h0ZM128.67,41.17c0-3.44,0-6.86,0-10.3h-15.44v25.73h25.73c0-5.15,0-10.29,0-15.44-3.44,0-6.86,0-10.3,0h0ZM133.81,46.31v5.15s-15.44,0-15.44,0v-15.44h5.15s0,10.29,0,10.29h10.29ZM56.61,10.29h-10.29v5.15h5.15v5.15h5.15c0-3.43,0-6.86,0-10.29h0ZM30.88,10.29h10.29v5.15h-5.15v5.15h-5.15c0-3.43,0-6.86,0-10.29h0ZM56.61,0h-5.15v5.15h5.15V0h0ZM46.32,0h-5.15v5.15h5.15V0h0ZM36.02,0h-5.15v5.15h5.15V0h0ZM46.32,56.61v-5.15h-5.15v5.15h5.15ZM46.32,46.31v-5.15h-5.15v5.15h5.15ZM97.78,15.44v-5.15h-5.15v5.15h5.15ZM97.78,5.15V0h-5.15v5.15h5.15ZM97.79,51.46h-5.15v5.15h5.15v-5.15h0ZM87.5,51.46h-5.15v5.15h5.15v-5.15h0ZM82.35,46.31h10.29v-5.15h-5.15v-5.15h-5.15c0,3.43,0,6.86,0,10.29h0ZM92.64,30.88h5.15v5.15h-5.15v-5.15h0ZM82.35,20.58h10.29v5.15h-5.15s0,5.14,0,5.14h-5.15s0-5.14,0-5.14h0v-5.15h0ZM77.2,15.44c0,3.44,0,6.86,0,10.3h-15.44V0h25.73c0,5.15,0,10.29,0,15.44-3.44,0-6.86,0-10.3,0h0ZM82.35,10.29v-5.15s-15.44,0-15.44,0v15.44h5.15s0-10.29,0-10.29h10.29ZM56.61,36.02h-10.29v-5.15h5.15s0-5.14,0-5.14h5.15s0,5.14,0,5.14h0v5.15h0ZM61.76,41.17c0-3.44,0-6.86,0-10.3h15.44v25.73h-25.73c0-5.15,0-10.29,0-15.44,3.44,0,6.86,0,10.3,0h0ZM56.62,46.31v5.15s15.44,0,15.44,0v-15.44h-5.15s0,10.29,0,10.29h-10.29ZM5.15,51.46H0v5.15h5.15v-5.15h0ZM10.3,15.44c0,3.44,0,6.86,0,10.3h15.44V0H0c0,5.15,0,10.29,0,15.44,3.44,0,6.86,0,10.3,0h0ZM5.15,10.29v-5.15s15.44,0,15.44,0v15.44h-5.15s0-10.29,0-10.29H5.15ZM30.89,36.02h10.29v-5.15h-5.15s0-5.14,0-5.14h-5.15s0,5.14,0,5.14h0v5.15h0ZM25.73,41.17c0-3.44,0-6.86,0-10.3h-15.44v25.73h25.73c0-5.15,0-10.29,0-15.44-3.44,0-6.86,0-10.3,0h0ZM30.88,46.31v5.15s-15.44,0-15.44,0v-15.44h5.15s0,10.29,0,10.29h10.29Z"/>
</svg>