<svg viewBox="0 0 24 24">
    <path d="M21.3,4.2c0-.8-.3-1.2-.6-1.5s-.7-.5-1.5-.6c-.8,0-1.9,0-3.5,0h-1.1c-1.6,0-2.7,0-3.5,0-.8.1-1.2.3-1.5.6-.3.3-.5.7-.6,1.5s0,1.9,0,3.5-.4.8-.8.8-.8-.4-.8-.8c0-1.5,0-2.7.1-3.7h0c-2.1,0-3.3,0-4,.7-.8.8-.8,2.1-.8,4.6v5.4c0,2.5,0,3.8.8,4.6.7.7,1.9.8,4,.8h0c-.1-1-.1-2.2-.1-3.7s.4-.9.8-.9.8.4.8.8c0,1.6,0,2.6,0,3.5,0,.8.3,1.2.6,1.5.3.3.7.5,1.5.6.8,0,1.9,0,3.5,0h1.1c1.6,0,2.7,0,3.5,0,.8-.1,1.2-.3,1.5-.6s.5-.7.6-1.5c.1-.8.1-1.9.1-3.5V7.7c0-1.6,0-2.6-.1-3.5ZM16.2,12.6l-2.7,2.7h0c-.4.2-.9.2-1.2,0s-.3-.8,0-1.1l1.3-1.3h-7.9c-.4,0-.8-.4-.8-.8s.3-.8.8-.8h7.9l-1.3-1.3c-.3-.3-.3-.8,0-1.1.4-.3.9-.3,1.2,0l2.7,2.7c.3.3.3.8,0,1.1Z"/>
</svg>