<svg viewBox="0 0 24 24"> 
  <path d="M2.6,9.3v5.4c0,2.5,0,3.8.8,4.6.7.7,1.9.8,4,.8-.1-.7-.1-1.6-.1-2.7,0-.4.4-.8.8-.8.5,0,.8.4.8.8,0,1.2,0,2,.2,2.7.1.6.3,1,.6,1.2.3.3.7.5,1.5.6.8.1,1.9.1,3.5.1h1.1c1.6,0,2.7,0,3.5-.1.8-.1,1.2-.3,1.5-.6.3-.3.5-.7.6-1.5.1-.8.1-1.9.1-3.5V7.7c0-1.6,0-2.6-.1-3.5-.1-.8-.3-1.2-.6-1.5-.3-.3-.7-.5-1.5-.6-.8-.1-1.9-.1-3.5-.1h-1.1c-1.6,0-2.7,0-3.5.1-.8.1-1.2.3-1.5.6-.3.3-.4.6-.6,1.2-.1.6-.1,1.5-.2,2.7,0,.4-.4.8-.8.8-.5,0-.8-.4-.8-.8,0-1.1,0-1.9.1-2.7-2.1,0-3.3,0-4,.8-.8.8-.8,2.1-.8,4.6ZM5.3,12.6c-.3-.3-.3-.8,0-1.1l2.2-2.2c.3-.3.8-.3,1.2,0,.3.3.3.8,0,1.1l-.8.8h7.9c.5,0,.8.4.8.8s-.4.8-.8.8h-7.9l.8.8c.3.3.3.8,0,1.1-.3.3-.8.3-1.2,0l-2.2-2.2Z"/>
</svg>