<svg viewBox="0 0 109.18 109.18">  
  <path d="M54.59,101.9l3.64,3.64-3.64,3.64-3.64-3.64,3.64-3.64h0ZM101.9,54.59l3.64-3.64,3.64,3.64-3.64,3.64-3.64-3.64h0ZM87.35,54.59l7.28-7.28,3.64,3.64-3.64,3.64,3.63,3.64-3.64,3.64-3.64-3.64h0s-3.64-3.64-3.64-3.64h0ZM80.06,54.59c2.43,2.43,4.85,4.85,7.28,7.28l-10.92,10.91-18.19-18.19,18.19-18.19c3.64,3.64,7.28,7.27,10.92,10.92-2.43,2.43-4.85,4.85-7.28,7.28h0ZM80.06,47.31l-3.64-3.64-10.92,10.92,10.92,10.92,3.64-3.64-7.28-7.28,7.28-7.27h0ZM54.59,7.28l-3.64-3.64,3.64-3.64,3.64,3.64-3.64,3.64h0ZM54.59,21.83l-7.28-7.28,3.64-3.64,3.64,3.64,3.64-3.64,3.64,3.64-3.64,3.64h0s-3.64,3.64-3.64,3.64h0s0,0,0,0h0ZM54.59,29.12c2.43-2.43,4.85-4.85,7.28-7.28l10.91,10.92-18.19,18.19-18.19-18.19c3.64-3.64,7.27-7.28,10.92-10.92,2.43,2.43,4.85,4.85,7.28,7.28h0ZM47.31,29.12l-3.64,3.64,10.92,10.92,10.92-10.92-3.64-3.64-7.28,7.28-7.27-7.28h0ZM7.28,54.59l-3.64,3.64-3.64-3.64,3.64-3.64,3.64,3.64h0ZM21.83,54.6l-7.28,7.28-3.64-3.64,3.64-3.64-3.63-3.64,3.64-3.64,3.64,3.64h0s3.64,3.64,3.64,3.64h0ZM29.12,54.59c-2.43-2.43-4.85-4.85-7.28-7.28l10.92-10.91,18.19,18.19-18.19,18.19c-3.64-3.64-7.28-7.27-10.92-10.92,2.43-2.43,4.85-4.85,7.28-7.28h0ZM29.12,61.87l3.64,3.64,10.92-10.92-10.92-10.92-3.64,3.64,7.28,7.28-7.28,7.27h0ZM54.6,87.35l7.28,7.28-3.64,3.64-3.64-3.64-3.64,3.64-3.64-3.64,3.64-3.64h0s3.64-3.64,3.64-3.64h0s0,0,0,0h0ZM54.59,80.06c-2.43,2.43-4.85,4.85-7.28,7.28l-10.91-10.92,18.19-18.19,18.19,18.19c-3.64,3.64-7.27,7.28-10.92,10.92-2.43-2.43-4.85-4.85-7.28-7.28h0ZM61.87,80.06l3.64-3.64-10.92-10.92-10.92,10.92,3.64,3.64,7.28-7.28,7.27,7.28h0Z"/>
</svg>