<svg viewBox="0 0 109.18 109.18"> 
  <path d="M50.95,61.87l3.64,3.64,3.64-3.64-3.64-3.64-3.64,3.64h0ZM54.59,29.12l7.28,7.28-3.64,3.64-3.64-3.64-3.64,3.63-3.64-3.64,3.64-3.64h0s3.64-3.64,3.64-3.64h0s0,0,0,0h0ZM80.06,54.59l-7.28,7.28-3.64-3.64,3.64-3.64-3.63-3.64,3.64-3.64,3.64,3.64h0l.11.11.11.12.12.11.11.11.11.11.11.12.12.11.11.11.11.11.11.12.12.11.11.11.12.11.11.12.11.11.11.11.12.11.11.12.11.11.11.11.12.11.11.11.11.11.11.12.12.11.11.11.11.11.11.11.12.11.11.11.11.11.11.12h0ZM58.23,76.43l3.64-3.64-3.64-3.64-3.64,3.64-3.64-3.64-3.64,3.64,3.64,3.64.11.11.12.11.11.11.11.11.11.12.12.11.11.11.11.11.11.11.12.11.11.12.11.11.11.11.12.11.11.11.11.11.11.11.12.11.11.12.11.11.11.11.12.11.11.12.12.11.11.11.11.11.11.12.12.11.11.11.11.11.11.12.12.11h0s3.64-3.64,3.64-3.64h0ZM32.75,58.23l3.64,3.64,3.64-3.64-3.64-3.64,3.64-3.64-3.64-3.64-5.68,5.69-.12.11-.11.11-.11.11-.11.12-.12.11-.11.11-.11.11-.11.12-.12.11-.11.11-.11.11-.11.12-.11.11-.11.11,3.64,3.64h0ZM54.59,21.83c-2.43,2.43-4.85,4.85-7.28,7.28l-10.91-10.92L54.59,0l18.19,18.19c-3.64,3.64-7.27,7.28-10.92,10.92-2.43-2.43-4.85-4.85-7.28-7.28h0ZM61.86,21.83l3.64-3.64-10.92-10.92-10.92,10.92,3.64,3.64,7.28-7.28,7.27,7.28h0ZM25.47,29.12l-3.64,3.64,3.64,3.64,3.64-3.64-3.64-3.64h0ZM43.67,32.76l-3.64,3.64-3.64-3.64,3.64-3.64,3.64,3.64h0ZM36.39,40.03l-3.64-3.64-3.64,3.64,3.64,3.64,3.64-3.64h0ZM36.39,25.48l-3.64,3.64-3.64-3.64,3.64-3.64,3.64,3.64h0ZM87.34,54.59c-2.43-2.43-4.85-4.85-7.28-7.28l10.92-10.91,18.19,18.19-18.19,18.19c-3.64-3.64-7.28-7.27-10.92-10.92,2.43-2.43,4.85-4.85,7.28-7.28h0ZM87.34,61.87l3.64,3.64,10.92-10.92-10.92-10.92-3.64,3.64,7.28,7.28-7.28,7.27h0ZM80.06,25.48l-3.64-3.64-3.64,3.64,3.64,3.64,3.64-3.64h0ZM76.42,43.67l-3.64-3.64,3.64-3.64,3.64,3.64-3.64,3.64h0ZM69.14,36.39l3.64-3.64-3.64-3.64-3.64,3.64,3.64,3.64h0ZM83.7,36.39l-3.64-3.64,3.64-3.64,3.64,3.64-3.64,3.64h0ZM54.59,87.35c2.43-2.43,4.85-4.85,7.28-7.28l10.91,10.92-18.19,18.19-18.19-18.19c3.64-3.64,7.28-7.28,10.92-10.92,2.43,2.43,4.85,4.85,7.28,7.28h0ZM47.31,87.35l-3.64,3.64,10.92,10.92,10.92-10.92-3.64-3.64-7.28,7.28-7.27-7.28h0ZM83.71,80.07l3.64-3.64-3.64-3.64-3.64,3.64,3.64,3.64h0ZM65.51,76.43l3.64-3.64,3.64,3.64-3.64,3.64-3.64-3.64h0ZM72.79,69.15l3.64,3.64,3.64-3.64-3.64-3.64-3.64,3.64h0ZM72.79,83.7l3.64-3.64,3.64,3.64-3.64,3.64-3.64-3.64h0ZM21.83,54.59c2.43,2.43,4.85,4.85,7.28,7.28l-10.92,10.91L0,54.59l18.19-18.19c3.64,3.64,7.28,7.27,10.92,10.92-2.43,2.43-4.85,4.85-7.28,7.28h0ZM21.83,47.31l-3.64-3.64-10.92,10.92,10.92,10.92,3.64-3.64-7.28-7.28,7.28-7.27h0ZM29.12,83.71l3.64,3.64,3.64-3.64-3.64-3.64-3.64,3.64h0ZM32.76,65.51l3.64,3.64-3.64,3.64-3.64-3.64,3.64-3.64h0ZM40.03,72.79l-3.64,3.64,3.64,3.64,3.64-3.64-3.64-3.64h0ZM25.48,72.79l3.64,3.64-3.64,3.64-3.64-3.64,3.64-3.64h0ZM54.59,43.67l3.64,3.64-3.64,3.64-3.64-3.64,3.64-3.64h0ZM61.86,50.95l-3.64,3.64,3.64,3.64,3.64-3.64-3.64-3.64h0ZM47.31,50.95l3.64,3.64-3.64,3.64-3.64-3.64,3.64-3.64h0Z"/>
</svg>