<svg viewBox="0 0 80.06 80.06">  
  <path d="M7.28,32.75l3.64-3.64L40.03,0l14.55,14.55,3.64,3.64-3.64,3.64h0s-3.64,3.64-3.64,3.64l-3.64,3.64-3.64-3.64-3.64-3.64-10.92,10.92,3.64,3.64,3.64-3.64,3.64-3.64,3.64,3.64h0s3.64,3.64,3.64,3.64h0s3.64-3.64,3.64-3.64h0s3.64-3.64,3.64-3.64l3.64,3.64h0s14.56,14.56,14.56,14.56l-29.11,29.11h0s-3.64,3.64-3.64,3.64l-3.64-3.64h0s-10.92-10.92-10.92-10.92h0s-3.64-3.64-3.64-3.64l7.28-7.28h0s3.64-3.64,3.64-3.64l3.64,3.64,3.64,3.64,10.92-10.91-3.64-3.64h0s-3.64,3.64-3.64,3.64h0s-3.64,3.64-3.64,3.64l-3.64-3.64-3.64-3.64-7.28,7.27-3.64-3.64-10.92-10.92-3.64-3.64h0ZM21.83,54.58l-3.64-3.64-3.64,3.64,3.64,3.64,3.64-3.64h0ZM14.56,47.31l-3.64-3.64-3.64,3.64,3.64,3.64,3.64-3.64h0ZM7.28,40.03l-3.64-3.64-3.64,3.64,3.64,3.64,3.64-3.64h0ZM80.06,40.03l-3.64-3.64-3.64,3.64,3.64,3.64,3.64-3.64h0ZM72.78,32.75l-3.64-3.64-3.64,3.64,3.64,3.64,3.64-3.64h0ZM65.5,25.47l-3.64-3.64-3.64,3.64,3.64,3.64,3.64-3.64h0ZM25.47,43.67l3.64-3.64h0s-3.64-3.64-3.64-3.64l-3.64-3.64,3.64-3.64,10.92-10.92,3.64-3.64,3.64,3.64h0s3.64,3.64,3.64,3.64l3.64-3.64-10.91-10.91-25.47,25.47,10.92,10.92h0ZM54.59,36.39l-3.64,3.64,7.28,7.28-14.55,14.55-3.64,3.64-3.64-3.64-3.64-3.64-3.64,3.64,10.92,10.92,25.47-25.47-10.92-10.92h0ZM43.67,40.03l-3.64-3.64-3.64,3.64,3.64,3.64,3.64-3.64h0ZM32.75,36.39h0s0,0,0,0h0ZM29.11,40.03h0,0Z"/>
</svg>