<svg viewBox="0 0 80.06 80.06">  
  <path d="M0,40.03l3.64-3.64L40.03,0l14.56,14.56h0s3.64,3.64,3.64,3.64l-3.64,3.64h0l-3.64,3.64-3.64,3.64-3.64-3.64-3.64-3.64-10.92,10.92,3.64,3.64,3.64-3.64,3.64-3.64,3.64,3.64,3.64,3.64,10.92-10.92,3.64-3.64,3.64,3.64h0s10.92,10.92,10.92,10.92l3.64,3.64-36.39,36.39-3.64,3.64-3.64-3.64-10.92-10.92-3.64-3.64,10.92-10.92,7.28,7.28,10.92-10.92-3.64-3.64-3.64,3.64-3.64,3.64-7.28-7.27-10.91,10.92-3.64,3.64-3.64-3.64L0,40.03h0ZM21.83,40.03l-3.64-3.64-3.64,3.64,3.64,3.64,3.64-3.64h0ZM65.5,40.03l-3.64-3.64-3.64,3.64,3.64,3.64,3.64-3.64h0ZM18.19,50.95l10.92-10.92-3.64-3.64h0s-3.64-3.64-3.64-3.64l3.64-3.64,10.92-10.92,3.64-3.64,3.64,3.64h0s3.64,3.64,3.64,3.64l3.64-3.64-10.92-10.91L7.27,40.03l10.92,10.92h0ZM61.86,29.11l-10.92,10.92h0s3.64,3.64,3.64,3.64h0s3.64,3.64,3.64,3.64l-3.64,3.64-10.92,10.92-3.64,3.64-7.27-7.28-3.64,3.64,10.92,10.92,32.75-32.75-10.92-10.92h0ZM43.67,40.03h0s-3.64-3.64-3.64-3.64l-3.64,3.64h0s3.64,3.64,3.64,3.64l3.64-3.64h0Z"/>
</svg>