<svg viewBox="0 0 80.06 80.06">  
  <path d="M40.03,65.5l-7.28,7.28c-3.64-3.64-7.28-7.27-10.92-10.92,6.06-6.07,12.13-12.13,18.19-18.19l18.19,18.19-10.91,10.92c-2.43-2.43-4.85-4.85-7.28-7.28h0ZM76.42,36.39l-3.64,3.64,3.64,3.64,3.64-3.64-3.64-3.64h0ZM3.64,43.67l3.64-3.64-3.64-3.64L0,40.03l3.64,3.64h0ZM36.39,3.64l3.64,3.64,3.64-3.64-3.64-3.64-3.64,3.64h0ZM43.67,76.42l-3.64-3.64-3.64,3.64,3.64,3.64,3.64-3.64h0ZM65.5,32.75l-3.64-3.64-10.92,10.92,10.92,10.92,3.64-3.64-7.28-7.27,7.27-7.28h0ZM61.86,21.83l10.92,10.91-7.28,7.28,7.28,7.28c-3.64,3.64-7.28,7.28-10.92,10.92l-18.2-18.19c6.07-6.07,12.13-12.13,18.2-18.2h0ZM14.56,47.31l3.64,3.64,10.92-10.92-10.92-10.92-3.64,3.64,7.27,7.28-7.27,7.27h0ZM7.28,47.31l7.28-7.28-7.28-7.28,10.92-10.91c6.07,6.06,12.13,12.13,18.2,18.2l-18.2,18.19c-3.64-3.64-7.28-7.28-10.92-10.92h0ZM40.03,14.56c2.43-2.43,4.85-4.85,7.28-7.28l10.91,10.92-18.19,18.19-18.19-18.19c3.64-3.64,7.27-7.28,10.92-10.92,2.43,2.43,4.85,4.85,7.28,7.28h0ZM32.75,14.56l-3.64,3.64,10.92,10.92,10.92-10.92-3.64-3.64-7.28,7.28-7.28-7.28h0ZM47.31,65.5l3.64-3.64-10.92-10.92-10.92,10.92,3.64,3.64,7.27-7.28,7.28,7.27h0Z"/>
</svg>