<svg viewBox="0 0 87.5 87.5">  
  <rect x="0" y="66.91" width="5.15" height="5.15"/>
  <rect x="5.15" y="66.91" width="5.15" height="5.15"/>
  <rect x="5.15" y="77.2" width="5.15" height="5.15"/>
  <rect x="5.15" y="5.15" width="5.15" height="5.15"/>
  <rect x="77.2" y="20.59" width="5.15" height="5.15"/>
  <rect x="66.91" y="0" width="5.15" height="5.15"/>
  <rect x="77.2" y="15.44" width="5.15" height="5.15"/>
  <rect x="82.35" y="15.44" width="5.15" height="5.15"/>
  <rect x="5.15" y="61.76" width="5.15" height="5.15"/>
  <g>
    <rect x="15.45" y="5.15" width="5.15" height="5.14"/>
    <rect x="15.45" y="0" width="5.15" height="5.15"/>
    <rect x="20.59" y="5.15" width="5.15" height="5.14"/>
  </g>
  <path d="M56.61,41.18c5.15,0,10.29,0,15.44,0V15.44h-25.73v15.44c3.43,0,6.86,0,10.29,0,0,3.43,0,6.86,0,10.29ZM51.47,25.74v-5.15s15.44,0,15.44,0v15.44h-5.15s0-10.29,0-10.29h-10.29Z"/>
  <rect x="66.91" y="5.15" width="5.15" height="5.14"/>
  <rect x="61.76" y="5.15" width="5.15" height="5.14"/>
  <rect x="36.03" y="36.03" width="5.15" height="5.15"/>
  <rect x="66.91" y="77.2" width="5.15" height="5.15"/>
  <rect x="46.32" y="46.32" width="5.15" height="5.15"/>
  <rect x="5.15" y="20.59" width="5.15" height="5.15"/>
  <rect x="66.91" y="82.35" width="5.15" height="5.15"/>
  <rect x="61.76" y="77.2" width="5.15" height="5.15"/>
  <rect x="77.2" y="5.15" width="5.15" height="5.15"/>
  <rect x="82.35" y="66.91" width="5.15" height="5.15"/>
  <rect x="77.2" y="77.2" width="5.15" height="5.15"/>
  <rect x="77.2" y="66.91" width="5.15" height="5.15"/>
  <rect x="77.2" y="61.76" width="5.15" height="5.15"/>
  <path d="M56.62,56.62c-3.44,0-6.86,0-10.29,0,0,5.15,0,10.29,0,15.44h25.73v-25.73h-15.44c0,3.43,0,6.86,0,10.29ZM61.76,51.47h5.15v15.44h-15.44v-5.15h10.29s0-10.29,0-10.29Z"/>
  <rect x="15.44" y="82.35" width="5.15" height="5.15"/>
  <rect x="15.44" y="77.2" width="5.15" height="5.15"/>
  <rect x="5.15" y="15.44" width="5.15" height="5.15"/>
  <rect x="0" y="15.44" width="5.15" height="5.15"/>
  <rect x="20.59" y="77.2" width="5.15" height="5.15"/>
  <rect x="36.03" y="46.32" width="5.15" height="5.15"/>
  <rect x="46.32" y="36.03" width="5.15" height="5.15"/>
  <path d="M15.45,41.18h15.44c0-3.43,0-6.86,0-10.29,3.44,0,6.86,0,10.3,0,0-5.15,0-10.29,0-15.44H15.44v25.73ZM36.03,20.59v5.15s-10.29,0-10.29,0v10.29h-5.15s0-15.44,0-15.44h15.44Z"/>
  <path d="M30.88,46.32c-5.15,0-10.29,0-15.44,0v25.73h25.73v-15.44c-3.43,0-6.86,0-10.29,0,0-3.44,0-6.86,0-10.29ZM36.03,61.76v5.15h-15.44v-15.44h5.15v10.29s10.29,0,10.29,0Z"/>
</svg>