<svg viewBox="0 0 24 24">  
  <path d="M20.3,2.4c-.4,0-.8,0-1.1,0h0c-.6-.3-1.3-.3-1.9-.2h-.4c-.5.2-.9.7-.9,1.2v6.7c0,.4.3.7.7.7s.7-.3.7-.7v-3.6h.2c.4-.1.8,0,1.2,0,.7.3,1.4.3,2.1.1h0c.5-.1.9-.6.9-1.1v-2.1c0-.7-.6-1.2-1.3-1.1Z"/>
  <path d="M18.6,8v2c0,1.1-.9,2.1-2.1,2.1s-2.1-1-2.1-2.1v-4.1h-4.1c1.3,1.2,2.1,3.1,2.1,5.1v8.4h1v1.9c0,.4.3.7.7.7s.7-.3.7-.7v-1.9h4.6c1.2,0,2.1-1.1,2.1-2.5v-6c0-1.1-.3-2-.8-2.8-.7.2-1.5.1-2.3,0Z"/>
  <path d="M6.7,5.9c-2.4,0-4.3,2.3-4.3,5.1v5.9c0,1.4,1,2.5,2.2,2.5h5.1v1.9c0,.4.3.7.7.7s.7-.3.7-.7v-10.4c0-2.8-1.9-5.1-4.3-5.1ZM8.1,16.2h-2.9c-.4,0-.7-.3-.7-.7s.3-.7.7-.7h2.9c.4,0,.7.3.7.7s-.3.7-.7.7Z"/>
</svg>