<svg viewBox="0 0 24 24">  
  <path d="M12.2,18.7h-.1s0,0,0,0c-1.1-.3-2-.5-2.7-.8-.7-.3-1.4-.6-2-1.1-.8-.7-1.3-1.7-1.6-2.8-.2-.8-.1-1.5,0-2.3.1-.7.4-1.6.7-2.7h0s.5-2,.5-2h0c-1.9.4-2.9.8-3.6,1.4-.6.5-1,1.2-1.2,2-.2,1,0,2.1.7,4.4l.5,1.9c.6,2.3.9,3.4,1.6,4.1.5.6,1.2,1,2,1.2,1,.2,2.1,0,4.4-.7,2.3-.6,3.4-.9,4.1-1.6,0,0,.1-.1.2-.2-.3,0-.7,0-1-.1-.7-.1-1.5-.4-2.5-.6Z"/>
  <path d="M21.7,6.4c-.2-.8-.6-1.5-1.2-2-.7-.7-1.9-1-4.1-1.6-2.3-.6-3.4-.9-4.4-.7-.8.2-1.5.6-2,1.2-.6.6-.9,1.5-1.3,3.2,0,.3-.2.6-.2.9l-.5,1.9c-.6,2.3-.9,3.4-.7,4.4.2.8.6,1.5,1.2,2,.7.7,1.9,1,4.1,1.6,2,.5,3.1.8,4.1.7.1,0,.2,0,.3,0,.8-.2,1.5-.6,2-1.2.7-.7,1-1.9,1.6-4.1l.5-1.9c.6-2.3.9-3.4.7-4.4ZM14.8,13.9c-.1.4-.5.6-.9.5l-2.9-.8c-.4-.1-.6-.5-.5-.9.1-.4.5-.6.9-.5l2.9.8c.4.1.6.5.5.9ZM17.5,11.5c-.1.4-.5.6-.9.5l-4.8-1.3c-.4-.1-.6-.5-.5-.9.1-.4.5-.6.9-.5l4.8,1.3c.4.1.6.5.5.9Z"/>
</svg>