<svg viewBox="0 0 24 24">  
  <path class="cls-1" d="M17.7,15.6l-1.2-.7c-1.1-.6-2.6-.4-3.6.6,0,0-1.2,1.2-3.4-1-2.2-2.2-1-3.4-1-3.4,1-1,1.2-2.5.6-3.6l-.7-1.2c-.9-1.7-3.3-1.9-4.8-.4-.9.9-1.6,2-1.6,3.2,0,2,.4,5.5,3.9,9,3.5,3.5,6.9,4,9,3.9,1.2,0,2.3-.7,3.2-1.6,1.5-1.5,1.3-3.9-.4-4.8Z"/>
  <path class="cls-1" d="M22,11.2h0c0,0,0,0,0-.1,0,0,0-.2,0-.4,0-.3-.2-.8-.5-1.3-.5-1.1-1.3-2.5-2.8-3.9-1.5-1.5-2.9-2.3-3.9-2.8-.5-.2-1-.4-1.3-.5-.2,0-.3,0-.4,0,0,0-.1,0-.2,0-.4,0-.8.2-.9.7,0,.4.2.8.7.9,0,0,.2,0,.3,0,.2,0,.6.2,1.1.4.9.4,2.2,1.2,3.5,2.5,1.3,1.3,2.1,2.6,2.5,3.5.2.5.3.8.4,1.1,0,.1,0,.2,0,.3,0,0,0,0,0,0,0,.4.5.7.9.7.4,0,.7-.5.7-.9Z"/>
  <path class="cls-1" d="M18.2,10.9h0s0,0,0,0h0s0,0,0,0c0,0,0-.1,0-.2,0-.2-.2-.4-.3-.6-.3-.5-.8-1.2-1.7-2.1-.8-.8-1.6-1.4-2.1-1.7-.3-.2-.5-.3-.6-.3,0,0-.1,0-.2,0,0,0,0,0,0,0h0s0,0,0,0h0s0,0,0,0h0c-.4-.1-.9.1-1,.5-.1.4.1.9.5,1h0s0,0,0,0c0,0,.2.1.4.2.4.2,1,.7,1.8,1.4.7.7,1.2,1.4,1.4,1.8.1.2.2.4.2.4,0,0,0,0,0,0h0c.1.4.6.7,1,.6.4-.1.7-.6.5-1l-.8.2c.8-.2.8-.2.8-.2h0ZM12.9,6.5h0c0,0,0,0,0,0ZM13,6.1h0s0,0,0,0ZM13,6.3s0,0,0,0h0ZM13.1,5.9s0,0,0,0h0c0,0,0,0,0-.1h0ZM13.1,5.9s0,0,0,0h0ZM13.1,5.8s0,0,0,0h0Z"/>
</svg>