<svg viewBox="0 0 24 24">  
  <path d="M20.4,13.7c-.5-.3-.8-.8-.8-1.4s.3-1.1.8-1.4c.3-.2.5-.4.7-.6.3-.4.5-1,.4-1.5,0-.4-.3-.8-.8-1.6s-.7-1.2-1-1.5c-.4-.3-1-.5-1.5-.4-.2,0-.5.1-.8.3-.5.3-1.1.3-1.6,0-.5-.3-.8-.8-.8-1.4s0-.6,0-.9c-.2-.5-.6-.9-1.1-1.1-.4-.2-.8-.2-1.8-.2s-1.4,0-1.8.2c-.5.2-.9.6-1.1,1.1,0,.2,0,.5,0,.9,0,.6-.3,1.1-.8,1.4-.5.3-1.1.3-1.6,0-.3-.2-.6-.3-.8-.3-.5,0-1.1,0-1.5.4-.3.2-.6.6-1,1.5-.5.8-.7,1.2-.8,1.6,0,.5,0,1.1.4,1.5,0,.2.4.4.7.6.5.3.8.8.8,1.4s-.3,1.1-.8,1.4c-.3.2-.5.4-.7.6-.3.4-.5,1-.4,1.5,0,.4.3.8.8,1.6.5.8.7,1.2,1,1.5.4.3,1,.5,1.5.4.2,0,.5,0,.8-.3.5-.3,1.1-.3,1.6,0s.8.8.8,1.4,0,.6,0,.9c.2.5.6.9,1.1,1.1.4.2.8.2,1.8.2s1.4,0,1.8-.2c.5-.2.9-.6,1.1-1.1,0-.2,0-.5,0-.9,0-.6.3-1.1.8-1.4s1.1-.3,1.6,0c.3.2.6.3.8.3.5,0,1.1,0,1.5-.4.3-.2.6-.6,1-1.5.5-.8.7-1.2.8-1.6,0-.5,0-1.1-.4-1.5,0-.2-.4-.4-.7-.6ZM12,15c-1.6,0-3-1.3-3-3s1.4-3,3-3,3,1.3,3,3-1.3,3-3,3Z"/>
</svg>