<svg viewBox="0 0 51.93 30.02">   
    <path d="M9.45 27.8l-2.31 0c-0.91,0 -1.38,-0.74 -1.05,-1.64 1.38,-3.82 2.8,-7.63 4.19,-11.44 -3.05,0 -6.09,0 -9.13,0 -0.9,0 -1.37,-0.74 -1.05,-1.64l0.59 -1.62c0.66,-1.81 2.67,-3.28 4.47,-3.28 4.44,0 8.88,0 13.33,0 0.9,0 1.37,0.73 1.04,1.64 -1.78,4.9 -3.57,9.79 -5.35,14.7 -0.65,1.8 -2.66,3.28 -4.47,3.28l-0.26 0zm35.84 0l-0.22 0.58c-0.32,0.9 0.15,1.64 1.05,1.64l1.65 0c0.86,-2.38 1.73,-4.75 2.6,-7.12 0.32,-0.91 -0.15,-1.64 -1.05,-1.64l-1.65 0c1.39,-3.82 2.78,-7.63 4.16,-11.44 0.33,-0.91 -0.14,-1.64 -1.05,-1.64l-2.57 0c-1.81,0 -3.82,1.47 -4.47,3.28l-3.56 9.8 -0.01 0 -3.24 0c1.38,-3.82 2.77,-7.63 4.15,-11.44 0.33,-0.91 -0.14,-1.64 -1.04,-1.64l-2.58 0c-1.8,0 -3.81,1.47 -4.47,3.28 -1.78,4.9 -3.56,9.79 -5.34,14.7 -0.33,0.9 0.14,1.64 1.05,1.64 5.53,0 11.06,0 16.59,0zm-28.35 -1.64c-0.33,0.9 0.14,1.64 1.04,1.64l2.58 0c1.8,0 3.81,-1.48 4.47,-3.28l5.34 -14.7c0.33,-0.91 -0.14,-1.64 -1.05,-1.64l-2.57 0c-1.81,0 -3.82,1.47 -4.47,3.28l-5.34 14.7zm8.73 -19.62l2.57 0c1.81,0 3.82,-1.48 4.47,-3.28l0.59 -1.62c0.33,-0.9 -0.14,-1.64 -1.05,-1.64l-2.57 0c-1.81,0 -3.82,1.48 -4.47,3.28l-0.59 1.62c-0.33,0.9 0.14,1.64 1.05,1.64z"/>
</svg>
