<svg viewBox="0 0 24 24">  
  <path d="M18.7,6.1c-.1,0-.3-.2-.4-.2-.4-.3-.7-.5-1-.9-.8-.9-1.1-1.8-1.2-2.4h0c0-.5,0-.9,0-.9h-3.5v13.7c0,.2,0,.4,0,.5,0,0,0,0,0,0,0,0,0,0,0,0h0c0,1-.6,1.9-1.5,2.4-.4.3-.9.4-1.5.4-1.6,0-3-1.3-3-3s1.3-3,3-3c.3,0,.6,0,.9.1v-3.6c-1.8-.2-3.7.3-5.1,1.5-.6.5-1.1,1.2-1.5,1.9-.1.3-.7,1.3-.8,3,0,1,.2,1.9.4,2.3h0c0,.2.4,1.1,1,1.8.4.6,1,1,1.5,1.4h0s0,0,0,0c1.7,1.2,3.6,1.1,3.6,1.1.3,0,1.4,0,2.7-.6,1.4-.7,2.2-1.6,2.2-1.6.5-.6.9-1.3,1.2-2,.3-.8.4-1.8.4-2.3v-7.3s.6.4.6.4c0,0,.8.5,2.1.9.9.2,2.2.3,2.2.3v-3.5c-.4,0-1.3,0-2.2-.5Z"/>
</svg>