<svg viewBox="0 0 24 24">
  <path d="M20.2,5.5h-2.6c-.5,0-1.1-.4-1.3-1,0,0,0,0,0,0v-.4c-.2-.2-.2-.4-.3-.6-.3-.7-1-1.3-1.7-1.4-.2,0-.4,0-.6,0h-3.5c-.2,0-.4,0-.6,0-.7.1-1.3.6-1.7,1.4,0,.2-.1.4-.2.6v.4c-.1,0-.1,0-.1,0-.2.6-.6.9-1.2,1h-2.7c-.4,0-.8.4-.8.9s.3.9.8.9h16.5c.4,0,.8-.4.8-.9s-.3-.9-.8-.9Z"/>
  <path d="M15.9,8.3h-7.8c-1.5,0-2.3,0-2.8.5-.5.5-.4,1.3-.3,2.9l.3,4.2c.2,2.9.3,4.4,1.2,5.2s2.3.9,5.1.9h.8c2.8,0,4.2,0,5.1-.9.9-.9,1-2.3,1.2-5.2l.3-4.2c.1-1.6.2-2.4-.3-2.9-.5-.5-1.2-.5-2.8-.5ZM10.1,18.3c-.4,0-.8-.3-.8-.7l-.5-5.3c0-.4.3-.8.7-.9.4,0,.8.3.8.7l.5,5.3c0,.4-.3.8-.7.9ZM15.2,12.3l-.5,5.3c0,.4-.4.8-.8.7-.4,0-.7-.4-.7-.9l.5-5.3c0-.4.4-.8.8-.7.4,0,.7.4.7.9Z"/>
</svg>