<svg viewBox="0 0 311.5 297.9"> 
  <g>
    <g>
      <path fill="#36a9e1" d="M39.8,15c-1.4,9.1-1.6,18.1-1.3,27.2-.3-2.2-.8-4.3-1.3-6.3-1.1-3.9-6-4.4-7,.2-2.3,10.4-1.4,21.6-.7,32.2,0,1.3.2,2.6.3,3.9.2.2.3.4.5.7.5,1.5.9,3.2,1,4.9,0,.4,0,.7,0,1.1,0,.3,0,.7,0,1-.8-1.3-1.8-2.1-3-2.5-.7-1.5-1.4-3-2.2-4.4-.3-.5-.6-.9-.9-1.2.3-11.8.4-23.6,0-35.4,0-1.1-1.3-1-1.4,0-.9,11.3-1.2,22.6-1.2,33.9-1.5-.2-3,.5-4.1,1.9-.2-1.6-.3-3.1-.5-4.7-.3-2-2.3-2-2.6,0-1.4,9.8-1.7,19.7-1.8,29.6-.6,1-.9,2.3-1,3.6,0,.1-.1.2-.2.3-1.2,2.3-.7,5.9,1.1,7.3,0,.4,0,.9,0,1.3-.2,13.7-.2,27.3-.3,41,0,5.3,0,10.6,0,15.9,0,5.3,0,10.6,0,15.9,0,13.7-.1,27.3,0,41,0,.4,0,.9,0,1.3-1.8,1.4-2.4,5-1.2,7.3,0,.1.1.2.2.3,0,1.3.4,2.6,1,3.6,0,9.9.3,19.8,1.6,29.6.3,2.1,2.3,2.1,2.6.1.2-1.6.4-3.1.6-4.7,1.1,1.4,2.6,2.1,4.1,1.9-.1,11.3,0,22.6.9,33.9,0,1.1,1.3,1.2,1.4,0,.4-11.8.4-23.6.2-35.4.3-.3.6-.7.9-1.2.4-.7.8-1.4,1.2-2.2-.4,6-.6,12.2.6,18.1.7,3.2,4.1,2.9,4.9.2,2.1-7.2,1.7-15.8,1.7-23.5,0-2.5,0-5-.2-7.5.1-.1.2-.2.3-.4,1.4,1.3,3.2,1.8,4.7,1.1-.3,9.5-.4,19,.3,28.5.1,2,2.2,2,2.4.1,1.4-11.5,1.5-23.2,1.6-34.9,0,0,0,0,0,0,.8-.4,1.5-.9,2.2-1.6-.1,2.3-.3,4.6-.4,7-.4,8.2-1.3,16.4,0,24.6.4,2.4,2.8,3.2,3.5.8,4-13.1,3-29.6,2.4-44.3,1-5.4,1.7-10.6,1.8-16.7,0-8.1,0-16.3,0-24.4,0-6.1-.2-12.1-.3-18.2.2-6.1.3-12.1.4-18.2.2-8.1.3-16.3.3-24.4,0-5.8-.6-10.7-1.4-15.7,1.5-31.3,4.3-67-3.9-95.1-1.5-5-6.4-3.4-7.2,1.6ZM33,242.9c0-.1-.1-.2-.1-.4-.1-.3-.2-.7-.2-1.1,0-.2,0-.4,0-.5,1.3,0,2.6.2,3.9.2,0,.1-.1.3-.2.4,0,0,0,0,0,.1,0,.1-.1.3-.2.4,0,.2-.1.4-.2.6,0,0,0,0,0,0,0,.3-.2.5-.4.7,0,.2-.2.3-.3.3-.2.2-.4.3-.6.3-.3,0-.6,0-.9-.2-.2-.1-.4-.3-.5-.5,0,0,0,0,0,0,0,0-.1-.2-.2-.3ZM27.4,244.4s0,0,0,0c.1.2.2.5.3.8,0,.2.1.4.1.7,0,.2,0,.5,0,.7,0,.2,0,.5,0,.7,0,1.2-.4,2.4-.7,3.4,0,.1,0,.2-.1.3,0,0-.1.1-.2.2-.2.2-.5.3-.7.2-.4-.2-.8-.8-.7-1.4,0-.6.1-1.1.2-1.7,0-.6,0-1.1,0-1.7,0-.3,0-.5,0-.8,0,0,0,0,0,0,0,0,0,0,0,0,0,0,0,0,0,0-.1,0-.3-.2-.3-.4-.1-.3-.1-.6,0-.9.2-.3.4-.6.7-.7.2-.2.6-.2.8,0-.5-.2,0,0,.1,0,.2.1.3.3.5.5h0ZM26.7,89.7c-.3-.1-.5-.4-.6-.7-.1-.3-.1-.6,0-.9,0-.2.2-.3.3-.4,0,0,0,0,0,0,0,0,0,0,0,0,0,0,0,0,0,0,0-.3,0-.5,0-.8,0-.6,0-1.1,0-1.7,0-.6,0-1.1-.1-1.7,0-.6.3-1.2.7-1.4.4-.2.9.1,1.1.7.4,1.1.6,2.2.7,3.4,0,.2,0,.5,0,.7,0,.2,0,.5,0,.7,0,.2,0,.5-.1.7,0,.3-.2.6-.3.8-.1.2-.3.4-.5.5-.1,0-.6.3-.1,0-.3.1-.6.1-.8,0ZM43.1,196.8c0-.3,0-.6.1-.9,0,.6,0,1.3-.1,1.9,0-.3,0-.7,0-1ZM24.9,170.4c0,.5-.5.5-.6,0-.1-1.2-.2-2.4-.3-3.7,0-1.2.2-2.5.3-3.7,0-.5.6-.5.6,0,0,1.2.1,2.4.2,3.6,0,1.2-.1,2.4-.2,3.6ZM43.3,135.9c0,.6,0,1.3.1,1.9,0-.3-.1-.6-.1-.9,0-.3,0-.7,0-1ZM39,87.4c-.4-.2-.7-.3-1.1-.3,0-.2,0-.4.1-.7,0-.5.2-1.1.3-1.5.1-.4.3-.7.5-1,0-.7,0-1.4,0-2.1,0,1.9,0,3.7,0,5.6Z"/>
      <path fill="#36a9e1" d="M55.5,174.9c0,.2.2.3.2,0,0-.2-.2-.3-.2,0Z"/>
      <path fill="#36a9e1" d="M55.8,108.2c0,.2.3.2.2,0,0-.2-.3-.2-.2,0Z"/>
    </g>
    <path fill="#ffed00" d="M61.1,1.6c-3.8,12.6-3.3,25.7-2.3,38.8-.5.3-1,.7-1.4,1.2-1-.4-2.1,0-2.6,1.3-2,5.5-1.2,11.2-1,17,.2,7.3.4,14.6.6,22,.1,5,.3,9.9.4,14.9-.9.1-1.7.6-2.3,1.5-3.8,6.1-2,14.5-1.7,21.4.1,2.8.2,5.6.4,8.4-.2,2-.3,4.1-.4,6.4-.1,3.7-.4,1.5,1.4,3.8.3,1.8.7,3.6,1.1,5.4.2.6.5,1.1.8,1.4,0,4.9-.2,12.3.4,12.4-.2,5-.4,9.9-.5,14.9-.2,7.3-.5,14.6-.8,21.9-.2,5.7-1.1,11.5.8,17,.5,1.3,1.6,1.7,2.6,1.3.4.5.9.9,1.4,1.2-1.1,13-1.7,26.2,2,38.8.7,2.6,4,1.8,4.3-.5,1.7-12.1,0-24.5-1.3-36.8,1.2,0,2.4-.5,3.3-1.2-.2,3.6-.3,7.2,0,10.8.2,1.8,2.2,2,2.9.5,3.2-7,3.7-14.8,3.3-22.7.8-.8,1.5-1.6,2.2-2.5-.3,6,0,12.1.6,18.3.3,2.5,3.5,2.5,3.8.1.2-1.5.4-2.9.5-4.4.7,0,1.4-.5,1.8-1.4,2.1-6.3,3.4-14.6,3.1-22.1,2.8,1.7,6.3-.4,6.3-4.8,0-7.9,0-15.8,0-23.7,0-3.6.1-7.3,0-11,1.1-10.4-3-34.2-1.2-39.7,1.9-6.1,1.5-12.9,1.6-19.2,0-7.9.2-15.8.3-23.7,0-4.4-3.4-6.5-6.2-4.9.3-7.5-.9-15.8-2.9-22.1-.3-1-1-1.4-1.8-1.5-.1-1.5-.3-2.9-.5-4.4-.3-2.4-3.5-2.4-3.8.1-.8,6.2-1,12.2-.8,18.3-.7-.8-1.4-1.7-2.2-2.5.5-7.9,0-15.7-3.1-22.7-.6-1.4-2.7-1.3-2.9.5-.4,3.6-.4,7.2-.2,10.8-1-.7-2.1-1.1-3.3-1.2,1.5-12.3,3.2-24.7,1.6-36.8-.3-2.3-3.6-3.1-4.3-.5ZM67,200.2c0,.4,0,.8,0,1.2,0,.6-.2,1.2-.2,1.8,0,.3-.1.6-.2.8,0,0,0,0,0,.1,0,.3-.1.6-.2.9,0,.3,0,.7-.1,1,0,.2,0,.4,0,.6,0,0,0,.2,0,.3,0,0,0,.4,0,0,0,.4,0,.8-.3,1.1-.2.3-.6.5-.9.6-.8,0-1.3-.5-1.5-1.4-.2-.7-.3-1.5-.4-2.3,0-.9-.1-1.9.1-2.8.2-.6.3-1.2.6-1.7.2-.4.3-.8.5-1.1.2-.3.5-.5.7-.8.7-.7,1.8,0,1.9.9,0,.3,0,.5,0,.8ZM80,197.7c.2.6.2,1.1.2,1.7,0,.5,0,1.1,0,1.6,0,1.1-.1,2.1-.2,3.2-.2,1.9-.5,3.8-.9,5.7-.1.6-.5,1-1.1.9-.5-.1-.9-.7-.8-1.3,0-.9.2-1.8.2-2.8,0-1,.2-2,.4-2.9.1-1,.3-2.1.4-3.1,0-.5.1-1,.3-1.5.1-.6.2-1.2.5-1.6.3-.4.9-.3,1.1.2ZM59,191.9s0,0,0,0c0,0-.2,0-.2.1,0,0,0,0,0,0,0,0-.2,0-.3,0,0,0-.1,0-.2,0,0,0,0,0,0,0-.7,0-1.5-.5-1.8-1.3-.2-.6-.3-1.1-.5-1.7-.1-.6-.2-1-.2-1.5,0-.5,0-1.1,0-1.6.1-1.7.9-3.1,2.1-4,0,0,0,0,0,0,.2-.1.4-.3.6-.4.2,0,.3-.1.5-.1,0,0,0,0,0,0,.2,0,.3,0,.5,0h0c.5.1,1,.5,1.3,1,.2.4.3.9.3,1.4v.5c-.2.2-.3.4-.4.5,0,0-.1.2-.2.3,0,.1-.1.3-.2.5-.1.6-.2,1.3-.2,1.9,0,.5,0,.9,0,1.4,0,.4,0,.9,0,1.3,0,.2,0,.3-.1.5,0,.2-.2.5-.4.6-.1.2-.3.3-.5.4ZM74,189.3c-.3.6-.6,1.1-1.1,1.6-.1,0-.2.2-.4.2-.2.1-.4.1-.6.1-.1,0-.2,0-.3,0,0,0-.2,0-.3,0-.1,0-.3-.1-.4-.2-.6-.5-.8-1.5-.5-2.2,0,0,0,0,0,0,0,0,0-.1,0-.2,0,0,0-.2,0-.3,0-.2,0-.3,0-.5,0-.1,0-.3,0-.4,0-.2,0-.3,0-.5,0,0,0,0,0,.1,0-.5,0-1,0-1.5,0-.6,0-1.3.4-1.8.3-.5.9-.8,1.4-.9.5,0,1.1.1,1.6.5.4.4.7,1,.8,1.6.1.9.3,1.9,0,2.8-.1.6-.3,1.1-.5,1.6ZM80.4,166.3c.2,4.6,0,9.2-.2,13.7-.1,2.2-.2,4.4-.4,6.6,0,.1,0,.2,0,.4,0,0,0,0,0,0,0,0,0,.1-.1.2,0,0,0,0,0,0,0,0-.1,0-.2,0,0,0,0,0-.1,0,0,0,0,0-.1,0-.1,0-.3,0-.4,0,0,0,0,0,0,0,0,0-.2,0-.2,0,0,0,0,0,0,0,0,0-.1,0-.2-.2-.1-.2-.2-.3-.2-.6,0-6.8-.4-13.6.2-20.3.1-1.4,2.2-1.4,2.2,0ZM79.8,66.8s0,0,.1,0c0,0,.1,0,.2,0,0,0,0,0,0,0,0,0,0,.1.1.2,0,0,0,0,0,0,0,.1,0,.2,0,.4.1,2.2.2,4.4.3,6.6.2,4.6.3,9.2,0,13.7,0,1.5-2.1,1.5-2.2,0-.5-6.7-.1-13.6,0-20.3,0-.3.1-.5.2-.6,0,0,.1-.1.2-.2,0,0,0,0,0,0,0,0,.1,0,.2,0,0,0,0,0,0,0,.1,0,.3,0,.4,0,0,0,0,0,.1,0ZM73.1,63.1c.1,0,.2.2.4.2.5.5.8,1,1.1,1.6.2.5.4,1.1.5,1.6.2.9,0,1.9-.1,2.8-.1.6-.4,1.2-.8,1.6-.4.4-1,.6-1.6.5-.5,0-1.1-.4-1.4-.9-.3-.5-.5-1.1-.4-1.8,0-.5,0-1,0-1.5,0,0,0,0,0,.1,0-.2,0-.3,0-.5,0-.1,0-.3,0-.4,0-.1,0-.3,0-.5,0,0,0-.2,0-.3,0,0,0-.1,0-.2,0,0,0,0,0,0-.3-.8,0-1.7.5-2.2.1-.1.2-.2.4-.2,0,0,.2,0,.3,0,.1,0,.2,0,.3,0,.2,0,.4,0,.6.1ZM59.3,62.1s0,0,0,0c0,0,.2,0,.2.1,0,0,0,0,0,0,.2.1.3.2.5.4.2.2.3.4.4.6,0,.2.1.3.1.5,0,.4,0,.9,0,1.3,0,.5,0,.9,0,1.4,0,.6,0,1.3.2,1.9,0,.2.1.3.2.5,0,0,.1.2.2.3.1.2.2.3.3.5v.5c.2.5,0,1-.1,1.3-.3.5-.8.9-1.3,1h0c-.2,0-.3,0-.5,0,0,0,0,0,0,0-.2,0-.3,0-.5-.1-.2-.1-.4-.2-.6-.4h0c-1.2-.9-1.9-2.3-2-4,0-.5,0-1.1,0-1.6,0-.6,0-1,.2-1.5.1-.6.3-1.1.5-1.7.3-.8,1-1.3,1.8-1.3,0,0,0,0,0,0,0,0,.1,0,.2,0,0,0,.2,0,.3,0ZM78.7,53.5c-.1-1-.3-2.1-.4-3.1-.1-1-.3-2-.3-3,0-.9-.1-1.8-.2-2.8,0-.6.3-1.2.8-1.3.6-.1,1,.3,1.1.9.4,1.9.7,3.7.9,5.7,0,1.1.2,2.1.2,3.2,0,.5,0,1.1,0,1.6,0,.6,0,1.2-.2,1.7-.2.5-.8.6-1.1.2-.3-.5-.4-1.1-.5-1.6-.1-.5-.2-1-.2-1.5ZM66.6,46.1c.2.4.3.7.3,1.1,0-.3,0,0,0,0,0,0,0,.2,0,.3,0,.2,0,.4,0,.6,0,.3,0,.7.1,1,0,.3,0,.6.2.9,0,0,0,0,0,.1,0,.3.1.5.2.8,0,.6.1,1.2.2,1.8,0,.4.1.8,0,1.2,0,.3,0,.5-.1.8-.1.9-1.2,1.6-1.9.9-.2-.3-.5-.5-.7-.8-.2-.3-.4-.7-.5-1.1-.2-.5-.4-1.1-.5-1.7-.2-.9-.2-1.9,0-2.8,0-.8.2-1.5.4-2.3.2-.9.7-1.4,1.6-1.4.3,0,.7.3.9.6Z"/>
  </g>
  <g>
    <path fill="#fff" d="M92.2,162.4l12.4-16.4c.9-1.3.9-3,0-4.2l-12.4-16.4c0,0-.2-.2-.2-.3l-7.9-10.4h10.1c1.3,0,2.5-.8,3.1-1.9.6-1.2.5-2.6-.3-3.7l-8.6-11.3c-.7-.9-1.7-1.4-2.8-1.4s-.5,0-.7,0c0,0,0,0,0,0,.6-1.2.5-2.6-.3-3.7l-8.6-11.3c-.3-.4-.7-.7-1.1-.9,0-.5-.3-1.1-.7-1.5l-18.8-24.7c-.7-.9-1.7-1.4-2.8-1.4s-2.1.5-2.8,1.4l-18.8,24.7c-.3.5-.6,1-.7,1.5-.4.2-.8.5-1.1.9l-8.6,11.3c-.8,1.1-.9,2.5-.3,3.7,0,0,0,0,0,0-.2,0-.5,0-.7,0-1.1,0-2.1.5-2.8,1.4l-8.6,11.3c-.8,1.1-.9,2.5-.3,3.7.6,1.2,1.8,1.9,3.1,1.9h10.1l-7.9,10.4c0,0-.2.2-.2.3L.7,141.8c-.9,1.3-.9,3,0,4.2l12.4,16.4c0,.1.2.2.3.3l7.9,10.4h-10.2c-1.3,0-2.5.8-3.1,1.9-.6,1.2-.5,2.6.3,3.7l8.6,11.3c.7.9,1.7,1.4,2.8,1.4s.5,0,.7,0c0,0,0,0,0,0-.6,1.2-.5,2.6.3,3.7l8.6,11.3c.3.4.7.7,1.1.9,0,.5.3,1.1.7,1.5l18.8,24.7c.7.9,1.7,1.4,2.8,1.4s2.1-.5,2.8-1.4l18.8-24.7c.3-.5.6-1,.7-1.5.4-.2.8-.5,1.1-.9l8.6-11.3c.8-1.1.9-2.5.3-3.7,0,0,0,0,0,0,.2,0,.5,0,.7,0,1.1,0,2.1-.5,2.8-1.4l8.6-11.3c.8-1.1.9-2.5.3-3.7-.6-1.2-1.8-1.9-3.1-1.9h-10.2l7.9-10.4c0,0,.2-.2.3-.3ZM55.2,188.8c-1.4-1.4-3.6-1.4-4.9,0l-7.7,7.7,1.1-1.5c0,0,.1-.2.2-.3l8.9-11.8,8.9,11.8c0,0,.1.2.2.3l1.1,1.5-7.7-7.7ZM62.9,201.6c.7-.7,1-1.5,1-2.5s-.2-1.2-.5-1.7l4.5,5.9h-6.7l1.7-1.7ZM41.9,197.4c-.8,1.3-.6,3.1.5,4.2l1.7,1.7h-6.7l4.5-5.9ZM64.6,156.7c-1.3,0-2.5.8-3.1,1.9-.6,1.2-.5,2.6.3,3.7l8.1,10.7h-34.5l8.1-10.7c.8-1.1.9-2.5.3-3.7-.6-1.2-1.8-1.9-3.1-1.9h-17.8l8.1-10.7c.9-1.3.9-3,0-4.2l-8.1-10.7h17.8c1.3,0,2.5-.8,3.1-1.9.6-1.2.5-2.6-.3-3.7l-8.1-10.7h34.5l-8.1,10.7c-.8,1.1-.9,2.5-.3,3.7.6,1.2,1.8,1.9,3.1,1.9h17.8l-8.1,10.7c-.9,1.3-.9,3,0,4.2l8.1,10.7h-17.8ZM50.2,98.9c.7.7,1.6,1,2.5,1s1.8-.3,2.5-1l7.8-7.8c0,0,.1-.2.2-.2l-1.4,1.8-9.1,12-9.1-12-1.4-1.8c0,0,.1.2.2.2l7.8,7.8ZM61.3,84.5h6.7l-4.5,6c.3-.6.5-1.2.5-1.9s-.4-1.8-1-2.5l-1.6-1.6ZM44.1,84.5l-1.6,1.6c-1.2,1.2-1.3,3-.5,4.3l-4.5-6h6.7ZM77,105.4l-5.4-7.1h10.2c.2,0,.4,0,.7,0l-5.4,7.2ZM33.8,98.3l-5.4,7.1-5.4-7.2c.2,0,.4,0,.7,0h10.2ZM33.8,189.5h-10.2c-.2,0-.4,0-.7,0l5.5-7.2,5.4,7.1ZM71.6,189.5l5.4-7.1,5.5,7.2c-.2,0-.4,0-.7,0h-10.2Z"/>
    <path fill="#fff" d="M55.2,134.2c-1.3-1.3-3.6-1.3-5,0l-7.8,7.8c-1.4,1.4-1.4,3.6,0,4.9l7.8,7.8c.7.7,1.5,1,2.5,1s1.8-.4,2.5-1l7.8-7.8c1.4-1.4,1.4-3.6,0-4.9l-7.8-7.8Z"/>
  </g>
  <g>
    <path fill="#1d1d1b" d="M60.5,199.3l-7.8-7.8-7.8,7.8,7.7,7.7h-18.6l18.8,24.7,18.8-24.7h-18.7l7.7-7.7ZM67.1,209.1l-14.4,19-14.4-19h28.8Z"/>
    <path fill="#1d1d1b" d="M102.9,143.3l-12.4-16.4c0,0,0-.1-.1-.1l-11.1-14.6h15.2c.4,0,.7-.2.9-.6s.1-.7,0-1l-8.6-11.3c-.2-.2-.5-.4-.8-.4h0c-.3,0-.6.1-.8.4l-7.8,10.3-10.4-13.7h15.2c.4,0,.7-.2.9-.6.2-.3.1-.7,0-1l-8.6-11.3c-.4-.5-1.2-.5-1.6,0l-8.6,11.3s0,0,0,0l-11.1,14.6-11.1-14.6s0,0,0,0l-8.6-11.3c-.2-.2-.5-.4-.8-.4s-.6.1-.8.4l-8.6,11.3c-.2.3-.3.7,0,1,.2.3.5.6.9.6h15.2l-10.4,13.7-7.8-10.3c-.2-.2-.5-.4-.8-.4s-.6.1-.8.4l-8.6,11.3c-.2.3-.3.7,0,1s.5.6.9.6h15.2l-11.1,14.6s0,0-.1.1l-12.4,16.4c-.3.4-.3.9,0,1.2l12.4,16.4c0,0,0,.1.1.2l12.3,16.2c0,0,0,.1.1.1l11.2,14.8h-15.5c-.4,0-.7.2-.9.6-.2.3-.1.7,0,1l8.6,11.3c.2.2.5.4.8.4s.6-.1.8-.4l8.6-11.3s0,0,0,0c0,0,.1,0,.2-.2l11.1-14.6,10.7,14.1c0,.2,0,.5.2.7l8.6,11.3c.2.2.5.4.8.4s.6-.1.8-.4l8.6-11.3c.2-.3.3-.7,0-1-.2-.3-.5-.6-.9-.6h-15.1l11.2-14.8s0,0,.1-.1l12.3-16.2c0,0,0,0,.1-.1l12.4-16.4c.3-.4.3-.9,0-1.2ZM64.8,100.9l5.9,7.7h-11.7l5.9-7.7ZM41,100.9l5.9,7.7h-11.7l5.9-7.7ZM28.6,176.7h0s0,0,0,0h0ZM41,187.4l-5.9-7.7h11.7l-5.9,7.7ZM64.6,187.5l-5.9-7.7h11.7l-5.9,7.7ZM64.8,175.6H30.6l11.2-14.7c.2-.3.3-.7,0-1-.2-.3-.5-.6-.9-.6h-22.8l11.2-14.7c.3-.4.3-.9,0-1.2l-11.2-14.7h22.8c.4,0,.7-.2.9-.6.2-.3.1-.7,0-1l-11.2-14.7h44.5l-11.2,14.7c-.2.3-.3.7,0,1,.2.3.5.6.9.6h22.8l-11.2,14.7c-.3.4-.3.9,0,1.2l11.2,14.7h-22.8c-.4,0-.7.2-.9.6-.2.3-.1.7,0,1l11.2,14.7h-10.4ZM89.6,160.3l-12.4,16.4,12.4-16.4h0Z"/>
    <path fill="#1d1d1b" d="M44.9,88.9l7.8,7.8,7.8-7.8-7.6-7.6h18.6l-18.8-24.7-18.8,24.7h18.6l-7.6,7.6ZM38.3,79.1l14.4-19,14.4,19h-28.8Z"/>
  </g>
  <g>
    <path fill="#fff" d="M115.7,106.1c.1,0,.3,0,.3,0h.3c.2,0,.4,0,.6,0,.2,0,.4-.1.5-.3.1-.1.3-.3.3-.5,0-.2,0-.5,0-.9l-3.6-12.5h2.6l2.6,9.7,2.1-9.7h2.6l-3.2,12.2c-.3.9-.6,1.6-.8,2.2-.3.6-.6,1-.9,1.3-.3.3-.7.5-1.1.7-.4.1-.9.2-1.5.2h-.5c-.1,0-.3,0-.5,0v-2.3Z"/>
    <path fill="#fff" d="M127.7,108.5h-2.6v-16.6h8.2v16.6h-2.7v-14.2h-3v14.2Z"/>
    <path fill="#fff" d="M138.3,91.9c1.3,0,2.3.3,2.9,1,.6.7,1,1.7,1,3.1v2.2c0,1.3-.3,2.4-1,3.1-.6.7-1.6,1-2.9,1h-1.2v6.2h-2.6v-16.6h3.8ZM137.1,94.2v5.6h1.2c.4,0,.7-.1.9-.3.2-.2.3-.6.3-1.2v-2.5c0-.6-.1-1-.3-1.2-.2-.2-.5-.3-.9-.3h-1.2Z"/>
    <path fill="#fff" d="M150.7,108.5h-2.6l-.5-3h-3.2l-.5,3h-2.4l2.7-16.6h3.8l2.7,16.6ZM144.7,103.2h2.5l-1.3-8.4-1.3,8.4Z"/>
    <path fill="#fff" d="M155.6,91.9c1.4,0,2.3.3,3,.9.6.6.9,1.6.9,2.9v.6c0,.9-.1,1.6-.4,2.1-.3.6-.7,1-1.3,1.2.7.3,1.2.7,1.5,1.3s.4,1.4.4,2.2v1.4c0,1.3-.3,2.3-1,2.9s-1.7,1-3,1h-4.1v-16.6h3.9ZM154.2,94.2v4.4h1c.5,0,.9-.1,1.1-.4.3-.3.4-.7.4-1.4v-.9c0-.6-.1-1-.3-1.3-.2-.3-.5-.4-1-.4h-1.3ZM154.2,101v5.1h1.5c.4,0,.8-.1,1-.4.2-.2.3-.7.3-1.3v-1.4c0-.8-.1-1.3-.4-1.6s-.7-.4-1.3-.4h-1.2Z"/>
    <path fill="#fff" d="M165.6,100.8c0,1.3,0,2.5-.2,3.5-.1,1-.4,1.8-.7,2.4-.3.6-.8,1.1-1.4,1.4-.6.3-1.4.5-2.3.5h-.3v-2.4h.3c.5,0,.9-.1,1.2-.4.3-.3.5-.6.7-1.1.2-.5.3-1,.3-1.7,0-.7,0-1.4,0-2.2v-8.8h7.2v16.6h-2.6v-14.2h-2.2v6.5Z"/>
    <path fill="#fff" d="M171.6,91.9h2.6v16.6h-2.6v-16.6Z"/>
    <path fill="#fff" d="M178,108.5h-2.6v-16.6h2.6v7.1h3v-7.1h2.7v16.6h-2.7v-7.1h-3v7.1Z"/>
    <path fill="#fff" d="M187.5,108.5h-2.6v-16.6h2.6v7.1h3v-7.1h2.7v16.6h-2.7v-7.1h-3v7.1Z"/>
    <path fill="#fff" d="M195.2,103.9c0-.9.1-1.6.4-2.2s.7-1,1.4-1.3c-1.2-.5-1.7-1.7-1.7-3.4v-1.3c0-1.3.3-2.2.9-2.9.6-.6,1.6-.9,3-.9h3.9v16.6h-2.6v-6.8h-.9c-.6,0-1,.2-1.3.5-.3.3-.4.9-.4,1.6v2.3c0,.7-.2,1.3-.6,1.7s-1.2.7-2.2.7h-.9v-2.4h.1c.3,0,.5,0,.7-.2.2-.1.2-.5.2-1v-1ZM199.2,94.2c-.5,0-.8.1-1,.4-.2.3-.3.7-.3,1.3v1.6c0,.7.1,1.1.4,1.4.3.3.7.4,1.2.4h1v-5.1h-1.3Z"/>
    <path fill="#fff" d="M122.3,125c0,1.7-.6,2.8-1.7,3.4.7.3,1.1.7,1.4,1.3.2.6.4,1.3.4,2.2v1.5c0,.3,0,.6,0,.7s.1.3.2.4c.1,0,.2.1.4.1h.7v2.4h-1.1c-.8,0-1.4-.2-1.9-.7-.5-.5-.7-1-.7-1.7v-2.7c0-.8-.2-1.3-.5-1.6-.3-.3-.8-.5-1.4-.5h-.9v7.2h-2.6v-16.6h2.6v7h1c.5,0,.9-.1,1.3-.4s.5-.7.5-1.4v-2.8c0-.7.2-1.3.7-1.7.5-.5,1.1-.7,1.9-.7h1.1v2.4h-.7c-.2,0-.3,0-.4.1-.1,0-.2.2-.2.4s0,.4,0,.7v1.1Z"/>
    <path fill="#fff" d="M125.6,134.6c.1,0,.3,0,.3,0h.3c.2,0,.4,0,.6,0,.2,0,.4-.1.5-.3.1-.1.3-.3.3-.5,0-.2,0-.5,0-.9l-3.6-12.5h2.6l2.6,9.7,2.1-9.7h2.6l-3.2,12.2c-.3.9-.6,1.6-.8,2.2-.3.6-.6,1-.9,1.3-.3.3-.7.5-1.1.7-.4.1-.9.2-1.5.2h-.5c-.1,0-.3,0-.5,0v-2.3Z"/>
    <path fill="#fff" d="M137.5,129.2c0,1.3,0,2.5-.2,3.5-.1,1-.4,1.8-.7,2.4-.3.6-.8,1.1-1.4,1.4-.6.3-1.4.5-2.3.5h-.3v-2.4h.3c.5,0,.9-.1,1.2-.4s.5-.6.7-1.1c.2-.5.3-1,.3-1.7,0-.7,0-1.4,0-2.2v-8.8h7.2v16.6h-2.6v-14.2h-2.2v6.5Z"/>
    <path fill="#fff" d="M146.1,127.1h1.6c1.3,0,2.3.3,2.9,1,.6.7,1,1.7,1,3.1v1.6c0,1.3-.3,2.4-1,3.1-.6.7-1.6,1-2.9,1h-4.2v-16.6h2.6v6.8ZM147.7,134.5c.4,0,.7-.1.9-.3.2-.2.3-.6.3-1.2v-2c0-.6-.1-1-.3-1.2-.2-.2-.5-.3-.9-.3h-1.6v5.1h1.6Z"/>
    <path fill="#fff" d="M150.6,120.3h8.1v2.4h-2.7v14.2h-2.6v-14.2h-2.7v-2.4Z"/>
    <path fill="#fff" d="M160.7,134.6c.1,0,.3,0,.3,0h.3c.2,0,.4,0,.6,0,.2,0,.4-.1.5-.3.1-.1.3-.3.3-.5s0-.5,0-.9l-3.6-12.5h2.6l2.6,9.7,2.1-9.7h2.6l-3.2,12.2c-.3.9-.6,1.6-.8,2.2-.3.6-.6,1-.9,1.3-.3.3-.7.5-1.1.7-.4.1-.9.2-1.5.2h-.5c-.1,0-.3,0-.5,0v-2.3Z"/>
    <path fill="#fff" d="M173.9,120.3c1.3,0,2.3.3,2.9,1,.6.7,1,1.7,1,3.1v2.2c0,1.3-.3,2.4-1,3.1-.6.7-1.6,1-2.9,1h-1.2v6.2h-2.6v-16.6h3.8ZM172.7,122.7v5.6h1.2c.4,0,.7-.1.9-.3.2-.2.3-.6.3-1.2v-2.5c0-.6-.1-1-.3-1.2-.2-.2-.5-.3-.9-.3h-1.2Z"/>
    <path fill="#fff" d="M180.5,136.9h-1.9v-16.6h2.3v9.9l4.1-9.9h1.9v16.6h-2.3v-9.4l-4,9.4Z"/>
    <path fill="#fff" d="M191.4,120.3h8.1v2.4h-2.7v14.2h-2.6v-14.2h-2.7v-2.4Z"/>
    <path fill="#fff" d="M207.6,136.9h-2.6l-.5-3h-3.2l-.5,3h-2.4l2.7-16.6h3.8l2.7,16.6ZM201.6,131.7h2.5l-1.3-8.4-1.3,8.4Z"/>
    <path fill="#fff" d="M211.8,120.3h8.1v2.4h-2.7v14.2h-2.6v-14.2h-2.7v-2.4Z"/>
    <path fill="#fff" d="M222,134.6c.1,0,.3,0,.3,0h.3c.2,0,.4,0,.6,0,.2,0,.4-.1.5-.3s.3-.3.3-.5,0-.5,0-.9l-3.6-12.5h2.6l2.6,9.7,2.1-9.7h2.6l-3.2,12.2c-.3.9-.6,1.6-.8,2.2s-.6,1-.9,1.3c-.3.3-.7.5-1.1.7-.4.1-.9.2-1.5.2h-.5c-.1,0-.3,0-.5,0v-2.3Z"/>
    <path fill="#fff" d="M235.2,120.3c1.3,0,2.3.3,2.9,1,.6.7,1,1.7,1,3.1v2.2c0,1.3-.3,2.4-1,3.1-.6.7-1.6,1-2.9,1h-1.2v6.2h-2.6v-16.6h3.8ZM234,122.7v5.6h1.2c.4,0,.7-.1.9-.3.2-.2.3-.6.3-1.2v-2.5c0-.6-.1-1-.3-1.2-.2-.2-.5-.3-.9-.3h-1.2Z"/>
    <path fill="#fff" d="M241.8,136.9h-1.9v-16.6h2.3v9.9l4.1-9.9h1.9v16.6h-2.3v-9.4l-4,9.4Z"/>
    <path fill="#fff" d="M254.4,124.4c0-.7-.1-1.2-.4-1.5-.2-.3-.6-.4-1-.4s-.7.1-1,.4c-.2.2-.4.7-.4,1.3v1.8h-2.5v-1.6c0-1.3.3-2.4,1-3.1.7-.7,1.6-1.1,2.9-1.1s2.2.4,2.9,1.1c.7.7,1,1.8,1,3.1v.4c0,1.8-.6,2.9-1.8,3.4.7.3,1.1.7,1.4,1.3.3.6.4,1.3.4,2.2v1.3c0,1.3-.3,2.4-1,3.1-.7.7-1.6,1.1-2.9,1.1s-2.2-.4-2.9-1.1c-.7-.7-1-1.8-1-3.1v-2.1h2.5v2.3c0,.6.1,1,.4,1.3.2.2.6.4,1,.4s.7-.1,1-.4c.2-.3.4-.8.4-1.5v-1.3c0-.8-.1-1.3-.4-1.6-.3-.3-.7-.5-1.3-.5h-.4v-2.4h.5c.5,0,.9-.1,1.1-.4s.4-.7.4-1.4v-.9Z"/>
    <path fill="#fff" d="M263.6,132.1l1.8-11.8h3.6v16.6h-2.5v-11.9l-1.8,11.9h-2.5l-1.9-11.7v11.7h-2.3v-16.6h3.6l1.9,11.8Z"/>
    <path fill="#fff" d="M271.5,134.6c.1,0,.3,0,.3,0h.3c.2,0,.4,0,.6,0,.2,0,.4-.1.5-.3s.3-.3.3-.5,0-.5,0-.9l-3.6-12.5h2.6l2.6,9.7,2.1-9.7h2.6l-3.2,12.2c-.3.9-.6,1.6-.8,2.2s-.6,1-.9,1.3c-.3.3-.7.5-1.1.7-.4.1-.9.2-1.5.2h-.5c-.1,0-.3,0-.5,0v-2.3Z"/>
    <path fill="#fff" d="M118.2,153.7c0,.8.2,1.3.5,1.6s.8.5,1.4.5v-7h2.6v7c.6,0,1.1-.2,1.4-.5.3-.3.5-.9.5-1.6v-2.5c0-.7.2-1.3.7-1.7.5-.5,1.1-.7,1.9-.7h1.1v2.4h-.7c-.2,0-.3,0-.4.1-.1,0-.2.2-.2.4,0,.2,0,.4,0,.7v1.1c0,1.7-.6,2.8-1.7,3.4.7.3,1.1.7,1.4,1.3.2.6.4,1.3.4,2.2v1.5c0,.3,0,.6,0,.7s.1.3.2.4c.1,0,.2.1.4.1h.7v2.4h-1.1c-.8,0-1.4-.2-1.9-.7-.5-.5-.7-1-.7-1.7v-2.7c0-.8-.2-1.3-.5-1.6-.3-.3-.8-.5-1.4-.5v7.2h-2.6v-7.2c-.6,0-1.1.2-1.4.5-.3.3-.5.9-.5,1.6v2.7c0,.7-.2,1.3-.7,1.7-.5.5-1.1.7-1.9.7h-1.1v-2.4h.7c.1,0,.3,0,.4-.1.1,0,.2-.2.2-.4s0-.4,0-.7v-1.5c0-.9.1-1.6.4-2.2.2-.6.7-1,1.4-1.3-1.1-.5-1.7-1.7-1.7-3.4v-1.1c0-.3,0-.6,0-.7s-.1-.3-.2-.4c-.1,0-.2-.1-.4-.1h-.7v-2.4h1.1c.8,0,1.5.2,1.9.7.5.5.7,1,.7,1.7v2.5Z"/>
    <path fill="#fff" d="M131.4,165.4h-1.9v-16.6h2.3v9.9l4.1-9.9h1.9v16.6h-2.3v-9.4l-4,9.4Z"/>
    <path fill="#fff" d="M138.7,148.8h8.1v2.4h-2.7v14.2h-2.6v-14.2h-2.7v-2.4Z"/>
    <path fill="#fff" d="M147.3,152.8c0-1.3.3-2.4,1-3.1.7-.7,1.7-1.1,2.9-1.1s2.3.4,2.9,1.1c.7.7,1,1.8,1,3.1v8.6c0,1.3-.3,2.4-1,3.1-.7.7-1.7,1.1-2.9,1.1s-2.3-.4-2.9-1.1c-.7-.7-1-1.8-1-3.1v-8.6ZM149.9,161.6c0,.6.1,1,.4,1.3.2.2.6.4,1,.4s.7-.1,1-.4c.2-.2.4-.7.4-1.3v-9c0-.6-.1-1-.4-1.3-.2-.2-.6-.4-1-.4s-.7.1-1,.4c-.2.2-.4.7-.4,1.3v9Z"/>
    <path fill="#fff" d="M161.9,160.6l1.8-11.8h3.6v16.6h-2.5v-11.9l-1.8,11.9h-2.5l-1.9-11.7v11.7h-2.3v-16.6h3.6l1.9,11.8Z"/>
    <path fill="#fff" d="M170.4,165.4h-1.9v-16.6h2.3v9.9l4.1-9.9h1.9v16.6h-2.3v-9.4l-4,9.4Z"/>
    <path fill="#fff" d="M181.8,148.8c1.3,0,2.3.3,2.9,1,.6.7,1,1.7,1,3.1v2.2c0,1.3-.3,2.4-1,3.1-.6.7-1.6,1-2.9,1h-1.2v6.2h-2.6v-16.6h3.8ZM180.6,151.1v5.6h1.2c.4,0,.7-.1.9-.3.2-.2.3-.6.3-1.2v-2.5c0-.6-.1-1-.3-1.2-.2-.2-.5-.3-.9-.3h-1.2Z"/>
    <path fill="#fff" d="M194.4,159.2v2.2c0,1.3-.3,2.4-1,3.1-.7.7-1.6,1.1-2.9,1.1s-2.2-.4-2.9-1.1c-.7-.7-1-1.8-1-3.1v-8.6c0-1.3.3-2.4,1-3.1.7-.7,1.6-1.1,2.9-1.1s2.2.4,2.9,1.1c.7.7,1,1.8,1,3.1v1.6h-2.5v-1.8c0-.6-.1-1-.4-1.3s-.6-.4-1-.4-.7.1-1,.4c-.2.2-.4.7-.4,1.3v9c0,.6.1,1,.4,1.3.2.2.6.4,1,.4s.7-.1,1-.4.4-.7.4-1.3v-2.4h2.5Z"/>
    <path fill="#fff" d="M198.1,155.5h1.6c1.3,0,2.3.3,2.9,1,.6.7,1,1.7,1,3.1v1.6c0,1.3-.3,2.4-1,3.1-.6.7-1.6,1-2.9,1h-4.2v-16.6h2.6v6.8ZM199.7,163c.4,0,.7-.1.9-.3.2-.2.3-.6.3-1.2v-2c0-.6-.1-1-.3-1.2s-.5-.3-.9-.3h-1.6v5.1h1.6Z"/>
    <path fill="#fff" d="M212.2,153.4c0,1.7-.6,2.8-1.7,3.4.7.3,1.1.7,1.4,1.3.2.6.4,1.3.4,2.2v1.5c0,.3,0,.6,0,.7,0,.2.1.3.2.4.1,0,.2.1.4.1h.7v2.4h-1.1c-.8,0-1.4-.2-1.9-.7-.5-.5-.7-1-.7-1.7v-2.7c0-.8-.2-1.3-.5-1.6-.3-.3-.8-.5-1.4-.5h-.9v7.2h-2.6v-16.6h2.6v7h1c.5,0,.9-.1,1.3-.4.4-.3.5-.7.5-1.4v-2.8c0-.7.2-1.3.7-1.7.5-.5,1.1-.7,1.9-.7h1.1v2.4h-.7c-.2,0-.3,0-.4.1-.1,0-.2.2-.2.4,0,.2,0,.4,0,.7v1.1Z"/>
    <path fill="#fff" d="M214.1,152.8c0-1.3.3-2.4,1-3.1.7-.7,1.7-1.1,2.9-1.1s2.3.4,2.9,1.1c.7.7,1,1.8,1,3.1v8.6c0,1.3-.3,2.4-1,3.1-.7.7-1.7,1.1-2.9,1.1s-2.3-.4-2.9-1.1c-.7-.7-1-1.8-1-3.1v-8.6ZM216.7,161.6c0,.6.1,1,.4,1.3s.6.4,1,.4.7-.1,1-.4.4-.7.4-1.3v-9c0-.6-.1-1-.4-1.3s-.6-.4-1-.4-.7.1-1,.4-.4.7-.4,1.3v9Z"/>
    <path fill="#fff" d="M225.2,145.5v2.4h-2.4v-2.4h2.4ZM224.6,148.8h2.6v16.6h-2.6v-16.6ZM229,145.5v2.4h-2.4v-2.4h2.4Z"/>
    <path fill="#fff" d="M233.4,152.8c0-1.3.3-2.4,1-3.1.7-.7,1.7-1.1,2.9-1.1s2.3.4,2.9,1.1c.7.7,1,1.8,1,3.1v8.6c0,1.3-.3,2.4-1,3.1-.7.7-1.7,1.1-2.9,1.1s-2.3-.4-2.9-1.1c-.7-.7-1-1.8-1-3.1v-8.6ZM236,161.6c0,.6.1,1,.4,1.3s.6.4,1,.4.7-.1,1-.4.4-.7.4-1.3v-9c0-.6-.1-1-.4-1.3s-.6-.4-1-.4-.7.1-1,.4-.4.7-.4,1.3v9Z"/>
    <path fill="#fff" d="M245.1,155.5h1.6c1.3,0,2.3.3,2.9,1,.6.7,1,1.7,1,3.1v1.6c0,1.3-.3,2.4-1,3.1-.6.7-1.6,1-2.9,1h-4.2v-16.6h6.9v2.4h-4.3v4.4ZM246.6,163c.4,0,.7-.1.9-.3.2-.2.3-.6.3-1.2v-2c0-.6-.1-1-.3-1.2s-.5-.3-.9-.3h-1.6v5.1h1.6Z"/>
    <path fill="#fff" d="M256.4,157.7c0,1.3,0,2.5-.2,3.5-.1,1-.4,1.8-.7,2.4-.3.6-.8,1.1-1.4,1.4-.6.3-1.4.5-2.3.5h-.3v-2.4h.3c.5,0,.9-.1,1.2-.4.3-.3.5-.6.7-1.1.2-.5.3-1,.3-1.7s0-1.4,0-2.2v-8.8h7.2v16.6h-2.6v-14.2h-2.2v6.5Z"/>
    <path fill="#fff" d="M271.3,165.4h-2.6l-.5-3h-3.2l-.5,3h-2.4l2.7-16.6h3.8l2.7,16.6ZM265.3,160.1h2.5l-1.3-8.4-1.3,8.4Z"/>
    <path fill="#fff" d="M279.4,159.2v2.2c0,1.3-.3,2.4-1,3.1-.7.7-1.6,1.1-2.9,1.1s-2.2-.4-2.9-1.1c-.7-.7-1-1.8-1-3.1v-8.6c0-1.3.3-2.4,1-3.1.7-.7,1.6-1.1,2.9-1.1s2.2.4,2.9,1.1c.7.7,1,1.8,1,3.1v1.6h-2.5v-1.8c0-.6-.1-1-.4-1.3s-.6-.4-1-.4-.7.1-1,.4c-.2.2-.4.7-.4,1.3v9c0,.6.1,1,.4,1.3.2.2.6.4,1,.4s.7-.1,1-.4.4-.7.4-1.3v-2.4h2.5Z"/>
    <path fill="#fff" d="M283.1,165.4h-2.6v-16.6h2.6v7.1h3v-7.1h2.7v16.6h-2.7v-7.1h-3v7.1Z"/>
    <path fill="#fff" d="M289.9,152.8c0-1.3.3-2.4,1-3.1.7-.7,1.7-1.1,2.9-1.1s2.3.4,2.9,1.1c.7.7,1,1.8,1,3.1v8.6c0,1.3-.3,2.4-1,3.1-.7.7-1.7,1.1-2.9,1.1s-2.3-.4-2.9-1.1c-.7-.7-1-1.8-1-3.1v-8.6ZM292.5,161.6c0,.6.1,1,.4,1.3s.6.4,1,.4.7-.1,1-.4.4-.7.4-1.3v-9c0-.6-.1-1-.4-1.3s-.6-.4-1-.4-.7.1-1,.4-.4.7-.4,1.3v9Z"/>
    <path fill="#fff" d="M300.9,145.5v2.4h-2.4v-2.4h2.4ZM300.3,148.8h2.6v16.6h-2.6v-16.6ZM304.7,145.5v2.4h-2.4v-2.4h2.4Z"/>
    <path fill="#fff" d="M116.9,193.8c-.1,0-.2,0-.3,0,0,0-.1.2-.1.3,0,.1,0,.3,0,.6s0,.6,0,.9h-2.2v-4.3h.5c.8-.3,1.3-.8,1.7-1.7.3-.9.5-2.1.5-3.7v-8.8h7.3v14.2h1.1v4.3h-2.2c0-.4,0-.7,0-.9,0-.2,0-.4,0-.6,0-.1,0-.2-.1-.3s-.2,0-.3,0h-5.8ZM119.4,186.1c0,.6,0,1.2-.1,1.8s-.2,1.1-.4,1.6c-.2.5-.3.9-.5,1.3-.2.3-.4.6-.6.7h3.8v-11.9h-2.2v6.5Z"/>
    <path fill="#fff" d="M129,184.2h3.6v2.4h-3.6v4.9h4.5v2.4h-7.1v-16.6h7.1v2.4h-4.5v4.6Z"/>
    <path fill="#fff" d="M138.6,177.2c1.3,0,2.3.3,2.9,1,.6.7,1,1.7,1,3.1v2.2c0,1.3-.3,2.4-1,3.1-.6.7-1.6,1-2.9,1h-1.2v6.2h-2.6v-16.6h3.8ZM137.3,179.6v5.6h1.2c.4,0,.7-.1.9-.3.2-.2.3-.6.3-1.2v-2.5c0-.6-.1-1-.3-1.2-.2-.2-.5-.3-.9-.3h-1.2Z"/>
    <path fill="#fff" d="M147,182.1c0,.8.2,1.3.5,1.6s.8.5,1.4.5v-7h2.6v7c.6,0,1.1-.2,1.4-.5.3-.3.5-.9.5-1.6v-2.5c0-.7.2-1.3.7-1.7.5-.5,1.1-.7,1.9-.7h1.1v2.4h-.7c-.2,0-.3,0-.4.1-.1,0-.2.2-.2.4,0,.2,0,.4,0,.7v1.1c0,1.7-.6,2.8-1.7,3.4.7.3,1.1.7,1.4,1.3.2.6.4,1.3.4,2.2v1.5c0,.3,0,.6,0,.7s.1.3.2.4c.1,0,.2.1.4.1h.7v2.4h-1.1c-.8,0-1.4-.2-1.9-.7-.5-.5-.7-1-.7-1.7v-2.7c0-.8-.2-1.3-.5-1.6-.3-.3-.8-.5-1.4-.5v7.2h-2.6v-7.2c-.6,0-1.1.2-1.4.5-.3.3-.5.9-.5,1.6v2.7c0,.7-.2,1.3-.7,1.7-.5.5-1.1.7-1.9.7h-1.1v-2.4h.7c.1,0,.3,0,.4-.1.1,0,.2-.2.2-.4s0-.4,0-.7v-1.5c0-.9.1-1.6.4-2.2.2-.6.7-1,1.4-1.3-1.1-.5-1.7-1.7-1.7-3.4v-1.1c0-.3,0-.6,0-.7s-.1-.3-.2-.4c-.1,0-.2-.1-.4-.1h-.7v-2.4h1.1c.8,0,1.5.2,1.9.7.5.5.7,1,.7,1.7v2.5Z"/>
    <path fill="#fff" d="M167.2,193.8h-2.6l-.5-3h-3.2l-.5,3h-2.4l2.7-16.6h3.8l2.7,16.6ZM161.2,188.6h2.5l-1.3-8.4-1.3,8.4Z"/>
    <path fill="#fff" d="M172.1,177.2c1.4,0,2.3.3,3,.9.6.6.9,1.6.9,2.9v.6c0,.9-.1,1.6-.4,2.1-.3.6-.7,1-1.3,1.2.7.3,1.2.7,1.5,1.3.3.6.4,1.4.4,2.2v1.4c0,1.3-.3,2.3-1,2.9-.7.7-1.7,1-3,1h-4.1v-16.6h3.9ZM170.7,179.6v4.4h1c.5,0,.9-.1,1.2-.4s.4-.7.4-1.4v-.9c0-.6-.1-1-.3-1.3-.2-.3-.5-.4-1-.4h-1.3ZM170.7,186.4v5.1h1.5c.4,0,.8-.1,1-.4.2-.2.3-.7.3-1.3v-1.4c0-.8-.1-1.3-.4-1.6-.3-.3-.7-.4-1.3-.4h-1.2Z"/>
    <path fill="#fff" d="M180,193.8h-2.6v-16.6h2.6v7.1h3v-7.1h2.7v16.6h-2.7v-7.1h-3v7.1Z"/>
    <path fill="#fff" d="M186.7,181.2c0-1.3.3-2.4,1-3.1.7-.7,1.7-1.1,2.9-1.1s2.3.4,2.9,1.1c.7.7,1,1.8,1,3.1v8.6c0,1.3-.3,2.4-1,3.1-.7.7-1.7,1.1-2.9,1.1s-2.3-.4-2.9-1.1c-.7-.7-1-1.8-1-3.1v-8.6ZM189.3,190c0,.6.1,1,.4,1.3s.6.4,1,.4.7-.1,1-.4.4-.7.4-1.3v-9c0-.6-.1-1-.4-1.3s-.6-.4-1-.4-.7.1-1,.4-.4.7-.4,1.3v9Z"/>
    <path fill="#fff" d="M197.8,174v2.4h-2.4v-2.4h2.4ZM197.2,177.2h2.6v16.6h-2.6v-16.6ZM201.6,174v2.4h-2.4v-2.4h2.4Z"/>
    <path fill="#fff" d="M214.9,193.8h-2.6l-.5-3h-3.2l-.5,3h-2.4l2.7-16.6h3.8l2.7,16.6ZM209,188.6h2.5l-1.3-8.4-1.3,8.4Z"/>
    <path fill="#fff" d="M218.3,193.8c-.1,0-.2,0-.3,0,0,0-.1.2-.1.3,0,.1,0,.3,0,.6,0,.2,0,.6,0,.9h-2.2v-4.3h.5c.8-.3,1.3-.8,1.7-1.7.3-.9.5-2.1.5-3.7v-8.8h7.3v14.2h1.1v4.3h-2.2c0-.4,0-.7,0-.9s0-.4,0-.6c0-.1,0-.2-.1-.3,0,0-.2,0-.3,0h-5.8ZM220.8,186.1c0,.6,0,1.2-.1,1.8s-.2,1.1-.4,1.6c-.2.5-.3.9-.5,1.3-.2.3-.4.6-.6.7h3.8v-11.9h-2.2v6.5Z"/>
    <path fill="#fff" d="M233.4,189l1.8-11.8h3.6v16.6h-2.5v-11.9l-1.8,11.9h-2.5l-1.9-11.7v11.7h-2.3v-16.6h3.6l1.9,11.8Z"/>
    <path fill="#fff" d="M240,177.2h2.6v16.6h-2.6v-16.6Z"/>
    <path fill="#fff" d="M246.4,193.8h-2.6v-16.6h2.6v7.1h3v-7.1h2.7v16.6h-2.7v-7.1h-3v7.1Z"/>
    <path fill="#fff" d="M253.3,177.2h2.6v16.6h-2.6v-16.6Z"/>
    <path fill="#fff" d="M264.8,187.7v2.2c0,1.3-.3,2.4-1,3.1-.7.7-1.6,1.1-2.9,1.1s-2.2-.4-2.9-1.1c-.7-.7-1-1.8-1-3.1v-8.6c0-1.3.3-2.4,1-3.1.7-.7,1.6-1.1,2.9-1.1s2.2.4,2.9,1.1c.7.7,1,1.8,1,3.1v1.6h-2.5v-1.8c0-.6-.1-1-.4-1.3s-.6-.4-1-.4-.7.1-1,.4c-.2.2-.4.7-.4,1.3v9c0,.6.1,1,.4,1.3.2.2.6.4,1,.4s.7-.1,1-.4.4-.7.4-1.3v-2.4h2.5Z"/>
    <path fill="#fff" d="M265.5,177.2h8.1v2.4h-2.7v14.2h-2.6v-14.2h-2.7v-2.4Z"/>
    <path fill="#fff" d="M278.3,177.2c1.3,0,2.3.3,2.9,1,.6.7,1,1.7,1,3.1v2.2c0,1.3-.3,2.4-1,3.1-.6.7-1.6,1-2.9,1h-1.2v6.2h-2.6v-16.6h3.8ZM277.1,179.6v5.6h1.2c.4,0,.7-.1.9-.3.2-.2.3-.6.3-1.2v-2.5c0-.6-.1-1-.3-1.2-.2-.2-.5-.3-.9-.3h-1.2Z"/>
    <path fill="#fff" d="M290.7,193.8h-2.6l-.5-3h-3.2l-.5,3h-2.4l2.7-16.6h3.8l2.7,16.6ZM284.7,188.6h2.5l-1.3-8.4-1.3,8.4Z"/>
    <path fill="#fff" d="M300.8,191.5v4.3h-2.2c0-.4,0-.7,0-.9s0-.4,0-.6c0-.1,0-.2-.1-.3s-.2,0-.3,0h-6.7v-16.6h2.6v14.2h3v-14.2h2.7v14.2h1.1Z"/>
    <path fill="#fff" d="M301.9,177.2h2.6v16.6h-2.6v-16.6Z"/>
    <path fill="#fff" d="M307.7,174v2.4h-2.4v-2.4h2.4ZM307.1,177.2h2.6v16.6h-2.6v-16.6ZM311.5,174v2.4h-2.4v-2.4h2.4Z"/>
  </g>
  <polygon fill="#424242" points="208.2 104 208.2 108.5 214 104 208.2 99.6 208.2 104"/>
  <polygon fill="#424242" points="113.9 202.8 113.9 207.2 119.7 202.8 113.9 198.3 113.9 202.8"/>
  <polygon fill="#36a9e1" points="291.8 136.9 298.1 136.9 291.8 128.7 285.6 136.9 291.8 136.9"/>
  <polygon fill="#ffed00" points="216.4 97 216.4 90.7 208.2 97 216.4 103.2 216.4 97"/>
  <polygon fill="#ffed00" points="123.8 207.9 123.8 201.7 115.6 207.9 123.8 214.2 123.8 207.9"/>
  <polygon fill="#424242" points="295.9 131.5 298.9 135.4 301 127.6 292.9 127.6 295.9 131.5"/>
  <g>
    <rect fill="#504f4f" x="10.5" y="139.2" width="11" height="11" transform="translate(-97.6 53.6) rotate(-45)"/>
    <rect fill="#504f4f" x="83.9" y="139.2" width="11" height="11" transform="translate(-76.1 105.6) rotate(-45)"/>
    <polygon fill="#504f4f" points="73.2 202.9 79.8 194.2 66.6 194.2 73.2 202.9"/>
    <polygon fill="#504f4f" points="25.6 94 38.8 94 32.2 85.3 25.6 94"/>
    <polygon fill="#504f4f" points="73.2 85.3 66.6 94 79.8 94 73.2 85.3"/>
    <polygon fill="#504f4f" points="58.6 74.5 52.7 66.7 46.8 74.5 52.7 74.5 58.6 74.5"/>
    <polygon fill="#504f4f" points="28.6 117.3 22.7 125 28.6 125 34.4 125 28.6 117.3"/>
    <polygon fill="#504f4f" points="71.1 125 77 125 82.9 125 77 117.3 71.1 125"/>
    <polygon fill="#504f4f" points="71.1 163 77 170.8 82.9 163 77 163 71.1 163"/>
    <polygon fill="#504f4f" points="28.6 170.8 34.4 163 28.6 163 22.7 163 28.6 170.8"/>
    <polygon fill="#504f4f" points="77 176.8 77 176.8 85.6 188.2 94.2 176.8 85.6 176.8 77 176.8"/>
    <polygon fill="#504f4f" points="28.4 176.8 19.8 176.8 11.2 176.8 19.8 188.2 28.4 176.8 28.4 176.8"/>
    <polygon fill="#504f4f" points="32.2 202.9 38.8 194.2 25.6 194.2 32.2 202.9"/>
    <polygon fill="#504f4f" points="46.8 213.8 52.7 221.5 58.6 213.8 52.7 213.8 46.8 213.8"/>
    <path fill="#504f4f" d="M44.9,144.7l7.8,7.8,7.8-7.8-7.8-7.8-7.8,7.8ZM56.5,144.7l-3.8,3.8-3.8-3.8,3.8-3.8,3.8,3.8Z"/>
  </g>
  <g>
    <rect fill="#36a9e1" x="13.3" y="142" width="5.4" height="5.4" transform="translate(-97.6 53.7) rotate(-45)"/>
    <rect fill="#36a9e1" x="86.7" y="142" width="5.4" height="5.4" transform="translate(-76.1 105.6) rotate(-45)"/>
    <rect fill="#36a9e1" x="50" y="86.4" width="5.4" height="5.4" transform="translate(-47.5 63.3) rotate(-45)"/>
    <rect fill="#36a9e1" x="50" y="197" width="5.4" height="5.4" transform="translate(-125.8 95.7) rotate(-45)"/>
  </g>
</svg>