<svg xmlns="http://www.w3.org/2000/svg" width="100" height="65"  viewBox="0 0 103.52 66.98">
 <g>
  <path fill="#399a18" d="M51.76 42.63l-3.04 -3.05 6.09 -6.09 3.04 3.05 -6.09 6.09zm6.09 -12.18l18.27 -18.27 9.13 9.13 -12.18 12.18 3.05 3.05 21.31 -21.32 -3.04 -3.04 -6.09 6.09 -9.14 -9.14 9.14 -9.13 15.22 15.22 -27.4 27.41 -9.14 -9.14 12.18 -12.18 -3.04 -3.04 -15.23 15.22 -3.04 -3.04zm33.49 -21.32l-3.04 -3.04 -3.05 3.04 3.05 3.05 3.04 -3.05z"/>
  <path fill="#ff0303" d="M50.24 25.88l1.52 -1.52 3.04 3.04 -6.08 6.09 -3.05 -3.04 4.57 -4.57zm-4.57 10.66l-6.09 6.09 -12.18 -12.18 -3.04 3.04 12.18 12.18 -9.14 9.13 -12.18 -12.17 -9.13 9.13 3.04 3.05 6.09 -6.09 9.14 9.13 -9.14 9.13 -15.22 -15.22 15.22 -15.22 12.18 12.18 3.05 -3.05 -12.18 -12.18 9.13 -9.13 12.18 12.18 3.05 -3.05 3.04 3.05zm-33.49 21.31l3.04 3.04 3.05 -3.04 -3.05 -3.05 -3.04 3.05z"/>
  <path fill="#f7fd04" d="M51.76 36.54l-3.04 3.04 -12.18 -12.18 15.22 -15.22 6.09 6.09 3.04 -3.05 -9.13 -9.13 -18.27 18.27 -6.09 -6.09 -12.18 12.18 -15.22 -15.23 15.22 -15.22 9.14 9.13 -9.14 9.14 -6.09 -6.09 -3.04 3.04 9.13 9.14 12.18 -12.18 6.09 6.09 18.27 -18.27 15.22 15.22 -9.13 9.14 -6.09 -6.09 -9.13 9.13 9.13 9.14zm-36.54 -30.45l-3.04 3.04 3.04 3.05 3.05 -3.05 -3.05 -3.04z"/>
  <path fill="#7b00ff" d="M51.76 30.45l3.04 -3.05 12.18 12.18 -15.22 15.22 -6.09 -6.08 -3.04 3.04 9.13 9.13 18.27 -18.26 6.09 6.09 12.18 -12.18 15.22 15.22 -15.22 15.22 -9.14 -9.13 9.14 -9.13 6.09 6.09 3.04 -3.05 -9.13 -9.13 -12.18 12.17 -6.09 -6.08 -18.27 18.26 -15.22 -15.22 9.13 -9.13 6.09 6.09 9.13 -9.14 -9.13 -9.13zm36.54 30.44l3.04 -3.04 -3.04 -3.05 -3.05 3.05 3.05 3.04z"/>
 </g>
</svg>
