<?xml version="1.0" standalone="no"?>
<!DOCTYPE svg PUBLIC "-//W3C//DTD SVG 20010904//EN"
 "http://www.w3.org/TR/2001/REC-SVG-20010904/DTD/svg10.dtd">
<svg version="1.0" xmlns="http://www.w3.org/2000/svg"
 width="800.000000pt" height="800.000000pt" viewBox="0 0 800.000000 800.000000"
 preserveAspectRatio="xMidYMid meet">
<metadata>
Created by potrace 1.14, written by Peter Selinger 2001-2017
</metadata>
<g transform="translate(0.000000,800.000000) scale(0.100000,-0.100000)"
fill="#000000" stroke="none">
<path d="M588 6001 l-588 -588 569 -569 c312 -313 577 -577 589 -588 21 -18
22 -17 487 448 256 256 469 466 473 466 4 0 110 -104 236 -230 127 -127 232
-230 235 -230 3 0 321 315 705 700 385 385 703 700 706 700 8 0 700 -691 700
-699 0 -4 -52 -58 -115 -121 l-114 -114 -231 229 c-126 127 -233 231 -238 233
-5 1 -1119 -1104 -1172 -1164 -2 -2 101 -110 230 -239 l235 -235 -115 -115
c-63 -63 -117 -115 -121 -115 -3 0 -214 209 -470 465 -255 256 -467 465 -470
465 -4 0 -164 -158 -357 -350 l-349 -350 470 -471 471 -470 -119 -118 -118
-118 -469 469 c-464 465 -470 470 -490 451 -11 -10 -276 -274 -589 -587 l-569
-569 584 -583 c321 -321 587 -584 592 -584 5 0 166 157 358 349 l348 348 -352
353 -352 352 -35 -33 c-19 -19 -123 -123 -231 -231 -108 -109 -201 -198 -205
-198 -5 0 -59 51 -122 114 l-114 113 347 347 c191 190 350 349 354 352 3 3
216 -204 473 -460 257 -256 470 -466 473 -466 4 0 164 157 357 350 l349 349
-467 467 c-257 257 -467 471 -467 475 0 8 216 223 228 226 4 1 216 -207 471
-462 255 -256 467 -465 470 -465 4 0 111 105 239 232 l231 233 235 -235 c130
-128 238 -232 240 -229 3 2 109 107 236 233 l231 230 115 -115 c63 -62 113
-117 112 -121 -6 -16 -692 -698 -700 -696 -5 2 -112 107 -239 233 l-230 229
-349 -349 c-193 -193 -350 -353 -350 -356 0 -4 263 -270 585 -592 l585 -584
706 705 706 705 231 -231 c128 -128 235 -232 239 -232 4 0 217 210 473 466
l467 466 40 -39 c22 -21 181 -179 353 -352 l314 -313 -114 -114 c-62 -63 -117
-114 -122 -114 -5 0 -90 82 -190 183 -100 100 -204 204 -231 230 l-50 49 -352
-352 -353 -352 349 -349 c192 -192 353 -349 358 -349 5 0 271 263 592 584
l584 583 -569 569 c-313 313 -578 577 -589 587 -20 19 -26 13 -490 -451 l-470
-470 -235 236 -236 236 -702 -702 c-386 -386 -705 -702 -709 -702 -8 0 -693
685 -697 697 -1 4 49 59 112 122 l114 114 231 -229 c126 -126 234 -230 238
-232 6 -2 1084 1067 1156 1147 l20 22 -234 234 -235 235 585 585 c322 321 588
585 591 585 10 0 229 -217 229 -227 0 -4 -210 -218 -467 -475 l-468 -468 350
-350 c192 -192 353 -350 357 -350 4 0 482 475 1063 1056 l1055 1056 -588 589
-587 588 -354 -353 -354 -353 353 -353 c348 -348 352 -351 372 -333 11 10 116
114 233 231 117 116 215 212 218 212 4 0 58 -51 121 -114 l115 -114 -820 -821
c-452 -451 -824 -821 -828 -821 -3 0 -57 52 -120 115 l-115 115 467 466 c257
257 467 470 467 474 0 10 -688 700 -698 700 -4 0 -323 -316 -709 -702 l-703
-703 -235 235 -235 235 -235 -235 -235 -235 -117 118 -118 117 353 352 352
353 235 -235 235 -235 350 350 c193 192 350 353 350 356 0 9 -1161 1169 -1170
1169 -4 0 -323 -316 -709 -702 l-702 -702 -232 232 c-128 128 -235 232 -239
232 -3 0 -216 -210 -473 -466 l-466 -467 -26 24 c-14 13 -173 172 -353 353
l-328 328 116 118 117 117 207 -206 c113 -113 220 -219 236 -235 l30 -28 352
352 352 353 -353 353 c-195 195 -354 354 -354 354 0 -1 -264 -266 -587 -589z
m710 -5 l113 -113 -117 -117 -117 -117 -114 113 c-62 62 -113 116 -113 121 0
12 213 226 225 226 6 1 61 -50 123 -113z m5647 0 l113 -113 -114 -114 c-62
-63 -118 -113 -123 -112 -5 1 -59 53 -121 114 l-111 112 113 114 c62 62 117
113 121 113 5 0 60 -51 122 -114z m-2825 -1881 l115 -115 -118 -118 -117 -117
-117 117 -118 118 115 115 c63 63 117 115 120 115 3 0 57 -52 120 -115z
m-2825 -1882 l116 -116 -113 -114 c-62 -62 -117 -113 -121 -113 -5 0 -60 51
-122 114 l-113 113 117 117 c64 64 117 116 118 116 1 0 54 -53 118 -117z
m5652 -4 c54 -55 100 -104 101 -110 2 -5 -48 -60 -111 -123 l-114 -113 -117
117 -118 117 118 117 c88 87 120 113 129 106 7 -6 57 -56 112 -111z"/>
</g>
</svg>
